<?xml version="1.0" encoding="utf-8"?>
<!-- Generator: Adobe Illustrator 16.0.0, SVG Export Plug-In . SVG Version: 6.00 Build 0)  -->
<!DOCTYPE svg PUBLIC "-//W3C//DTD SVG 1.1//EN" "http://www.w3.org/Graphics/SVG/1.1/DTD/svg11.dtd">
<svg version="1.1" id="Layer_1" xmlns="http://www.w3.org/2000/svg" xmlns:xlink="http://www.w3.org/1999/xlink" x="0px" y="0px"
	 width="34.002px" height="69.904px" viewBox="0 0 34.002 69.904" enable-background="new 0 0 34.002 69.904" xml:space="preserve">
<g>
	<path d="M0,67.304C0,35.702,12.301,0,22.602,0c11.301,0,11.4,50.903,11.4,66.804c0,1.2-4.2,1.9-7.2,1.9c-1.7,0-3.1-0.2-3.1-0.8
		c-0.3-1.6-0.5-9.8-1.1-17.601c-4.7,1.7-8.801,3.7-12.501,5c-1,5.5-0.9,8.3-1,12.601c0,1.2-3.3,2-5.9,2c-1.7,0-3.1-0.3-3.2-1.1
		V67.304z M12.301,42.103c3.2-1.3,6.9-2.8,9.701-4.3c-0.4-5.601-0.5-14.901-3.6-14.901C15.301,23.101,13.501,36.502,12.301,42.103z"
		/>
</g>
</svg>
