<?xml version="1.0" encoding="utf-8"?>
<!-- Generator: Adobe Illustrator 16.0.0, SVG Export Plug-In . SVG Version: 6.00 Build 0)  -->
<!DOCTYPE svg PUBLIC "-//W3C//DTD SVG 1.1//EN" "http://www.w3.org/Graphics/SVG/1.1/DTD/svg11.dtd">
<svg version="1.1" id="Layer_1" xmlns="http://www.w3.org/2000/svg" xmlns:xlink="http://www.w3.org/1999/xlink" x="0px" y="0px"
	 width="77.28px" height="75.711px" viewBox="0 0 77.28 75.711" enable-background="new 0 0 77.28 75.711" xml:space="preserve">
<g>
	<path d="M49.056,75.711v-2.464c4.928,0,7.392-1.456,7.392-4.256c0-3.136-2.912-10.752-5.824-17.248H21.28
		c-3.136,6.608-6.272,14.224-6.272,17.248c0,2.8,2.464,4.256,7.392,4.256v2.464H0v-2.464c4.48-0.336,7.728-2.8,9.856-7.616L37.632,0
		h2.912l25.76,62.047c4.256,10.192,5.6,10.976,10.976,11.2v2.464H49.056z M23.52,46.592h25.536L36.064,17.248L23.52,46.592z"/>
</g>
</svg>
