<?xml version="1.0" encoding="utf-8"?>
<!-- Generator: Adobe Illustrator 16.0.0, SVG Export Plug-In . SVG Version: 6.00 Build 0)  -->
<!DOCTYPE svg PUBLIC "-//W3C//DTD SVG 1.1//EN" "http://www.w3.org/Graphics/SVG/1.1/DTD/svg11.dtd">
<svg version="1.1" id="Layer_1" xmlns="http://www.w3.org/2000/svg" xmlns:xlink="http://www.w3.org/1999/xlink" x="0px" y="0px"
	 width="56.6px" height="87.405px" viewBox="0 0 56.6 87.405" enable-background="new 0 0 56.6 87.405" xml:space="preserve">
<g>
	<path d="M0,84.805c0-31.602,12.301-67.304,22.602-67.304c11.301,0,11.4,50.903,11.4,66.804c0,1.2-4.2,1.9-7.2,1.9
		c-1.7,0-3.1-0.2-3.1-0.8c-0.3-1.6-0.5-9.8-1.1-17.601c-4.7,1.7-8.801,3.7-12.501,5c-1,5.5-0.9,8.3-1,12.601c0,1.2-3.3,2-5.9,2
		c-1.7,0-3.1-0.3-3.2-1.1V84.805z M12.301,59.604c3.2-1.3,6.9-2.8,9.701-4.3c-0.4-5.601-0.5-14.901-3.6-14.901
		C15.301,40.602,13.501,54.003,12.301,59.604z"/>
	<path d="M43.899,6.7c0,6.101-0.1,12.801-0.2,18.801c2.7-2,5.4-3.1,7.601-3.1c3.1,0,5.3,2.1,5.3,7.3
		c0,15.101-16.101,30.202-19.101,30.702c0-10.101,1.1-39.302,1.1-52.703c0-2.2,0-4-0.1-5.2c0-0.6,4-2.5,5.1-2.5
		c0.2,0,0.3,0.1,0.3,0.2V6.7z M42.799,45.803c4-2.9,6.3-8.201,6.3-10.601c-0.1-1.7-0.6-2.4-1.3-2.4c-1.4,0-3.601,2.5-4.601,3.9
		C43.099,38.702,42.799,43.402,42.799,45.803z"/>
</g>
</svg>
