<?xml version="1.0" encoding="utf-8"?>
<!-- Generator: Adobe Illustrator 16.0.0, SVG Export Plug-In . SVG Version: 6.00 Build 0)  -->
<!DOCTYPE svg PUBLIC "-//W3C//DTD SVG 1.1//EN" "http://www.w3.org/Graphics/SVG/1.1/DTD/svg11.dtd">
<svg version="1.1" id="Layer_1" xmlns="http://www.w3.org/2000/svg" xmlns:xlink="http://www.w3.org/1999/xlink" x="0px" y="0px"
	 width="66.5px" height="98.707px" viewBox="0 0 66.5 98.707" enable-background="new 0 0 66.5 98.707" xml:space="preserve">
<g>
	<path d="M0,96.106c0-31.602,12.301-67.304,22.602-67.304c11.301,0,11.4,50.903,11.4,66.804c0,1.2-4.2,1.9-7.2,1.9
		c-1.7,0-3.1-0.2-3.1-0.8c-0.3-1.6-0.5-9.8-1.1-17.601c-4.7,1.7-8.801,3.7-12.501,5c-1,5.5-0.9,8.3-1,12.601c0,1.2-3.3,2-5.9,2
		c-1.7,0-3.1-0.3-3.2-1.1V96.106z M12.301,70.905c3.2-1.3,6.9-2.8,9.701-4.3c-0.4-5.601-0.5-14.901-3.6-14.901
		C15.301,51.904,13.501,65.305,12.301,70.905z"/>
	<path d="M45.399,38.403v-8.701c0-2.3,0-4.4,0.1-5.7c0-2,5.3-7.301,5.3-6.801c-0.1,1.5-0.1,2.9-0.1,4.4c0,4.4,0.2,9,0.2,14.101
		c0,1.8-0.1,3.7-0.1,5.7l2.7-1.7c-0.1-1.3-0.2-2.6-0.2-3.9c0-8.301,2.1-17.701,2.1-26.902c0-1.8,4.4-9,5.4-8.9
		c-0.4,8.8-2.1,18.101-2.2,36.602c1.2-0.7,2.8-1.5,7.601-4.4c0.2-0.1,0.3,0.6,0.3,1.6c0,3-0.8,9-1.5,9.401c-2,1.4-4,2.8-6.7,4.5
		c0,1,0.1,3.1,0.1,3.1c0.8-0.5,4.4-2.6,5.8-2.9c0.2,0,0.4,1.7,0.4,3.7c0,2.9-0.3,6.5-1,7l-5.4,3.8c-0.1,2.2-0.2,10.3-0.2,12.901
		c0,0.6-4.2,2.1-4.8,2.1c-0.1-2.3-0.1-4.101-0.1-5.601c0-4.4,0.2-5.6,0.2-7.2l-3.4,2c-0.3,5.6-0.4,10-0.4,14.601
		c0,0.6-2.3,1.1-3.5,1.1c-0.4,0-0.7,0-0.7-0.2c0-4.3,0-12.901,0.1-13.001c-0.3,0-3.6,1.7-5.9,2.7c-0.4,0.2-1.2-5.2-1.2-7.3
		c0-0.5,0-0.7,0.1-0.8c2.7-1.5,1.7-0.8,4-2.4l3-2v-3.701c-1.8,1.4-5.2,3.701-7.2,4.5c-0.7-0.4-1.3-5.4-1.3-8.101
		c0-0.9,0-1.6,0.2-1.7c3-1.7,7.3-4.6,8.2-5.4C45.399,43.604,45.399,41.203,45.399,38.403z M50.499,55.604c1-0.7,1.6-1,2.601-1.6
		v-3.6c-0.7,0.5-1.8,1-2.601,1.8V55.604z"/>
</g>
</svg>
