<?xml version="1.0" encoding="utf-8"?>
<!-- Generator: Adobe Illustrator 16.0.0, SVG Export Plug-In . SVG Version: 6.00 Build 0)  -->
<!DOCTYPE svg PUBLIC "-//W3C//DTD SVG 1.1//EN" "http://www.w3.org/Graphics/SVG/1.1/DTD/svg11.dtd">
<svg version="1.1" id="Layer_1" xmlns="http://www.w3.org/2000/svg" xmlns:xlink="http://www.w3.org/1999/xlink" x="0px" y="0px"
	 width="64.512px" height="74.144px" viewBox="0 0 64.512 74.144" enable-background="new 0 0 64.512 74.144" xml:space="preserve">
<g>
	<path d="M64.512,53.536c0,11.76-11.984,20.608-23.52,20.608H0V71.68c9.296,0,10.08-1.904,10.08-10.976v-47.04
		c0-9.072-0.896-11.2-10.08-11.2V0h37.408c12.88,0,23.968,8.064,23.968,19.264c0,8.064-5.936,14-14.336,16.352
		C57.792,37.856,64.4,45.583,64.512,53.536z M50.4,19.712c0-8.4-6.16-14.56-14.56-14.56h-7.616c-5.712,0-6.72,2.128-6.72,8.064
		v20.16h14.56C44.464,33.375,50.4,28.112,50.4,19.712z M22.4,67.983c1.008,1.008,7.28,1.68,12.096,1.68
		c14.336,0,17.696-8.848,17.696-16.352c0-8.736-7.392-14.784-16.128-14.784h-14.56v25.088C21.504,65.968,21.84,67.423,22.4,67.983z"
		/>
</g>
</svg>
