<?xml version="1.0" encoding="utf-8"?>
<!-- Generator: Adobe Illustrator 16.0.0, SVG Export Plug-In . SVG Version: 6.00 Build 0)  -->
<!DOCTYPE svg PUBLIC "-//W3C//DTD SVG 1.1//EN" "http://www.w3.org/Graphics/SVG/1.1/DTD/svg11.dtd">
<svg version="1.1" id="Layer_1" xmlns="http://www.w3.org/2000/svg" xmlns:xlink="http://www.w3.org/1999/xlink" x="0px" y="0px"
	 width="56.502px" height="68.204px" viewBox="0 0 56.502 68.204" enable-background="new 0 0 56.502 68.204" xml:space="preserve">
<g>
	<path d="M4.5,30.302c-2.5,0-4.5-1.4-4.5-4.4C0,24.201,8.4,0,26.302,0c4.6,0,8.3,2.2,8.3,8.2c0,4.4-2,10.901-7.201,19.901
		c6.201,1.7,9.101,6.8,9.101,12.901c0,10.4-10.101,27.202-27.102,27.202c-5.7,0-8.9-3.5-8.9-8.101c0-3.4,1.8-7.4,5.5-11.101
		c0.7-7.801,1.1-12.901,1.2-19.201C6.3,30.102,5.4,30.302,4.5,30.302z M12.801,57.803h0.9c6.8,0,15.301-7.3,15.301-12.901
		c0-4.5-2.1-6.2-5.8-6.2c-3.1,0-6.8,1.4-9,3.5C13.301,46.603,12.801,52.303,12.801,57.803z M14.101,23.701c0,1,0.1,2.1,0.2,3.4
		c5.9-3.2,10.601-11.001,10.601-14.001c0-1.3-1.2-1.7-2-1.7c-3.2,0-7.9,5.101-8.101,6.3C14.401,19.501,14.101,21.301,14.101,23.701z
		"/>
</g>
</svg>
