<?xml version="1.0" encoding="utf-8"?>
<!-- Generator: Adobe Illustrator 16.0.0, SVG Export Plug-In . SVG Version: 6.00 Build 0)  -->
<!DOCTYPE svg PUBLIC "-//W3C//DTD SVG 1.1//EN" "http://www.w3.org/Graphics/SVG/1.1/DTD/svg11.dtd">
<svg version="1.1" id="Layer_1" xmlns="http://www.w3.org/2000/svg" xmlns:xlink="http://www.w3.org/1999/xlink" x="0px" y="0px"
	 width="60.101px" height="86.305px" viewBox="0 0 60.101 86.305" enable-background="new 0 0 60.101 86.305" xml:space="preserve">
<g>
	<path d="M4.5,48.403c-2.5,0-4.5-1.4-4.5-4.4c0-1.7,8.4-25.901,26.302-25.901c4.6,0,8.3,2.2,8.3,8.2c0,4.4-2,10.901-7.201,19.901
		c6.201,1.7,9.101,6.8,9.101,12.901c0,10.4-10.101,27.202-27.102,27.202c-5.7,0-8.9-3.5-8.9-8.101c0-3.4,1.8-7.4,5.5-11.101
		c0.7-7.801,1.1-12.901,1.2-19.201C6.3,48.203,5.4,48.403,4.5,48.403z M12.801,75.904h0.9c6.8,0,15.301-7.3,15.301-12.901
		c0-4.5-2.1-6.2-5.8-6.2c-3.1,0-6.8,1.4-9,3.5C13.301,64.704,12.801,70.404,12.801,75.904z M14.101,41.802c0,1,0.1,2.1,0.2,3.4
		c5.9-3.2,10.601-11.001,10.601-14.001c0-1.3-1.2-1.7-2-1.7c-3.2,0-7.9,5.101-8.101,6.3C14.401,37.602,14.101,39.402,14.101,41.802z
		"/>
	<path d="M47.4,6.7c0,6.101-0.1,12.801-0.2,18.801c2.7-2,5.4-3.1,7.601-3.1c3.1,0,5.3,2.1,5.3,7.3
		C60.101,44.803,44,59.903,41,60.403c0-10.101,1.1-39.302,1.1-52.703c0-2.2,0-4-0.1-5.2C42,1.9,46,0,47.1,0c0.2,0,0.3,0.1,0.3,0.2
		V6.7z M46.3,45.803c4-2.9,6.3-8.201,6.3-10.601c-0.1-1.7-0.6-2.4-1.3-2.4c-1.4,0-3.6,2.5-4.6,3.9
		C46.6,38.702,46.3,43.402,46.3,45.803z"/>
</g>
</svg>
