<?xml version="1.0" encoding="utf-8"?>
<!-- Generator: Adobe Illustrator 16.0.0, SVG Export Plug-In . SVG Version: 6.00 Build 0)  -->
<!DOCTYPE svg PUBLIC "-//W3C//DTD SVG 1.1//EN" "http://www.w3.org/Graphics/SVG/1.1/DTD/svg11.dtd">
<svg version="1.1" id="Layer_1" xmlns="http://www.w3.org/2000/svg" xmlns:xlink="http://www.w3.org/1999/xlink" x="0px" y="0px"
	 width="960px" height="560px" viewBox="0 0 960 560" enable-background="new 0 0 960 560" xml:space="preserve">
<g>
	<path fill-rule="evenodd" clip-rule="evenodd" d="M543,473c-7.4,2.3-14.7,5.1-22.3,6.7c-55,11.1-106.5,1.9-153.4-28.9
		c-47.7-31.3-77.5-75.6-88.8-131.4c-11.8-58.4,0.2-112.5,35.3-160.6c35.5-48.7,84-77.1,143.9-83.3c62.9-6.6,117.2,13.8,162.7,57.4
		c30,28.8,49.2,63.9,58.5,104.4c1.1,5,4.4,8.9,4.9,14.4c4.4,55.6-7.7,106.5-41.6,151.5c-16.3,21.7-36.6,39.1-60,52.6
		c-1,0.6-2.1,0.8-3.2,1.2c1.2-0.9,2.3-1.8,3.5-2.7c10.1-7.3,20.6-14,30.1-21.9c13.2-10.9,24.7-23.5,33.8-38.2c0.7-1,1.3-2,2-3
		c0.6-1,1.3-2.1,1.9-3.1c0.5-0.6,1.2-1.2,1.5-2c0.4-0.8,0.4-1.7,0.6-2.6c-0.5,0.6-1.1,1.2-1.6,1.9c-0.4,0.7-0.7,1.5-1.1,2.2
		c-0.6,1-1.3,2.1-1.9,3.1c-0.7,1-1.4,1.9-2.1,2.9c-7.8,9.1-14.7,19.1-23.4,27.2c-57.2,53.4-123.6,72.1-199.9,51
		c-15.8-4.4-30.7-10.8-44.6-19.6c0.2-0.2,0.3-0.3,0.5-0.5c1.6,0.8,3.3,1.6,4.9,2.5c36.6,19.6,75.6,28.1,117,23.7
		c42.6-4.6,80.1-21.2,112.1-49.9c14.2-12.7,26.6-27,36.1-43.7c0.6-1,1.2-2.1,1.9-3.1c1-1.5,2-3,2.9-4.5c0.3-0.5,0.3-1.2,0.4-1.8
		c-0.4,0.3-1.1,0.6-1.3,1.1c-0.9,1.6-1.6,3.2-2.4,4.8c-0.7,1-1.3,2-2,3c-1,1.3-2,2.6-2.9,4c-9.3,13.9-20,26.7-32.5,37.7
		c-49.1,43.4-106,59.4-170.5,48.1c-7.5-1.3-14.9-3.6-22.4-5.4c0.1-0.4,0.2-0.7,0.3-1.1c0.8,0.2,1.5,0.4,2.3,0.6
		c19.8,5.5,40,8.2,60.6,7.7c27.9-0.6,54.5-6.7,79.5-18.8c49.1-23.8,84.2-60.5,102.4-112.5c1.1-3.2,1.6-6.7,2.4-10.1
		c0.3-0.8,0.6-1.6,0.9-2.4c0,0-0.3-0.2-0.4-0.2c-0.2,0.9-0.3,1.8-0.5,2.7c-0.7,1.6-1.6,3.2-2.2,4.9c-9.9,29.4-25.3,55.6-47.7,77
		c-54.6,52-118.8,68.2-191.8,49.7c-13.9-3.5-27.2-8.8-39.5-16.4l0.3-0.4c1.4,0.6,2.8,1,4.1,1.7c21.3,10.8,43.8,17.5,67.6,19.7
		c49.8,4.6,95.2-7.1,135.6-36.8c15.7-11.5,29.3-25.2,40.7-41c0.6-0.8,0.8-2,1.2-3c-0.8,0.6-1.8,1-2.5,1.8c-6.2,7-11.8,14.5-18.5,21
		c-43.8,42.6-96.1,61.7-157,54.5c-54.2-6.4-97.6-32.4-130.1-76.3c-3.1-4.2-5.6-9-8.3-13.5l0,0c0.8,0.8,1.7,1.6,2.3,2.5
		c10.6,16.5,23.3,31.2,38.5,43.7c41.6,34.4,89.4,48.7,142.8,42.4c41.7-4.9,77.6-23.1,107.6-52.4c30.2-29.5,48-65.5,53.7-107.4
		c0.9-6.7,1.1-13.4,1.6-20.2c-0.5,0-0.9-0.1-1.4-0.1c-0.4,3.4-0.8,6.8-1.1,10.2c-3.9,44.2-21.6,82.1-52.9,113.4
		c-6.2,6.2-13.5,11.2-20.3,16.8c1.1-1.3,2.2-2.5,3.3-3.8c1.6-1.6,3.3-3.2,4.9-4.7c0.2-0.3,0.4-0.7,0.6-1c0.4-0.2,0.8-0.4,1.2-0.7
		c2.7-2.2,5.4-4.5,8.1-6.7c2.7-3.1,5.4-6.2,8.1-9.3c0.9-0.8,1.8-1.7,2.8-2.5c0.8-1.2,1.6-2.4,2.4-3.6c0.2-0.2,0.4-0.4,0.6-0.5
		c0.8-1.1,1.6-2.2,2.5-3.4c0.2-0.2,0.4-0.5,0.5-0.7c1-1.4,2.1-2.8,3.1-4.2c0.7-1,1.5-1.9,2.2-2.9l-0.1,0.1c0.7-1.1,1.4-2.1,2.1-3.2
		l-0.1,0.1c1.2-1.7,2.3-3.4,3.5-5.2c7.5-12,13.4-24.9,17.9-38.3c0.7-2.1,2.4-3.9,0-7.1c-1.9-2.6-0.4-7.8-0.1-11.8
		c1-11.1,2.2-22.2,3.1-33.3c0.1-1.6-1.2-4.5-2.2-4.6c-2.9-0.4-2.4,2.4-2.6,4.3c-0.6,5.6-1,11.3-1.9,16.9
		c-6.9,44.7-25.2,83-61.7,111.6c-41.4,32.4-87.4,44.9-139.1,34.2c-35.9-7.4-67.1-23.6-91.4-51.6c-13.5-15.6-25.4-32.2-33-51.5
		c-5.9-15.1-7.4-31-7.9-47c-0.5-16.9-0.4-33.7,3.8-50.1c9.8-38.7,31-70.1,62.3-94.6c38.2-30,81.8-38.6,128.6-28.5
		c35.7,7.7,64.3,28,88.6,54.9c18.4,20.4,32,43.3,37.8,70.4c0.2,0.7,0.8,1.4,1.2,2c0.2,2.2,0.3,4.5,0.5,6.7c0.3,1.4,0.5,2.8,0.8,4.2
		c0.3-0.1,0.6-0.2,0.9-0.3c-0.6-1.3-1.1-2.5-1.7-3.8c-0.2-2.2-0.3-4.5-0.5-6.7c-0.1-1.3,0-2.7-0.3-4c-7.4-32.4-21.3-61.3-45.7-84.4
		c-10.5-9.9-21.6-19.4-33.3-27.8c-31.2-22.5-66.8-29.6-104.6-27.1c-10.5,0.7-21,3-31.1,4.5c-0.2,0.2,0-0.1,0.2-0.2
		c0.9-0.4,1.9-0.7,2.8-1c22.8-6.9,46-9.5,69.6-6.6c63.2,8,110.2,39.9,139.5,96.8c4.8,9.3,7.8,19.4,11.6,29.2
		c0.3,0.7,0.9,1.3,1.3,1.9c0-0.7,0.2-1.5,0-2.2c-0.5-2.3-1-4.5-1.7-6.8c-23.3-74.3-102.1-139.3-205.5-119
		c-14.1,2.8-27.6,7.5-40.9,12.9c-0.1-0.2-0.3-0.3-0.4-0.5c1.3-0.7,2.5-1.6,3.9-2.2c53.6-22.9,106.7-22.6,159.1,3.5
		c32.4,16.2,56.5,41.2,74.5,72.3c1.3,2.3,2.8,4.5,4.3,6.7c0.3,0.4,1.1,0.5,1.6,0.7c0-0.6,0.3-1.3,0.1-1.8c-0.9-2.2-1.6-4.4-2.8-6.4
		c-25.1-43.5-61-73.7-109.7-88c-22.4-6.6-45.4-8.5-68.6-7.6l0.1,0.1c1.3-0.4,2.5-1,3.8-1c20.6-1.2,40.9,0.2,60.9,5.7
		c6.6,1.8,13.1,4,19.6,5.9c0.7,0.2,1.6-0.1,2.4-0.1c-0.5-0.6-0.9-1.4-1.5-1.7c-2.4-1.4-4.8-2.7-7.2-4l-0.1,0.1c1,0.2,2,0.4,2.9,0.7
		c16.2,5.9,31.5,13.6,45.4,23.9c43.6,32,70.3,74.4,78.7,128c1.3,8,1.7,16.2,2.6,24.3c0.1,0.9,0.6,1.7,0.9,2.6
		c0.2-0.9,0.7-1.9,0.7-2.8c-0.4-8.3-0.4-16.7-1.6-24.9c-6.7-45.3-27-83.5-60.1-115.1c-52.8-50.3-134.5-66.2-202.3-39.3
		c-27.2,10.8-51.1,26.4-71.6,47.3c-1.4,1.4-2.8,2.9-4.3,4.2c-0.4,0.4-1,0.7-1.5,1c0.2-0.5,0.3-1.1,0.6-1.6c0.4-0.6,0.9-1,1.3-1.5
		C377.6,98,432,75.6,497.1,81c29,2.4,56.1,11.2,81.3,25.9c18.6,10.8,34.7,24.7,49.2,40.5c1.5,1.7,3,3.4,4.5,5.1
		c0.2-0.2,0.6-0.5,0.6-0.5c-1.4-1.8-2.8-3.5-4.3-5.3c-0.5-0.7-0.8-1.4-1.4-2.1c-13.3-14.8-28-28-45-38.5
		c-41.2-25.5-86.1-33.9-133.7-26.7c-60.5,9.2-107.7,39.8-140.5,91.6c-27,42.7-37.3,89.5-29.6,139.5c7.1,46.3,27.9,86.1,62.7,117.5
		c50,45.1,108.6,62.9,175.5,51.3C525.3,477.8,534.1,475.1,543,473z M654.7,380.3c0.1-0.1,0.3-0.2,0.4-0.3c0.9-1.7,1.9-3.4,2.8-5.1
		c0.1-0.2-0.2-0.5-0.3-0.8c-0.8,1.2-1.6,2.4-2.3,3.6c-0.3,0.5-0.6,1.2-0.8,1.8C654.4,379.7,654.6,380,654.7,380.3z M661.2,358.2
		c-0.4,0.8-0.7,1.6-1,2.3c0.2,0,0.6,0.1,0.7,0.1c0.3-0.6,0.6-1.2,0.9-1.8C661.8,358.7,661.5,358.4,661.2,358.2z M669.9,324.7
		c-0.1-0.3-0.3-0.5-0.4-0.8c-0.2,0.2-0.5,0.5-0.5,0.7c0.1,0.3,0.4,0.6,0.6,0.9C669.7,325.2,669.9,325,669.9,324.7z M670.5,320.8
		c0.1-0.3,0.4-0.5,0.4-0.7c0-0.3-0.2-0.6-0.3-0.8c-0.1,0.2-0.4,0.4-0.4,0.7C670.1,320.2,670.3,320.5,670.5,320.8z M671.6,315.6
		c0.1-0.3,0.1-0.6,0.1-0.9c-0.2,0-0.4,0-0.5-0.1c0,0.1-0.1,0.3,0,0.4C671.3,315.3,671.5,315.4,671.6,315.6z M672.5,308.5
		c-0.1,0.1-0.2,0.2-0.2,0.3c0,0.1,0,0.3,0,0.4c0.1-0.1,0.3-0.2,0.4-0.4C672.7,308.8,672.6,308.7,672.5,308.5z M674.6,280.6
		c-0.2,0.4-0.2,0.5-0.3,0.7c0.1,0,0.2,0,0.3,0.1C674.6,281.2,674.6,281,674.6,280.6z"/>
	<path fill-rule="evenodd" clip-rule="evenodd" fill="#FFFFFF" d="M543,473c-8.9,2.1-17.7,4.8-26.7,6.3
		c-66.8,11.6-125.4-6.2-175.5-51.3c-34.8-31.4-55.6-71.2-62.7-117.5c-7.7-50,2.6-96.8,29.6-139.5c32.8-51.8,80-82.5,140.5-91.6
		c47.6-7.2,92.5,1.2,133.7,26.7c17,10.5,31.7,23.7,45,38.5c0.5,0.6,0.9,1.4,1.4,2.1c-0.3,0.2-0.5,0.5-0.8,0.7
		c-14.5-15.8-30.6-29.7-49.2-40.5c-25.2-14.6-52.3-23.5-81.3-25.9c-65.1-5.4-119.5,17-164.4,63.9c-0.5,0.5-1,0.9-1.3,1.5
		c-0.3,0.5-0.4,1.1-0.6,1.6c0.5-0.3,1.1-0.6,1.5-1c1.4-1.4,2.8-2.8,4.3-4.2c20.5-20.9,44.5-36.5,71.6-47.3
		c67.8-27,149.5-11,202.3,39.3c33.1,31.6,53.5,69.8,60.1,115.1c1.2,8.2,1.1,16.6,1.6,24.9c0,0.9-0.4,1.9-0.7,2.8
		c-0.3-0.9-0.8-1.7-0.9-2.6c-0.9-8.1-1.3-16.3-2.6-24.3c-8.5-53.6-35.1-96-78.7-128c-13.9-10.2-29.2-18-45.4-23.9
		c-0.9-0.3-1.9-0.5-2.9-0.7c-4.3-1.4-8.6-2.7-12.9-4.1c-1.6-0.1-3.2-0.3-4.8-0.4c-1.3-0.4-2.5-0.8-3.8-1.1c-0.5-0.3-1-0.7-1.5-1
		c-0.1,0.2-0.2,0.3-0.3,0.5c0.6,0.1,1.3,0.3,1.9,0.4c1.3,0.4,2.5,0.8,3.8,1.2c1.6,0.1,3.3,0.2,4.9,0.4c4.3,1.4,8.5,2.7,12.8,4.1
		c2.4,1.3,4.9,2.6,7.2,4c0.6,0.4,1,1.2,1.5,1.7c-0.8,0.1-1.7,0.3-2.4,0.1c-6.5-1.9-13-4.1-19.6-5.9C508,92.3,487.6,91,467,92.2
		c-1.3,0.1-2.5,0.7-3.8,1c-2.3,0-4.6,0-6.9,0c0,0.3,0,0.5,0.1,0.8c2.3-0.3,4.5-0.6,6.8-0.9c23.3-0.9,46.2,1,68.6,7.6
		c48.6,14.3,84.5,44.4,109.7,88c1.2,2,1.9,4.2,2.8,6.4c0.2,0.5,0,1.2-0.1,1.8c-0.6-0.2-1.3-0.3-1.6-0.7c-1.5-2.2-3-4.4-4.3-6.7
		c-18-31.2-42-56.2-74.5-72.3c-52.4-26.1-105.5-26.4-159.1-3.5c-1.4,0.6-2.6,1.4-3.9,2.2c-2.6,1.4-5.1,2.9-7.7,4.3
		c-2.3,1.3-4.6,2.7-7,4c-0.6,0.2-1.2,0.3-1.8,0.5c0.1,0.2,0.2,0.4,0.3,0.6c0.5-0.4,0.9-0.8,1.4-1.2c2.3-1.3,4.6-2.7,7-4
		c2.7-1.2,5.5-2.5,8.2-3.7c13.3-5.4,26.7-10.1,40.9-12.9c103.4-20.3,182.2,44.6,205.5,119c0.7,2.2,1.2,4.5,1.7,6.8
		c0.2,0.7,0,1.5,0,2.2c-0.5-0.6-1.1-1.2-1.3-1.9c-3.9-9.7-6.9-19.9-11.6-29.2c-29.3-56.9-76.2-88.8-139.5-96.8
		c-23.6-3-46.9-0.3-69.6,6.6c-1,0.3-1.9,0.6-2.8,1c-0.2,0.1-0.4,0.4-0.2,0.2c10.1-1.5,20.5-3.8,31.1-4.5
		c37.8-2.6,73.4,4.6,104.6,27.1c11.7,8.4,22.8,17.9,33.3,27.8c24.4,23,38.3,52,45.7,84.4c0.3,1.3,0.2,2.6,0.3,4l0.1-0.1
		c-0.4-0.7-1-1.3-1.2-2c-5.8-27.1-19.4-50.1-37.8-70.4c-24.3-26.8-52.9-47.2-88.6-54.9c-46.9-10.1-90.4-1.5-128.6,28.5
		c-31.3,24.5-52.5,55.9-62.3,94.6c-4.2,16.5-4.3,33.3-3.8,50.1c0.5,16.1,2,31.9,7.9,47c7.6,19.3,19.5,35.9,33,51.5
		c24.3,28.1,55.5,44.2,91.4,51.6c51.7,10.7,97.7-1.8,139.1-34.2C624.8,383,643.1,344.8,650,300c0.9-5.6,1.3-11.2,1.9-16.9
		c0.2-1.9-0.3-4.6,2.6-4.3c0.9,0.1,2.3,3.1,2.2,4.6c-0.8,11.1-2.1,22.2-3.1,33.3c-0.3,4-1.8,9.2,0.1,11.8c2.3,3.2,0.7,5,0,7.1
		c-4.5,13.5-10.4,26.3-17.9,38.3c-1.2,1.7-2.3,3.4-3.5,5.2l0.1-0.1c-0.7,1.1-1.4,2.1-2.1,3.2l0.1-0.1c-0.8,0.3-1.5,0.6-2.3,0.9
		c-0.8,1-1.7,2-2.5,3c-0.1,0.3-0.3,0.5-0.4,0.8c-0.7,1-1.4,2.1-2,3.1c-0.3,0.3-0.6,0.7-1,1c-0.7,1-1.4,2-2.1,3
		c-0.3,0.3-0.6,0.6-0.9,1c-1.7,2-3.4,4-5.1,6.1c-2.3,2.3-4.6,4.7-6.9,7c-2.3,2.6-4.7,5.3-7,7.9c-0.4,0.2-0.8,0.4-1.2,0.7
		c-0.9,0.5-1.9,1-2.8,1.4c-0.7,0.7-1.4,1.4-2,2.1c-1,0.6-1.9,1.2-2.9,1.9c-0.7,0.7-1.4,1.4-2.1,2.1c-1,0.6-1.9,1.3-2.9,1.9
		c-1.4,1-2.7,2-4.1,3.1c-0.4,0.5-0.8,1.1-1.2,1.6c0.2,0.2,0.3,0.4,0.5,0.6c-0.4,0.6-0.7,1.2-1.1,1.8c-0.6,0.2-1.2,0.4-1.8,0.6
		c0.1,0.2,0.2,0.4,0.3,0.6c0.5-0.4,0.9-0.8,1.4-1.3c1-0.7,2-1.4,3-2l-0.2,0.1c1.1-0.7,2.1-1.4,3.2-2.1l-0.2,0.1
		c1.4-1,2.8-2.1,4.2-3.1l-0.2,0.1c6.8-5.6,14.1-10.6,20.3-16.8c31.3-31.4,49-69.2,52.9-113.4c0.3-3.4,0.7-6.8,1.1-10.2
		c0.5,0,0.9,0.1,1.4,0.1c-0.5,6.7-0.7,13.5-1.6,20.2c-5.7,41.9-23.5,77.9-53.7,107.4c-30,29.3-65.9,47.5-107.6,52.4
		c-53.4,6.2-101.3-8-142.8-42.4c-15.1-12.5-27.8-27.2-38.5-43.7c-0.6-0.9-1.5-1.7-2.3-2.5c-0.6-1.2-1.2-2.5-1.8-3.7
		c-0.2,0.1-0.4,0.2-0.6,0.3c0.8,1.1,1.6,2.3,2.4,3.4c2.8,4.5,5.2,9.3,8.3,13.5c32.5,43.9,75.8,69.9,130.1,76.3
		c60.9,7.2,113.3-11.9,157-54.5c6.7-6.5,12.3-14,18.5-21c0.7-0.7,1.7-1.2,2.5-1.8c-0.4,1-0.6,2.1-1.2,3c-11.4,15.8-25,29.4-40.7,41
		c-40.4,29.8-85.8,41.4-135.6,36.8c-23.8-2.2-46.3-8.9-67.6-19.7c-1.3-0.7-2.8-1.2-4.1-1.7c-2.3-1.3-4.7-2.6-7-4
		c-1.6-1-3.3-2.1-4.9-3.1c-1.1-0.6-2.2-1.2-3.2-1.7c-1-0.7-2-1.3-3-2c-1.3-1-2.7-2-4-3c-1.3-1-2.7-2-4-3c-0.3-0.4-0.5-0.9-0.8-1.1
		c-0.5-0.3-1.1-0.5-1.6-0.8c0.4,0.5,0.7,1,1.2,1.4c0.4,0.3,0.9,0.3,1.4,0.5c1.3,1,2.7,2,4,3c1.3,1,2.7,2,4,3c1,0.7,2,1.3,3,2
		c1,0.7,1.9,1.4,2.9,2.1c1.6,1,3.3,2.1,4.9,3.1c2.3,1.3,4.7,2.7,7,4c12.3,7.6,25.6,12.9,39.5,16.4c72.9,18.5,137.2,2.3,191.8-49.7
		c22.4-21.4,37.9-47.6,47.7-77c0.6-1.7,1.5-3.3,2.2-4.9l0,0c-0.8,3.4-1.3,6.8-2.4,10.1c-18.2,52-53.4,88.7-102.4,112.5
		c-25,12.1-51.6,18.2-79.5,18.8c-20.7,0.4-40.8-2.2-60.6-7.7c-0.8-0.2-1.5-0.4-2.3-0.6c-0.1,0.4-0.2,0.7-0.3,1.1
		c7.5,1.8,14.8,4.1,22.4,5.4c64.5,11.2,121.4-4.8,170.5-48.1c12.5-11.1,23.2-23.8,32.5-37.7c0.9-1.4,1.9-2.7,2.9-4
		c0.2,0.2,0.4,0.4,0.6,0.5c-9.5,16.6-21.9,31-36.1,43.7c-32,28.6-69.5,45.3-112.1,49.9c-41.4,4.5-80.4-4.1-117-23.7
		c-1.6-0.9-3.3-1.6-4.9-2.5c-5.8-3.6-11.5-7.1-17.3-10.7c-1.4-1-2.7-2-4.1-3c-0.4-0.5-0.7-1.1-1.1-1.5c-0.3-0.3-0.8-0.5-1.3-0.7
		c0.2,0.5,0.3,1.1,0.7,1.4c0.5,0.4,1.2,0.5,1.8,0.7c1.4,1,2.7,2,4.1,3c5.6,3.8,11.1,7.5,16.7,11.3c13.9,8.8,28.8,15.3,44.6,19.6
		c76.3,21.1,142.6,2.4,199.9-51c8.7-8.1,15.7-18.1,23.4-27.2c0.2,0.2,0.4,0.4,0.7,0.6c-9.1,14.7-20.6,27.3-33.8,38.2
		c-9.6,7.9-20.1,14.6-30.1,21.9c-1.2,0.9-2.3,1.8-3.5,2.7l0.2-0.1c-5.4,2.7-10.8,5.4-16.2,8.1l0.2-0.1c-1.4,0.7-2.8,1.4-4.2,2.1
		l0.2-0.1c-1.7,0.7-3.5,1.4-5.2,2.1l0.2-0.1c-2.7,1.2-5.4,2.4-8.2,3.6C545,472.7,544,472.9,543,473z M377.9,128.9
		c-0.5,0.3-1,0.7-1.6,1c0.2,0.1,0.3,0.3,0.5,0.4c0.3-0.5,0.6-1,1-1.5c0.6-0.1,1.2-0.2,1.8-0.3c-0.1-0.2-0.1-0.4-0.2-0.6
		C378.8,128.2,378.4,128.6,377.9,128.9z M437.3,455.8c-1.5-0.2-3-0.4-4.5-0.6c-3.2-1.1-6.5-2.2-9.7-3.3c-6-2.3-12.1-4.6-18.1-6.8
		c-0.7-0.5-1.4-1.1-2.2-1.6c-0.1,0.2-0.2,0.4-0.4,0.6c0.9,0.3,1.7,0.6,2.6,0.9c6,2.4,11.9,4.7,17.9,7.1c3.3,1,6.6,2,9.9,3
		c1.5,0.2,3,0.4,4.5,0.6c1.3,0.4,2.6,0.8,3.9,1.1c1.7,0.3,3.4,0.6,5.1,0.9c1.2,0.3,2.3,0.7,3.5,1c0,0,0.1-0.2,0.1-0.4
		c-1.1-0.2-2.2-0.3-3.3-0.5c-0.2,0-0.3-0.1-0.5-0.1c-1.7-0.3-3.4-0.6-5.1-0.9C439.9,456.5,438.6,456.1,437.3,455.8z M284.7,320.6
		c0-0.3,0-0.6,0-0.9c0-0.5,0.1-0.9,0.1-1.4c-0.2,0-0.3,0-0.5,0c0.1,0.4,0.2,0.9,0.3,1.3C284.6,320,284.6,320.3,284.7,320.6
		c0.1,0.2,0.3,0.5,0.4,0.8c0.2,0.2,0.4,0.5,0.6,0.7C285.4,321.6,285,321.1,284.7,320.6z M313.1,365.9c0,0.3-0.2,0.7,0,0.9
		c0.3,0.6,0.8,1.2,1.2,1.8c-0.2-0.7-0.3-1.4-0.6-2C313.6,366.3,313.2,366.2,313.1,365.9c-0.2-0.4-0.2-0.9-0.4-1.3
		c-0.3-0.4-0.8-0.8-1.2-1.1c0.2,0.6,0.3,1.2,0.5,1.7C312.2,365.5,312.7,365.6,313.1,365.9z M441.6,91.4c0.4-0.2,0.8-0.3,1.3-0.5
		c0.4-0.1,0.9-0.2,1.3-0.3c-0.5-0.1-1.1-0.3-1.6-0.2C442.2,90.5,442,91,441.6,91.4c-0.3,0-0.6-0.1-0.9-0.1c-0.6,0-1.2,0.1-1.7,0.1
		c0.6,0,1.1,0,1.7,0C440.9,91.4,441.3,91.4,441.6,91.4z M289.6,339.6c-0.1-0.8-0.2-1.6-0.3-2.4C289.4,337.9,289.5,338.7,289.6,339.6
		c0.2,0.4,0.4,0.8,0.7,1.2c0.4,0.6,0.8,1.1,1.2,1.7c-0.2-0.7-0.4-1.5-0.8-2.2C290.6,340,290,339.8,289.6,339.6z M371,126
		c0.6-0.2,1.2-0.4,1.7-0.7c0.4-0.2,0.6-0.7,0.9-1c-0.5,0.1-1.1,0.1-1.5,0.4C371.7,124.9,371.4,125.6,371,126c-1,0.7-2,1.4-3,2
		c-2.2,1.5-4.6,2.7-6.6,4.4c-49.2,40.9-72.8,93.2-70.1,157.3c0.2,4.1,1.3,8.1,1.9,12.1c0.2,2.5,0.4,5,0.6,7.5
		c1.1,4.9,2.2,9.7,3.3,14.6c0.1,0.8,0.1,1.6,0.2,2.4c0.1,0,0.3-0.1,0.4-0.1c-0.2-0.7-0.5-1.4-0.7-2.1c-1.1-4.9-2.2-9.7-3.2-14.6
		c-0.2-2.5-0.4-5-0.6-7.5c-1.9-19.8-1.7-39.5,2.3-59.1c8.1-40,27.8-73.4,57.3-101.2c4.9-4.7,10.2-9,15.3-13.5
		C369,127.4,370,126.7,371,126z M405.2,102.1c0.5-0.1,1-0.1,1.4-0.3c0.6-0.3,1.2-0.8,1.7-1.2c-0.7,0.2-1.4,0.3-2.1,0.7
		c-0.4,0.2-0.6,0.6-0.9,1c-0.5,0-1-0.1-1.4,0c-0.7,0.3-1.3,0.7-2,1.1c0.7-0.2,1.4-0.3,2.1-0.5C404.4,102.7,404.8,102.3,405.2,102.1z
		 M333,386.1c-0.4-0.6-0.7-1.3-1.1-1.9c-0.1,0.1-0.3,0.2-0.4,0.2C332,384.9,332.5,385.5,333,386.1c1.1,1.2,2.1,2.6,3.1,3.9
		c0.1,0.5,0.2,1,0.5,1.3c0.5,0.5,1.2,0.9,1.7,1.4c-0.4-0.6-0.7-1.3-1.1-1.9c-0.3-0.3-0.8-0.5-1.2-0.7
		C334.9,388.7,333.9,387.4,333,386.1z M509.4,90.4c0.5,0.1,0.9,0.2,1.4,0.2c0.7,0,1.4-0.1,2.1-0.1c-0.7-0.1-1.5-0.2-2.2-0.2
		C510.3,90.2,509.8,90.3,509.4,90.4c-0.5-0.3-0.8-0.7-1.3-0.8c-0.7-0.2-1.5-0.1-2.3-0.1c0.7,0.2,1.5,0.3,2.2,0.5
		C508.5,90.1,509,90.2,509.4,90.4z M301.1,365c-0.2-0.5-0.3-1-0.5-1.4c-0.2-0.4-0.6-0.7-0.9-1.1c0.1,0.6,0.2,1.2,0.4,1.6
		c0.2,0.3,0.7,0.5,1.1,0.7c0.4,1.5,0.8,3,1.2,4.6c0.3-0.1,0.6-0.2,0.9-0.3C302.6,367.7,301.8,366.4,301.1,365z M328,379
		c0.4,0.6,0.8,1.3,1.2,1.9c0.1-0.1,0.2-0.2,0.4-0.3C329,380.1,328.5,379.6,328,379c-1.7-2.7-3.3-5.4-4.9-8.1c-1.6-3-3.3-6-4.9-9.1
		c-0.5-1.4-1-2.8-1.6-4.2c-25.4-55.8-23.9-110.9,4.7-165.1c4.9-9.2,11.2-17.7,16.8-26.5c1.7-1.9,3.4-3.9,5.2-5.8
		c4.2-4.3,8.4-8.5,12.6-12.8c0.3-0.3,0.6-0.8,0.8-1.2c-0.5,0.2-1.2,0.2-1.6,0.5c-4.2,4.3-8.2,8.7-12.4,13c-1.6,2-3.3,4-4.9,6
		c-5,6.8-10.6,13.3-14.9,20.5c-27.7,46.4-32.6,95.6-17.3,147c3,9.9,8.1,19.2,12.3,28.7c1.7,3,3.4,6,5,9
		C324.7,373.7,326.3,376.3,328,379z M514.8,459.8c-4.1,0.6-8.1,1.2-12.2,1.8c-11.3,0.7-22.6,1.3-32.8,1.9c7,0,15.1,0.2,23.2-0.1
		c3.2-0.1,6.4-1.2,9.5-1.9c4.1-0.6,8.1-1.3,12.2-1.9c0.8,0,1.5,0.1,2.3,0.1c0-0.2,0-0.4,0-0.6C516.2,459.5,515.5,459.6,514.8,459.8z
		 M368,422c-1.1-1.1-2.3-2.1-3.4-3.2c-0.1,0.2-0.3,0.4-0.4,0.6C365.5,420.3,366.8,421.1,368,422c5.7,4,11.2,8.1,16.8,12.2
		c2.5,1.6,4.9,3.2,7.4,4.7c0.4,0.3,1.1,0.1,1.6,0.2c-0.3-0.3-0.6-0.8-1-1c-2.5-1.5-5.1-2.9-7.6-4.3C379.5,429.9,373.7,426,368,422z
		 M461.4,459.6c-2.1-0.1-4.1-0.2-6.2-0.3c0,0.1,0,0.3,0,0.3C457.4,459.7,459.4,459.6,461.4,459.6c1,0.4,1.8,1.1,2.7,1.1
		c10,0.1,20.1,0.1,30.1,0.1c0-0.4,0-0.8,0-1.2C483.3,459.6,472.4,459.6,461.4,459.6z M342.4,426.4c0.3-0.3,0.5-0.5,0.8-0.8
		c-4-3.8-7.9-7.6-11.9-11.4c-0.3-0.2-0.7-0.3-1-0.4c0.3,0.4,0.5,0.9,0.8,1.2C334.8,418.8,338.6,422.6,342.4,426.4z M466.8,87.3
		c0.1,0.1,0.1,0.2,0.2,0.4c7.4,0,14.8,0,22.2,0c0-0.1,0-0.2,0-0.4C481.7,87.3,474.3,87.3,466.8,87.3z M278.4,285.2
		c0.1,0,0.1-0.1,0.2-0.1c0-2.8,0-5.6,0-8.3c-0.1,0-0.1,0-0.2,0C278.4,279.5,278.4,282.3,278.4,285.2z M346.9,401.9
		c-1.2-1.2-2.6-2.4-3.9-3.7c0,0.2-0.2,0.6-0.1,0.7c1.2,1.3,2.5,2.6,3.8,3.9C346.8,402.6,346.8,402.3,346.9,401.9z M360.9,415.5
		c-1-0.8-1.9-1.6-2.9-2.5c-0.2,0.3-0.5,0.7-0.4,0.7c1,0.9,2,1.7,2.9,2.5C360.6,416.1,360.7,415.9,360.9,415.5z M498.4,88.9
		c0.8-0.1,1.4-0.2,2-0.3c-0.6-0.2-1.2-0.5-1.9-0.5c-0.6-0.1-1.2,0.1-1.9,0.1C497.3,88.5,497.9,88.8,498.4,88.9z M327.3,153.1
		c-0.1-0.6-0.2-0.8-0.2-1.1c-0.7,0.6-1.4,1.2-2,1.9c-0.1,0.1,0.1,0.6,0.2,0.9C326.1,154.2,326.8,153.6,327.3,153.1z M353.6,426.3
		c-0.7-0.4-1.3-0.8-2-1.2c0,0.3,0,0.6,0.1,0.8c0.5,0.4,1,0.8,1.6,1.2C353.4,426.8,353.5,426.6,353.6,426.3z M460.5,462
		c-0.5,0.1-1.1,0.3-1.7,0.4c0.6,0.1,1.2,0.4,1.8,0.4c0.6,0,1.2-0.3,1.9-0.5C461.9,462.3,461.3,462.2,460.5,462z M457.6,88.9
		c0.6-0.1,1.2-0.3,1.8-0.4c-0.5-0.1-1.1-0.4-1.6-0.4c-0.5,0-1.1,0.3-1.6,0.4C456.7,88.7,457.1,88.8,457.6,88.9z M285.1,293.9
		c0.1,0.5,0.2,1.1,0.4,1.7c0.1-0.4,0.3-0.9,0.3-1.3c0-0.6-0.2-1.2-0.3-1.9C285.4,292.9,285.3,293.4,285.1,293.9z M342.6,416.6
		c-0.4-0.4-0.7-0.7-1-1.1c-0.1,0.2-0.3,0.5-0.2,0.6c0.3,0.3,0.7,0.6,1.1,0.9C342.5,416.8,342.6,416.7,342.6,416.6z M501.6,460
		c0.4-0.2,0.8-0.4,1.3-0.6c-0.4-0.1-0.9-0.3-1.3-0.2c-0.5,0.1-1,0.3-1.5,0.5C500.6,459.7,501,459.8,501.6,460z M281.7,295.2
		c-0.2,0.5-0.4,0.7-0.4,0.9c0,0.5,0,1,0,1.4c0.2-0.1,0.5-0.1,0.5-0.2C281.8,296.7,281.7,296,281.7,295.2z M279.7,299.1
		c0-0.8,0-1.4,0-2c0-0.2-0.2-0.3-0.4-0.5c-0.1,0.6-0.2,1.2-0.2,1.9C279.2,298.6,279.5,298.8,279.7,299.1z M280.5,278.3
		c-0.1,0.4-0.2,0.7-0.2,1c0,0.3,0,0.6,0,1c0.1-0.3,0.3-0.6,0.3-0.9C280.7,279,280.6,278.7,280.5,278.3z M448.6,89.4
		c0.4,0.2,0.7,0.4,0.9,0.4c0.5,0,0.9-0.2,1.4-0.3c-0.3-0.1-0.5-0.4-0.8-0.4C449.7,89.2,449.2,89.3,448.6,89.4z M328.7,407.5
		c0-0.1,0.2-0.3,0.1-0.3c-0.2-0.3-0.4-0.5-0.6-0.7c0,0.1-0.2,0.3-0.1,0.3C328.3,407,328.5,407.3,328.7,407.5z M351.1,433.3
		c-0.4-0.5-0.6-1-1-1.2c-0.2-0.2-0.6,0-1,0c0.3,0.4,0.6,0.8,1,1.1C350.3,433.3,350.6,433.2,351.1,433.3z M553.5,447.7
		c-0.3-0.1-0.6-0.2-0.8-0.2c-0.4,0.2-0.8,0.5-1.2,0.7c0.1,0.2,0.3,0.4,0.3,0.4C552.4,448.4,552.9,448,553.5,447.7z M400.5,460.2
		c-0.7-0.3-1.3-0.6-1.8-0.9c0,0.2-0.1,0.5,0.1,0.6c0.4,0.3,0.8,0.5,1.3,0.7C400.1,460.7,400.3,460.4,400.5,460.2z M364.8,139.4
		c-0.3-0.2-0.5-0.4-0.6-0.3c-0.3,0.1-0.6,0.3-0.8,0.5c-0.1,0.1,0.1,0.5,0.2,0.7C363.9,140,364.3,139.7,364.8,139.4z M281.4,262.6
		c0.2-0.3,0.3-0.4,0.3-0.6c0-0.3,0-0.6-0.1-0.9c-0.1,0.2-0.3,0.3-0.4,0.5C281.2,261.8,281.3,262.1,281.4,262.6z M282.4,306.6
		c0.2-0.3,0.4-0.4,0.4-0.6c0-0.3-0.1-0.6-0.1-0.9c-0.1,0.2-0.4,0.3-0.4,0.5C282.2,305.9,282.3,306.2,282.4,306.6z M280.4,307.9
		c0.2-0.3,0.4-0.5,0.4-0.7c0-0.3,0-0.6,0-0.9c-0.2,0-0.5,0.1-0.5,0.1C280.3,306.9,280.3,307.3,280.4,307.9z M303.9,344.7
		c-0.5-0.9-0.7-1.5-1-2c0-0.1-0.3,0-0.5,0c0.2,0.4,0.4,0.9,0.6,1.3C303.1,344.2,303.3,344.3,303.9,344.7z M286.8,303.8
		c-0.1-0.3-0.2-0.6-0.2-0.9c-0.1,0.3-0.2,0.5-0.3,0.8c0,0.1,0,0.3,0.1,0.5C286.5,304.1,286.6,303.9,286.8,303.8z M449.4,94.8
		c0.3-0.1,0.6-0.1,0.9-0.2c-0.2-0.1-0.3-0.4-0.5-0.4c-0.3,0-0.6,0.1-0.9,0.1C449,94.5,449.2,94.6,449.4,94.8z M509.6,458.7
		c-0.3-0.2-0.5-0.5-0.7-0.5c-0.3,0-0.6,0-0.9,0.1c0,0.2,0,0.5,0.1,0.5C508.5,458.8,509,458.7,509.6,458.7z M446.4,460.1
		c-0.3,0.2-0.5,0.3-0.7,0.4c0.3,0.1,0.5,0.2,0.8,0.2c0.3,0,0.6-0.1,0.8-0.2C447,460.4,446.7,460.3,446.4,460.1z M453.7,461.6
		c-0.4-0.2-0.7-0.5-0.9-0.5c-0.4,0-0.9,0.1-1.3,0.2c0.3,0.1,0.5,0.4,0.8,0.4C452.7,461.8,453.2,461.7,453.7,461.6z M299.4,332.3
		c-0.1,0.3-0.2,0.6-0.2,0.9c0,0.2,0.3,0.3,0.5,0.5c0.1-0.3,0.2-0.6,0.2-0.8C299.8,332.6,299.5,332.5,299.4,332.3z M283.4,311.6
		c0,0.3-0.1,0.6-0.1,0.9c0,0,0.2,0.1,0.3,0.1c0-0.3,0.1-0.6,0.1-0.9C283.7,311.7,283.5,311.6,283.4,311.6z M321.3,397.8
		c0-0.1-0.1-0.3-0.2-0.4c-0.1-0.1-0.3-0.2-0.4-0.2c0,0.2,0.1,0.4,0.2,0.6C320.9,397.9,321.2,397.8,321.3,397.8z M323.8,401.3l0,0.3
		l0.3,0L323.8,401.3z M324.5,406.6c-0.1-0.1-0.2-0.2-0.3-0.3c-0.1,0-0.2,0.1-0.3,0.1c0.1,0.1,0.2,0.2,0.3,0.3
		C324.3,406.8,324.4,406.7,324.5,406.6z M306.9,376.1c-0.1,0-0.3,0-0.4,0c0.1,0.2,0.2,0.5,0.4,0.6c0.1,0.1,0.3,0,0.4,0
		C307.2,376.5,307,376.3,306.9,376.1z M289.7,320.9c-0.1-0.1-0.1-0.3-0.2-0.4c-0.1,0.2-0.2,0.5-0.3,0.7c0,0.1,0.1,0.3,0.2,0.4
		C289.6,321.3,289.6,321.1,289.7,320.9z M288.5,315.3c-0.1,0.3-0.2,0.6-0.2,0.9c0,0.1,0.1,0.3,0.1,0.4c0.1-0.2,0.4-0.3,0.4-0.5
		C288.7,315.9,288.6,315.6,288.5,315.3z M287.8,311.1c0-0.3-0.1-0.6-0.1-0.8c-0.1,0.2-0.4,0.3-0.4,0.5c0,0.3,0.2,0.5,0.3,0.8
		C287.6,311.4,287.7,311.3,287.8,311.1z M351.3,430l0.2,0.2l-0.1-0.3L351.3,430z M288.5,299.8l-0.2,0.4l0.3,0.1L288.5,299.8z
		 M310.4,382c-0.1-0.3-0.2-0.5-0.3-0.7c-0.1-0.1-0.2-0.1-0.4-0.2c0,0.2-0.2,0.5-0.1,0.6C309.9,381.8,310.1,381.9,310.4,382z
		 M287.5,287.4c0-0.3,0-0.5,0.1-0.8c-0.1,0.1-0.2,0.2-0.2,0.3C287.4,287.1,287.4,287.2,287.5,287.4z M569,439.9c0-0.1,0-0.3,0-0.4
		c-0.2,0.1-0.4,0.2-0.6,0.4c-0.1,0.1,0,0.3,0,0.4C568.5,440.2,568.8,440,569,439.9z M282.7,253c0-0.1,0-0.3-0.1-0.4
		c-0.1,0.1-0.2,0.3-0.3,0.5c0,0.1,0.1,0.2,0.2,0.3C282.6,253.3,282.6,253.1,282.7,253z M434.8,92.6c-0.3-0.2-0.5-0.3-0.7-0.4
		c-0.1,0-0.3,0-0.5,0.1c0.1,0.2,0.2,0.5,0.2,0.5C434.1,92.8,434.4,92.7,434.8,92.6z M314.4,169.3c-0.2,0-0.3,0-0.5,0
		c-0.1,0.1-0.3,0.2-0.4,0.3c0.2,0,0.4,0.1,0.6,0.1C314.3,169.7,314.3,169.4,314.4,169.3z M319.2,162c-0.2,0.1-0.6,0.2-0.7,0.5
		c-0.1,0.2,0.1,0.5,0.1,0.7c0.2-0.2,0.5-0.3,0.7-0.5C319.4,162.5,319.3,162.2,319.2,162z M527.5,454.6c0-0.1-0.1-0.3-0.1-0.3
		c-0.3,0-0.6,0.1-0.9,0.1c0,0.1,0.1,0.3,0.1,0.3C526.9,454.7,527.2,454.7,527.5,454.6z M386.8,110.5c-0.2,0.2-0.5,0.3-0.6,0.5
		c-0.1,0.1,0,0.3,0.1,0.4c0.2-0.2,0.5-0.3,0.7-0.5C387,110.8,386.9,110.6,386.8,110.5z M518.4,456.4c0.1,0.1,0.2,0.3,0.2,0.3
		c0.3,0,0.6-0.1,0.9-0.1c-0.1-0.1-0.1-0.3-0.2-0.3C519,456.3,518.7,456.4,518.4,456.4z M514.8,457.4c-0.3,0-0.5-0.1-0.8-0.1
		c0,0-0.1,0.3-0.1,0.5c0.3,0,0.6,0,0.8-0.1C514.8,457.7,514.8,457.5,514.8,457.4z M322.3,157.8c-0.3,0.2-0.6,0.3-0.7,0.6
		c-0.1,0.1,0.2,0.4,0.2,0.6c0.3-0.2,0.6-0.3,0.7-0.5C322.6,158.4,322.4,158.1,322.3,157.8z M423.6,95.6c-0.3-0.1-0.4-0.3-0.7-0.4
		c-0.1,0-0.3,0-0.4,0.1c0.1,0.2,0.2,0.5,0.2,0.5C423,95.8,423.3,95.7,423.6,95.6z M451.9,97.6l0.5-0.1l-0.3-0.2L451.9,97.6z
		 M522.6,458.5c-0.3-0.1-0.6-0.2-0.9-0.3c-0.1,0-0.3,0.1-0.4,0.2c0.2,0.2,0.3,0.4,0.5,0.4C522.1,458.8,522.3,458.6,522.6,458.5z
		 M350.3,136.9l0.2,0.2l0.1-0.4L350.3,136.9z M368.9,135.9c-0.1-0.1-0.1-0.3-0.2-0.4c-0.2,0.2-0.5,0.3-0.7,0.5
		c-0.1,0.1,0.2,0.4,0.3,0.6C368.6,136.3,368.7,136.1,368.9,135.9z M445.5,98.5c0.1,0.1,0.3,0.2,0.4,0.2c0.2-0.1,0.3-0.2,0.5-0.4
		c-0.2,0-0.3-0.1-0.5,0C445.7,98.3,445.6,98.4,445.5,98.5z M373.3,132.6c-0.1-0.1-0.3-0.3-0.4-0.2c-0.2,0.2-0.4,0.4-0.7,0.6
		c0.1,0.1,0.3,0.3,0.3,0.3C372.8,133,373,132.8,373.3,132.6z M376.8,116.5c-0.2,0.2-0.4,0.3-0.6,0.5c-0.1,0.1,0,0.2,0,0.4
		c0.2-0.2,0.4-0.3,0.6-0.5C376.9,116.8,376.8,116.6,376.8,116.5z M381.6,119l-0.1-0.1l-0.1,0.3L381.6,119z M370.4,121.2
		c0.1-0.1,0.2-0.2,0.3-0.3c0-0.1,0-0.2-0.1-0.3c-0.1,0.1-0.2,0.2-0.3,0.3C370.3,121,370.3,121.1,370.4,121.2z"/>
	<path fill-rule="evenodd" clip-rule="evenodd" d="M562.9,465c5.4-2.7,10.8-5.4,16.2-8.1C573.7,459.6,568.3,462.3,562.9,465z"/>
	<path fill-rule="evenodd" clip-rule="evenodd" d="M545.9,472.6c2.7-1.2,5.4-2.4,8.2-3.6C551.4,470.2,548.7,471.4,545.9,472.6z"/>
	<path fill-rule="evenodd" clip-rule="evenodd" d="M553.9,469.1c1.7-0.7,3.5-1.4,5.2-2.1C557.4,467.7,555.6,468.4,553.9,469.1z"/>
	<path fill-rule="evenodd" clip-rule="evenodd" d="M680.8,234.3c-0.1,0.3-0.1,0.6-0.2,0.9c-0.2-0.3-0.4-0.6-0.5-1
		c0-0.2,0.2-0.5,0.3-0.8C680.6,233.8,680.7,234.1,680.8,234.3z"/>
	<path fill-rule="evenodd" clip-rule="evenodd" d="M558.9,467.1c1.4-0.7,2.8-1.4,4.2-2.1C561.7,465.6,560.3,466.4,558.9,467.1z"/>
	<path fill-rule="evenodd" clip-rule="evenodd" fill="#FFFFFF" d="M607,408c2.3-2.3,4.6-4.7,6.9-7c0.8-0.4,1.5-0.8,2.2-1.1
		c-2.7,3.1-5.4,6.2-8.1,9.3C607.7,408.8,607.4,408.4,607,408z"/>
	<path fill-rule="evenodd" clip-rule="evenodd" fill="#FFFFFF" d="M607,408c0.4,0.4,0.7,0.8,1.1,1.2c-2.7,2.2-5.4,4.5-8.1,6.7
		C602.3,413.3,604.7,410.6,607,408z"/>
	<path fill-rule="evenodd" clip-rule="evenodd" fill="#FFFFFF" d="M654.7,380.3c-0.1-0.3-0.3-0.6-0.3-0.8c0.2-0.6,0.5-1.2,0.8-1.8
		c0.7-1.2,1.5-2.4,2.3-3.6c0.1,0.3,0.4,0.6,0.3,0.8c-0.9,1.7-1.8,3.4-2.8,5.1C655,380.1,654.8,380.2,654.7,380.3z"/>
	<path fill-rule="evenodd" clip-rule="evenodd" d="M616.2,399.9c-0.8,0.4-1.5,0.8-2.2,1.1c1.7-2,3.4-4,5.1-6.1c0,0.8,0,1.6-0.1,2.4
		C618,398.2,617.1,399.1,616.2,399.9z"/>
	<path fill-rule="evenodd" clip-rule="evenodd" fill="#FFFFFF" d="M593.9,420.1c0.7-0.7,1.4-1.4,2-2.1c0.7-0.2,1.5-0.3,2.2-0.5
		c-1.6,1.6-3.3,3.2-4.9,4.7c-0.1-0.2-0.3-0.3-0.4-0.5C593.2,421.3,593.6,420.7,593.9,420.1z"/>
	<path fill-rule="evenodd" clip-rule="evenodd" fill="#FFFFFF" d="M628.4,146.6c1.4,1.7,2.9,3.5,4.3,5.3c0,0-0.4,0.3-0.6,0.5
		c-1.5-1.7-3-3.4-4.5-5.1C627.9,147.1,628.1,146.9,628.4,146.6z"/>
	<path fill-rule="evenodd" clip-rule="evenodd" fill="#FFFFFF" d="M649.7,380.7c0.8-1.6,1.5-3.2,2.4-4.8c0.3-0.5,0.9-0.7,1.3-1.1
		c-0.1,0.6-0.1,1.3-0.4,1.8c-0.9,1.5-1.9,3-2.9,4.5C650,381,649.9,380.9,649.7,380.7z"/>
	<path fill-rule="evenodd" clip-rule="evenodd" fill="#FFFFFF" d="M589,424.1c0.7-0.7,1.4-1.4,2.1-2.1c0.6-0.1,1.2-0.1,1.8-0.2
		c0.1,0.2,0.3,0.3,0.4,0.5c-1.1,1.3-2.2,2.5-3.3,3.8l0.2-0.1c-0.6,0.1-1.3,0.2-1.9,0.3c-0.2-0.2-0.3-0.4-0.5-0.6
		C588.1,425.2,588.5,424.6,589,424.1z"/>
	<path fill-rule="evenodd" clip-rule="evenodd" fill="#FFFFFF" d="M632.1,379.2c1.2-1.7,2.3-3.4,3.5-5.2
		C634.5,375.8,633.3,377.5,632.1,379.2z"/>
	<path fill-rule="evenodd" clip-rule="evenodd" fill="#FFFFFF" d="M625,386.9c0.1-0.3,0.3-0.5,0.4-0.8c0.8-0.4,1.6-0.8,2.3-1.2
		l0.3,0.2c-1,1.4-2.1,2.8-3.1,4.2C625,388.4,625,387.7,625,386.9z"/>
	<path fill-rule="evenodd" clip-rule="evenodd" fill="#FFFFFF" d="M649.7,387.7c0.4-0.7,0.7-1.5,1.1-2.2c0.4-0.7,1-1.2,1.6-1.9
		c-0.2,0.9-0.3,1.8-0.6,2.6c-0.3,0.7-1,1.3-1.5,2C650,388,649.9,387.9,649.7,387.7z"/>
	<path fill-rule="evenodd" clip-rule="evenodd" fill="#FFFFFF" d="M639.6,256.6c0.6,1.3,1.1,2.5,1.7,3.8c-0.3,0.1-0.6,0.2-0.9,0.3
		C640.1,259.3,639.9,257.9,639.6,256.6L639.6,256.6z"/>
	<path fill-rule="evenodd" clip-rule="evenodd" fill="#FFFFFF" d="M661.2,358.2c0.2,0.3,0.6,0.5,0.5,0.6c-0.2,0.6-0.5,1.2-0.9,1.8
		c-0.1,0.1-0.4,0-0.7-0.1C660.5,359.7,660.9,359,661.2,358.2z"/>
	<path fill-rule="evenodd" clip-rule="evenodd" fill="#FFFFFF" d="M639.6,256.5c-0.2-2.2-0.3-4.5-0.5-6.7l-0.1,0.1
		C639.3,252.1,639.4,254.3,639.6,256.5L639.6,256.5z"/>
	<path fill-rule="evenodd" clip-rule="evenodd" fill="#FFFFFF" d="M618.9,397.4c0-0.8,0-1.6,0.1-2.4c0.3-0.3,0.6-0.6,0.9-1
		c0.5-0.1,0.9-0.1,1.4-0.2C620.6,395,619.8,396.2,618.9,397.4z"/>
	<path fill-rule="evenodd" clip-rule="evenodd" d="M621.4,393.8c-0.5,0.1-0.9,0.1-1.4,0.2c0.7-1,1.4-2,2.1-3c0,0.8-0.1,1.5-0.1,2.3
		C621.8,393.5,621.6,393.7,621.4,393.8z"/>
	<path fill-rule="evenodd" clip-rule="evenodd" d="M625,386.9c0,0.8-0.1,1.6-0.1,2.4c-0.2,0.2-0.3,0.5-0.5,0.7
		c-0.5,0-0.9,0.1-1.4,0.1C623.7,389,624.4,387.9,625,386.9z"/>
	<path fill-rule="evenodd" clip-rule="evenodd" fill="#FFFFFF" d="M630.2,382.2c0.7-1.1,1.4-2.1,2.1-3.2
		C631.6,380.1,630.9,381.2,630.2,382.2z"/>
	<path fill-rule="evenodd" clip-rule="evenodd" fill="#FFFFFF" d="M628,383c0.8-0.3,1.5-0.6,2.3-0.9c-0.7,1-1.5,1.9-2.2,2.9
		l-0.3-0.2C627.8,384.2,627.9,383.6,628,383z"/>
	<path fill-rule="evenodd" clip-rule="evenodd" fill="#FFFFFF" d="M647.8,390.8c0.6-1,1.3-2.1,1.9-3.1c0.2,0.2,0.4,0.3,0.5,0.5
		c-0.6,1-1.3,2.1-1.9,3.1C648.1,391.1,647.9,390.9,647.8,390.8z"/>
	<path fill-rule="evenodd" clip-rule="evenodd" fill="#FFFFFF" d="M623,390c0.5,0,0.9-0.1,1.4-0.1c-0.8,1.1-1.6,2.2-2.4,3.4
		c0-0.8,0.1-1.5,0.1-2.3C622.4,390.7,622.7,390.3,623,390z"/>
	<path fill-rule="evenodd" clip-rule="evenodd" fill="#FFFFFF" d="M648.3,391.3c-0.7,1-1.3,2-2,3c-0.2-0.2-0.4-0.4-0.7-0.6
		c0.7-1,1.4-1.9,2.1-2.9C647.9,390.9,648.1,391.1,648.3,391.3z"/>
	<path fill-rule="evenodd" clip-rule="evenodd" fill="#FFFFFF" d="M667,334c0.2-0.9,0.3-1.8,0.5-2.7c0.1,0.1,0.4,0.2,0.4,0.2
		C667.6,332.4,667.3,333.2,667,334L667,334z"/>
	<path fill-rule="evenodd" clip-rule="evenodd" fill="#FFFFFF" d="M669.9,324.7c-0.1,0.3-0.2,0.6-0.3,0.8c-0.2-0.3-0.5-0.6-0.6-0.9
		c0-0.2,0.3-0.5,0.5-0.7C669.7,324.2,669.8,324.4,669.9,324.7z"/>
	<path fill-rule="evenodd" clip-rule="evenodd" fill="#FFFFFF" d="M670.5,320.8c-0.1-0.3-0.3-0.6-0.3-0.9c0-0.2,0.3-0.5,0.4-0.7
		c0.1,0.3,0.3,0.6,0.3,0.8C670.8,320.3,670.6,320.6,670.5,320.8z"/>
	<path fill-rule="evenodd" clip-rule="evenodd" d="M598.2,417.6c-0.7,0.2-1.5,0.3-2.2,0.5c0.9-0.5,1.9-1,2.8-1.4
		C598.6,416.9,598.4,417.2,598.2,417.6z"/>
	<path fill-rule="evenodd" clip-rule="evenodd" fill="#FFFFFF" d="M671.6,315.6c-0.2-0.2-0.4-0.4-0.4-0.5c-0.1-0.1,0-0.3,0-0.4
		c0.2,0,0.4,0,0.5,0.1C671.7,315,671.7,315.3,671.6,315.6z"/>
	<path fill-rule="evenodd" clip-rule="evenodd" fill="#FFFFFF" d="M672.5,308.5c0.1,0.1,0.2,0.3,0.2,0.3c-0.1,0.1-0.2,0.2-0.4,0.4
		c0-0.1-0.1-0.3,0-0.4C672.3,308.7,672.5,308.6,672.5,308.5z"/>
	<path fill-rule="evenodd" clip-rule="evenodd" fill="#FFFFFF" d="M647.7,383.8c0.7-1,1.3-2,2-3c0.1,0.1,0.3,0.3,0.4,0.4
		c-0.6,1-1.2,2.1-1.9,3.1C648.1,384.1,647.9,383.9,647.7,383.8z"/>
	<path fill-rule="evenodd" clip-rule="evenodd" fill="#FFFFFF" d="M674.6,280.6c0,0.4,0,0.6,0,0.7c-0.1,0-0.2,0-0.3-0.1
		C674.4,281.1,674.5,281,674.6,280.6z"/>
	<path fill-rule="evenodd" clip-rule="evenodd" d="M338.1,166.1c-5.6,8.8-12,17.3-16.8,26.5c-28.6,54.2-30.2,109.3-4.7,165.1
		c0.6,1.4,1.1,2.8,1.6,4.2l-0.3,0.2c-4.1-9.6-9.3-18.8-12.3-28.7c-15.3-51.4-10.5-100.6,17.3-147c4.3-7.2,9.9-13.7,14.9-20.5
		L338.1,166.1z"/>
	<path fill-rule="evenodd" clip-rule="evenodd" d="M293.2,301.7c-0.7-4-1.8-8-1.9-12.1c-2.7-64,21-116.3,70.1-157.3
		c2-1.7,4.4-2.9,6.6-4.4l0.1,0.1c-5.1,4.5-10.3,8.8-15.3,13.5c-29.5,27.8-49.2,61.2-57.3,101.2C291.5,262.3,291.3,282,293.2,301.7
		L293.2,301.7z"/>
	<path fill-rule="evenodd" clip-rule="evenodd" d="M502.5,461.6c-3.2,0.7-6.3,1.8-9.5,1.9c-8.1,0.3-16.2,0.1-23.2,0.1
		C480,463,491.3,462.3,502.5,461.6L502.5,461.6z"/>
	<path fill-rule="evenodd" clip-rule="evenodd" d="M461.4,459.6c10.9,0,21.9,0,32.8,0c0,0.4,0,0.8,0,1.2c-10,0-20.1,0-30.1-0.1
		C463.3,460.7,462.4,460,461.4,459.6L461.4,459.6z"/>
	<path fill-rule="evenodd" clip-rule="evenodd" d="M342.7,159.8c4.1-4.3,8.2-8.7,12.4-13c0.3-0.4,1-0.4,1.6-0.5
		c-0.3,0.4-0.5,0.8-0.8,1.2c-4.2,4.3-8.4,8.5-12.6,12.8C343.1,160.1,342.9,159.9,342.7,159.8z"/>
	<path fill-rule="evenodd" clip-rule="evenodd" d="M342.4,426.4c-3.8-3.8-7.6-7.6-11.3-11.4c-0.3-0.3-0.5-0.8-0.8-1.2
		c0.3,0.1,0.8,0.2,1,0.4c4,3.8,8,7.6,11.9,11.4C342.9,425.9,342.6,426.1,342.4,426.4z"/>
	<path fill-rule="evenodd" clip-rule="evenodd" d="M466.8,87.3c7.4,0,14.9,0,22.3,0c0,0.1,0,0.2,0,0.4c-7.4,0-14.8,0-22.2,0
		C467,87.6,466.9,87.4,466.8,87.3z"/>
	<path fill-rule="evenodd" clip-rule="evenodd" d="M384.8,434.3c-5.6-4.1-11.1-8.2-16.7-12.3L368,422c5.7,3.9,11.5,7.8,17.2,11.8
		C385,434,384.9,434.1,384.8,434.3z"/>
	<path fill-rule="evenodd" clip-rule="evenodd" d="M361,441c5.8,3.6,11.5,7.1,17.3,10.7c-0.2,0.2-0.3,0.3-0.5,0.5
		C372.2,448.5,366.6,444.7,361,441L361,441z"/>
	<path fill-rule="evenodd" clip-rule="evenodd" d="M423,452.1c-6-2.4-11.9-4.7-17.9-7.1L405,445c6,2.3,12.1,4.6,18.1,6.8L423,452.1z
		"/>
	<path fill-rule="evenodd" clip-rule="evenodd" d="M293.8,309.3c1.1,4.9,2.2,9.7,3.2,14.6l0.1-0.1C296,318.9,295,314.1,293.8,309.3
		L293.8,309.3z"/>
	<path fill-rule="evenodd" clip-rule="evenodd" d="M528.2,93.8c4.3,1.4,8.6,2.7,12.9,4.1l0.1-0.1c-4.3-1.4-8.5-2.7-12.8-4.1
		L528.2,93.8z"/>
	<path fill-rule="evenodd" clip-rule="evenodd" d="M385.2,433.8c2.5,1.4,5.1,2.8,7.6,4.3c0.4,0.2,0.6,0.7,1,1
		c-0.5-0.1-1.2,0.1-1.6-0.2c-2.5-1.5-4.9-3.1-7.4-4.7C384.9,434.1,385,434,385.2,433.8z"/>
	<path fill-rule="evenodd" clip-rule="evenodd" d="M278.4,285.2c0-2.8,0-5.6,0-8.4c0.1,0,0.1,0,0.2,0c0,2.8,0,5.6,0,8.3
		C278.5,285.1,278.5,285.1,278.4,285.2z"/>
	<path fill-rule="evenodd" clip-rule="evenodd" d="M323,371c-1.7-3-3.4-6-5-9l0.3-0.2c1.6,3,3.3,6,4.9,9.1L323,371z"/>
	<path fill-rule="evenodd" clip-rule="evenodd" fill="#FFFFFF" d="M582,429c1.4-1,2.7-2,4.1-3.1c0.6-0.1,1.1-0.2,1.7-0.3
		c0.2,0.2,0.3,0.4,0.5,0.6c-0.8,0.9-1.5,1.9-2.3,2.8l0.2-0.1c-1.1,0.7-2.1,1.4-3.2,2.1l0.2-0.1c-0.6,0.1-1.2,0.2-1.8,0.3
		c-0.2-0.2-0.3-0.4-0.5-0.6C581.2,430.1,581.6,429.6,582,429z"/>
	<path fill-rule="evenodd" clip-rule="evenodd" d="M514.7,459.7c-4.1,0.6-8.1,1.3-12.2,1.9l0.1,0c4.1-0.6,8.1-1.2,12.2-1.8
		L514.7,459.7z"/>
	<path fill-rule="evenodd" clip-rule="evenodd" d="M432.9,455.1c-3.3-1-6.6-2-9.9-3l0.1-0.2C426.3,453,429.6,454,432.9,455.1
		L432.9,455.1z"/>
	<path fill-rule="evenodd" clip-rule="evenodd" d="M323.1,370.9c1.6,2.7,3.2,5.4,4.8,8.1l0.1-0.1c-1.7-2.7-3.4-5.3-5-8L323.1,370.9z
		"/>
	<path fill-rule="evenodd" clip-rule="evenodd" d="M346.9,401.9c-0.1,0.4-0.1,0.7-0.2,0.9c-1.3-1.3-2.5-2.6-3.8-3.9
		c-0.1-0.1,0-0.5,0.1-0.7C344.3,399.5,345.6,400.7,346.9,401.9z"/>
	<path fill-rule="evenodd" clip-rule="evenodd" d="M401.2,116.3c-2.7,1.2-5.5,2.5-8.2,3.7l0.1,0.1c2.6-1.4,5.1-2.9,7.7-4.3
		C400.9,115.9,401.1,116.1,401.2,116.3z"/>
	<path fill-rule="evenodd" clip-rule="evenodd" d="M343.3,160.2c-1.7,1.9-3.4,3.9-5.2,5.8l-0.3-0.3c1.6-2,3.3-4,4.9-6
		C342.9,159.9,343.1,160.1,343.3,160.2z"/>
	<path fill-rule="evenodd" clip-rule="evenodd" d="M379.1,444.9c2.3,1.3,4.7,2.6,7,4l-0.3,0.4c-2.3-1.3-4.7-2.7-7-4L379.1,444.9z"/>
	<path fill-rule="evenodd" clip-rule="evenodd" d="M360.9,415.5c-0.2,0.4-0.3,0.6-0.4,0.8c-1-0.8-2-1.7-2.9-2.5c0,0,0.3-0.5,0.4-0.7
		C359,413.9,359.9,414.7,360.9,415.5z"/>
	<path fill-rule="evenodd" clip-rule="evenodd" d="M386.1,124.1c2.3-1.3,4.6-2.7,7-4L393,120C390.7,121.3,388.3,122.6,386.1,124.1
		L386.1,124.1z"/>
	<path fill-rule="evenodd" clip-rule="evenodd" d="M463.2,93.2c-2.3,0.3-4.5,0.6-6.8,0.9c0-0.3,0-0.5-0.1-0.8
		C458.7,93.2,461,93.2,463.2,93.2L463.2,93.2z"/>
	<path fill-rule="evenodd" clip-rule="evenodd" d="M498.4,88.9c-0.5-0.2-1.1-0.4-1.7-0.6c0.6-0.1,1.3-0.2,1.9-0.1
		c0.6,0.1,1.2,0.3,1.9,0.5C499.8,88.8,499.2,88.8,498.4,88.9z"/>
	<path fill-rule="evenodd" clip-rule="evenodd" d="M301.1,365c0.7,1.4,1.5,2.7,2.2,4.1c-0.3,0.1-0.6,0.2-0.9,0.3
		c-0.4-1.5-0.8-3-1.2-4.6L301.1,365z"/>
	<path fill-rule="evenodd" clip-rule="evenodd" d="M327.3,153.1c-0.6,0.5-1.3,1.1-2,1.7c-0.1-0.3-0.4-0.8-0.2-0.9
		c0.6-0.7,1.3-1.3,2-1.9C327.2,152.3,327.2,152.5,327.3,153.1z"/>
	<path fill-rule="evenodd" clip-rule="evenodd" d="M353.6,426.3c-0.1,0.3-0.2,0.5-0.3,0.7c-0.5-0.4-1.1-0.7-1.6-1.2
		c-0.2-0.1-0.1-0.5-0.1-0.8C352.3,425.4,352.9,425.9,353.6,426.3z"/>
	<path fill-rule="evenodd" clip-rule="evenodd" d="M460.5,462c0.8,0.1,1.4,0.2,2,0.4c-0.6,0.2-1.2,0.5-1.9,0.5
		c-0.6,0-1.2-0.3-1.8-0.4C459.5,462.3,460.1,462.2,460.5,462z"/>
	<path fill-rule="evenodd" clip-rule="evenodd" d="M457.6,88.9c-0.5-0.1-1-0.2-1.4-0.4c0.5-0.1,1.1-0.4,1.6-0.4
		c0.5,0,1.1,0.2,1.6,0.4C458.9,88.7,458.2,88.8,457.6,88.9z"/>
	<path fill-rule="evenodd" clip-rule="evenodd" d="M368.1,421.9c-1.3-0.8-2.6-1.6-3.9-2.5c0.1-0.2,0.3-0.4,0.4-0.6
		C365.7,419.9,366.8,421,368.1,421.9L368.1,421.9z"/>
	<path fill-rule="evenodd" clip-rule="evenodd" d="M461.5,459.6c-2.1,0-4.2,0-6.2,0c0,0,0-0.2,0-0.3
		C457.3,459.5,459.4,459.6,461.5,459.6L461.5,459.6z"/>
	<path fill-rule="evenodd" clip-rule="evenodd" d="M285.1,293.9c0.2-0.6,0.3-1,0.4-1.5c0.1,0.6,0.3,1.2,0.3,1.9
		c0,0.4-0.2,0.9-0.3,1.3C285.4,295.1,285.2,294.4,285.1,293.9z"/>
	<path fill-rule="evenodd" clip-rule="evenodd" d="M293.1,301.8c0.2,2.5,0.4,5,0.6,7.5l0.1-0.1C293.7,306.7,293.4,304.2,293.1,301.8
		L293.1,301.8z"/>
	<path fill-rule="evenodd" clip-rule="evenodd" d="M374.2,441.8c1.6,1,3.3,2.1,4.9,3.1l-0.3,0.3c-1.6-1-3.3-2.1-4.9-3.1L374.2,441.8
		z"/>
	<path fill-rule="evenodd" clip-rule="evenodd" d="M342.6,416.6c0,0.1-0.1,0.3-0.1,0.4c-0.4-0.3-0.8-0.6-1.1-0.9
		c-0.1-0.1,0.1-0.4,0.2-0.6C341.9,415.8,342.2,416.2,342.6,416.6z"/>
	<path fill-rule="evenodd" clip-rule="evenodd" d="M501.6,460c-0.6-0.1-1-0.2-1.5-0.3c0.5-0.2,1-0.4,1.5-0.5c0.4,0,0.9,0.1,1.3,0.2
		C502.5,459.6,502,459.8,501.6,460z"/>
	<path fill-rule="evenodd" clip-rule="evenodd" d="M281.7,295.2c0,0.9,0.1,1.5,0.1,2.2c0,0.1-0.3,0.1-0.5,0.2c0-0.5,0-1,0-1.4
		C281.3,295.8,281.5,295.6,281.7,295.2z"/>
	<path fill-rule="evenodd" clip-rule="evenodd" d="M279.7,299.1c-0.3-0.3-0.5-0.5-0.5-0.6c0-0.6,0.1-1.2,0.2-1.9
		c0.1,0.2,0.3,0.3,0.4,0.5C279.8,297.7,279.7,298.3,279.7,299.1z"/>
	<path fill-rule="evenodd" clip-rule="evenodd" d="M319,377c-0.8-1.1-1.6-2.3-2.4-3.4c0.2-0.1,0.4-0.2,0.6-0.3
		C317.8,374.5,318.4,375.8,319,377L319,377z"/>
	<path fill-rule="evenodd" clip-rule="evenodd" d="M280.5,278.3c0,0.4,0.1,0.7,0.1,1c0,0.3-0.2,0.6-0.3,0.9c0-0.3,0-0.6,0-1
		C280.4,278.9,280.5,278.6,280.5,278.3z"/>
	<path fill-rule="evenodd" clip-rule="evenodd" d="M448.6,89.4c0.6-0.1,1.1-0.2,1.6-0.2c0.3,0,0.5,0.2,0.8,0.4
		c-0.5,0.1-0.9,0.2-1.4,0.3C449.3,89.8,449,89.6,448.6,89.4z"/>
	<path fill-rule="evenodd" clip-rule="evenodd" d="M509.4,90.4c-0.5-0.2-0.9-0.3-1.4-0.5c-0.7-0.2-1.4-0.3-2.2-0.5
		c0.8,0,1.6,0,2.3,0.1C508.6,89.7,509,90.1,509.4,90.4L509.4,90.4z"/>
	<path fill-rule="evenodd" clip-rule="evenodd" d="M360,431.9c-0.5-0.1-1-0.2-1.4-0.5c-0.5-0.4-0.8-0.9-1.2-1.4
		c0.5,0.2,1.1,0.4,1.6,0.8C359.4,431.1,359.6,431.6,360,431.9L360,431.9z"/>
	<path fill-rule="evenodd" clip-rule="evenodd" d="M333,386.1c1,1.3,2,2.6,3,4l0.1-0.1C335,388.6,334,387.3,333,386.1L333,386.1z"/>
	<path fill-rule="evenodd" clip-rule="evenodd" d="M335.9,390c0.4,0.2,0.9,0.4,1.2,0.7c0.5,0.6,0.7,1.3,1.1,1.9
		c-0.6-0.4-1.3-0.8-1.7-1.4C336.2,390.9,336.2,390.4,335.9,390L335.9,390z"/>
	<path fill-rule="evenodd" clip-rule="evenodd" d="M328.6,407.5c-0.2-0.2-0.4-0.5-0.5-0.7c0-0.1,0.1-0.2,0.1-0.3
		c0.2,0.2,0.4,0.5,0.6,0.7C328.8,407.2,328.7,407.4,328.6,407.5z"/>
	<path fill-rule="evenodd" clip-rule="evenodd" d="M585.9,429.1c0.8-0.9,1.5-1.9,2.3-2.8c0.6-0.1,1.3-0.2,1.9-0.3
		C588.7,427,587.3,428,585.9,429.1z"/>
	<path fill-rule="evenodd" clip-rule="evenodd" d="M351.1,433.3c-0.5-0.1-0.8,0-1-0.1c-0.4-0.3-0.6-0.7-1-1.1c0.3,0,0.8-0.1,1,0
		C350.5,432.3,350.7,432.8,351.1,433.3z"/>
	<path fill-rule="evenodd" clip-rule="evenodd" d="M359.9,432c1.3,1,2.7,2,4,3l0.1-0.1C362.7,433.9,361.3,432.9,359.9,432L359.9,432
		z"/>
	<path fill-rule="evenodd" clip-rule="evenodd" d="M357,437.9c-0.6-0.2-1.3-0.3-1.8-0.7c-0.4-0.3-0.5-1-0.7-1.4
		c0.4,0.2,0.9,0.4,1.3,0.7C356.2,436.9,356.6,437.5,357,437.9L357,437.9z"/>
	<path fill-rule="evenodd" clip-rule="evenodd" d="M368,438c-1.3-1-2.7-2-4-3l-0.1,0.1C365.3,436,366.6,437,368,438L368,438z"/>
	<path fill-rule="evenodd" clip-rule="evenodd" d="M356.9,438c1.4,1,2.7,2,4.1,3l0.1-0.1C359.7,440,358.4,439,356.9,438L356.9,438z"
		/>
	<path fill-rule="evenodd" clip-rule="evenodd" d="M405.3,102.2c0.3-0.3,0.5-0.8,0.9-1c0.7-0.3,1.4-0.4,2.1-0.7
		c-0.6,0.4-1.1,0.9-1.7,1.2c-0.4,0.2-0.9,0.2-1.4,0.3L405.3,102.2z"/>
	<path fill-rule="evenodd" clip-rule="evenodd" d="M405.2,102.1c-0.4,0.2-0.8,0.6-1.2,0.7c-0.7,0.2-1.4,0.3-2.1,0.5
		c0.7-0.4,1.3-0.8,2-1.1c0.4-0.2,1,0,1.4,0L405.2,102.1z"/>
	<path fill-rule="evenodd" clip-rule="evenodd" d="M553.5,447.7c-0.6,0.4-1.1,0.7-1.6,1c0,0-0.2-0.3-0.3-0.4
		c0.4-0.2,0.7-0.5,1.2-0.7C552.9,447.4,553.2,447.6,553.5,447.7z"/>
	<path fill-rule="evenodd" clip-rule="evenodd" d="M446.3,457.8c0.2,0,0.3,0.1,0.5,0.1c1.1,0.2,2.2,0.3,3.3,0.5
		c-0.1,0.1-0.1,0.4-0.1,0.4c-1.2-0.3-2.4-0.7-3.5-1L446.3,457.8z"/>
	<path fill-rule="evenodd" clip-rule="evenodd" d="M400.5,460.2c-0.2,0.2-0.4,0.4-0.5,0.4c-0.5-0.2-0.9-0.4-1.3-0.7
		c-0.1-0.1,0-0.4-0.1-0.6C399.3,459.6,399.9,459.9,400.5,460.2z"/>
	<path fill-rule="evenodd" clip-rule="evenodd" d="M371.1,126.1c0.3-0.5,0.6-1.1,1-1.5c0.4-0.3,1-0.3,1.5-0.4
		c-0.3,0.3-0.6,0.8-0.9,1C372.2,125.5,371.6,125.7,371.1,126.1L371.1,126.1z"/>
	<path fill-rule="evenodd" clip-rule="evenodd" d="M364.8,139.4c-0.5,0.3-0.8,0.6-1.2,0.9c-0.1-0.2-0.3-0.6-0.2-0.7
		c0.2-0.2,0.5-0.4,0.8-0.5C364.3,139,364.5,139.3,364.8,139.4z"/>
	<path fill-rule="evenodd" clip-rule="evenodd" d="M281.4,262.6c0-0.4-0.1-0.7-0.1-1c0-0.2,0.2-0.3,0.4-0.5c0,0.3,0.1,0.6,0.1,0.9
		C281.7,262.1,281.5,262.3,281.4,262.6z"/>
	<path fill-rule="evenodd" clip-rule="evenodd" d="M282.4,306.6c-0.1-0.4-0.2-0.8-0.1-1.1c0-0.2,0.3-0.3,0.4-0.5
		c0,0.3,0.1,0.6,0.1,0.9C282.7,306.2,282.5,306.4,282.4,306.6z"/>
	<path fill-rule="evenodd" clip-rule="evenodd" d="M280.4,307.9c0-0.6-0.1-1.1-0.1-1.5c0,0,0.3-0.1,0.5-0.1c0,0.3,0.1,0.6,0,0.9
		C280.7,307.4,280.6,307.6,280.4,307.9z"/>
	<path fill-rule="evenodd" clip-rule="evenodd" d="M289.6,339.6c0.4,0.2,1,0.4,1.2,0.7c0.4,0.7,0.5,1.4,0.8,2.2
		c-0.4-0.6-0.8-1.1-1.2-1.7C290,340.4,289.8,339.9,289.6,339.6L289.6,339.6z"/>
	<path fill-rule="evenodd" clip-rule="evenodd" d="M303.9,344.7c-0.6-0.4-0.8-0.5-1-0.7c-0.2-0.4-0.4-0.8-0.6-1.3
		c0.2,0,0.5-0.1,0.5,0C303.2,343.2,303.4,343.8,303.9,344.7z"/>
	<path fill-rule="evenodd" clip-rule="evenodd" d="M441.6,91.4c0.3-0.3,0.6-0.8,1-0.9c0.5-0.1,1,0.1,1.6,0.2
		c-0.4,0.1-0.9,0.2-1.3,0.3C442.4,91,442,91.2,441.6,91.4L441.6,91.4z"/>
	<path fill-rule="evenodd" clip-rule="evenodd" d="M509.4,90.4c0.5-0.1,0.9-0.2,1.4-0.2c0.7,0,1.5,0.1,2.2,0.2
		c-0.7,0.1-1.4,0.1-2.1,0.1C510.4,90.6,509.9,90.5,509.4,90.4L509.4,90.4z"/>
	<path fill-rule="evenodd" clip-rule="evenodd" d="M286.8,303.8c-0.2,0.1-0.3,0.3-0.5,0.4c0-0.2-0.1-0.3-0.1-0.5
		c0.1-0.3,0.2-0.5,0.3-0.8C286.6,303.2,286.7,303.5,286.8,303.8z"/>
	<path fill-rule="evenodd" clip-rule="evenodd" d="M313.1,365.9c-0.4-0.2-0.8-0.4-1-0.8c-0.3-0.5-0.4-1.1-0.5-1.7
		c0.4,0.4,0.9,0.7,1.2,1.1C312.9,365,312.9,365.5,313.1,365.9L313.1,365.9z"/>
	<path fill-rule="evenodd" clip-rule="evenodd" d="M449.4,94.8c-0.2-0.1-0.3-0.3-0.5-0.4c0.3-0.1,0.6-0.2,0.9-0.1
		c0.2,0,0.3,0.2,0.5,0.4C450,94.7,449.7,94.7,449.4,94.8z"/>
	<path fill-rule="evenodd" clip-rule="evenodd" d="M405.1,445c-0.9-0.3-1.7-0.6-2.6-0.9c0.1-0.2,0.2-0.4,0.4-0.6
		C403.6,444,404.3,444.5,405.1,445L405.1,445z"/>
	<path fill-rule="evenodd" clip-rule="evenodd" d="M446.4,457.7c-1.7-0.3-3.4-0.6-5.1-0.9l-0.1,0.1c1.7,0.3,3.4,0.6,5.1,0.9
		L446.4,457.7z"/>
	<path fill-rule="evenodd" clip-rule="evenodd" d="M301.2,364.9c-0.4-0.2-0.9-0.4-1.1-0.7c-0.3-0.5-0.3-1.1-0.4-1.6
		c0.3,0.4,0.7,0.7,0.9,1.1c0.2,0.4,0.4,0.9,0.5,1.4L301.2,364.9z"/>
	<path fill-rule="evenodd" clip-rule="evenodd" d="M509.6,458.7c-0.6,0-1.1,0.1-1.5,0.1c0,0-0.1-0.3-0.1-0.5c0.3,0,0.6-0.1,0.9-0.1
		C509.1,458.2,509.3,458.5,509.6,458.7z"/>
	<path fill-rule="evenodd" clip-rule="evenodd" d="M446.4,460.1c0.3,0.1,0.6,0.3,0.9,0.5c-0.3,0.1-0.6,0.2-0.8,0.2
		c-0.3,0-0.5-0.2-0.8-0.2C445.9,460.4,446.1,460.3,446.4,460.1z"/>
	<path fill-rule="evenodd" clip-rule="evenodd" d="M453.7,461.6c-0.6,0.1-1,0.2-1.5,0.2c-0.3,0-0.5-0.2-0.8-0.4
		c0.4-0.1,0.9-0.2,1.3-0.2C453.1,461.2,453.3,461.4,453.7,461.6z"/>
	<path fill-rule="evenodd" clip-rule="evenodd" d="M313,366c0.2,0.2,0.6,0.4,0.7,0.6c0.3,0.7,0.4,1.3,0.6,2
		c-0.4-0.6-0.9-1.2-1.2-1.8C312.9,366.6,313.1,366.2,313,366L313,366z"/>
	<path fill-rule="evenodd" clip-rule="evenodd" d="M386,124c-0.5,0.4-0.9,0.8-1.4,1.2c-0.1-0.2-0.2-0.4-0.3-0.6
		C384.9,124.4,385.5,124.2,386,124L386,124z"/>
	<path fill-rule="evenodd" clip-rule="evenodd" d="M299.4,332.3c0.2,0.2,0.4,0.4,0.5,0.6c0,0.3-0.1,0.6-0.2,0.8
		c-0.2-0.2-0.4-0.3-0.5-0.5C299.1,332.9,299.3,332.6,299.4,332.3z"/>
	<path fill-rule="evenodd" clip-rule="evenodd" d="M283.4,311.6c0.1,0,0.3,0.1,0.3,0.1c0,0.3,0,0.6-0.1,0.9c-0.1,0-0.3-0.1-0.3-0.1
		C283.3,312.1,283.4,311.9,283.4,311.6z"/>
	<path fill-rule="evenodd" clip-rule="evenodd" d="M321.3,397.8c-0.1,0-0.4,0.1-0.4,0c-0.1-0.2-0.1-0.4-0.2-0.6
		c0.1,0.1,0.3,0.1,0.4,0.2C321.2,397.5,321.3,397.7,321.3,397.8z"/>
	<polygon fill-rule="evenodd" clip-rule="evenodd" points="323.8,401.3 324.1,401.5 323.8,401.6 	"/>
	<path fill-rule="evenodd" clip-rule="evenodd" d="M297,323.9c0.2,0.7,0.5,1.4,0.7,2.1c-0.1,0-0.3,0.1-0.4,0.1
		c-0.1-0.8-0.1-1.6-0.2-2.4L297,323.9z"/>
	<path fill-rule="evenodd" clip-rule="evenodd" d="M324.5,406.6c-0.1,0.1-0.2,0.2-0.3,0.1c-0.1,0-0.2-0.2-0.3-0.3
		c0.1-0.1,0.2-0.2,0.3-0.1C324.3,406.4,324.4,406.6,324.5,406.6z"/>
	<path fill-rule="evenodd" clip-rule="evenodd" d="M306.9,376.1c0.1,0.2,0.3,0.4,0.4,0.7c-0.1,0-0.3,0-0.4,0
		c-0.2-0.2-0.3-0.4-0.4-0.6C306.6,376.1,306.7,376.1,306.9,376.1z"/>
	<path fill-rule="evenodd" clip-rule="evenodd" d="M284.7,320.6c0.3,0.5,0.7,1,1,1.5c-0.2-0.2-0.4-0.4-0.6-0.7
		C284.9,321.1,284.8,320.9,284.7,320.6L284.7,320.6z"/>
	<path fill-rule="evenodd" clip-rule="evenodd" d="M289.7,320.9c-0.1,0.2-0.2,0.5-0.3,0.7c-0.1-0.1-0.2-0.3-0.2-0.4
		c0-0.3,0.2-0.5,0.3-0.7C289.6,320.6,289.7,320.7,289.7,320.9z"/>
	<path fill-rule="evenodd" clip-rule="evenodd" d="M284.6,320.6c0-0.3,0-0.6,0-0.9c-0.1-0.4-0.2-0.9-0.3-1.3c0.2,0,0.3,0,0.5,0
		c0,0.5-0.1,0.9-0.1,1.4C284.6,320,284.7,320.3,284.6,320.6L284.6,320.6z"/>
	<path fill-rule="evenodd" clip-rule="evenodd" d="M288.5,315.3c0.1,0.3,0.3,0.5,0.3,0.8c0,0.2-0.2,0.3-0.4,0.5
		c0-0.1-0.2-0.3-0.1-0.4C288.3,315.9,288.4,315.7,288.5,315.3z"/>
	<path fill-rule="evenodd" clip-rule="evenodd" d="M592.9,421.8c-0.6,0.1-1.2,0.1-1.8,0.2c1-0.6,1.9-1.2,2.9-1.9
		C593.6,420.7,593.2,421.3,592.9,421.8z"/>
	<path fill-rule="evenodd" clip-rule="evenodd" d="M287.8,311.1c-0.1,0.1-0.2,0.3-0.2,0.4c-0.1-0.3-0.3-0.5-0.3-0.8
		c0-0.1,0.3-0.3,0.4-0.5C287.7,310.6,287.7,310.8,287.8,311.1z"/>
	<path fill-rule="evenodd" clip-rule="evenodd" d="M587.7,425.7c-0.6,0.1-1.1,0.2-1.7,0.3c1-0.6,1.9-1.3,2.9-1.9
		C588.5,424.6,588.1,425.2,587.7,425.7z"/>
	<path fill-rule="evenodd" clip-rule="evenodd" d="M328,379c0.5,0.5,1,1,1.6,1.6c-0.1,0.1-0.2,0.2-0.4,0.3
		C328.8,380.2,328.4,379.6,328,379L328,379z"/>
	<polygon fill-rule="evenodd" clip-rule="evenodd" points="351.3,430 351.5,429.8 351.6,430.1 	"/>
	<polygon fill-rule="evenodd" clip-rule="evenodd" points="288.5,299.8 288.6,300.3 288.4,300.2 	"/>
	<path fill-rule="evenodd" clip-rule="evenodd" d="M582,429c-0.4,0.5-0.8,1.1-1.2,1.6C581.2,430.1,581.6,429.6,582,429z"/>
	<path fill-rule="evenodd" clip-rule="evenodd" d="M582.9,431.1c1.1-0.7,2.1-1.4,3.2-2.1C585,429.7,584,430.4,582.9,431.1z"/>
	<path fill-rule="evenodd" clip-rule="evenodd" d="M441.6,91.4c-0.3,0-0.6,0.1-0.9,0.1c-0.6,0-1.1,0-1.7,0c0.6,0,1.2-0.1,1.7-0.1
		C441,91.3,441.3,91.3,441.6,91.4L441.6,91.4z"/>
	<path fill-rule="evenodd" clip-rule="evenodd" d="M581.2,431.3c0.6-0.1,1.2-0.2,1.8-0.3c-1,0.7-2,1.4-3,2l0.1,0.1
		C580.5,432.5,580.9,431.9,581.2,431.3z"/>
	<path fill-rule="evenodd" clip-rule="evenodd" d="M310.4,382c-0.3-0.1-0.6-0.2-0.8-0.3c-0.1-0.1,0-0.4,0.1-0.6
		c0.1,0.1,0.3,0.1,0.4,0.2C310.3,381.5,310.3,381.7,310.4,382z"/>
	<path fill-rule="evenodd" clip-rule="evenodd" d="M580.1,433c-0.5,0.4-0.9,0.8-1.4,1.3c-0.1-0.2-0.2-0.4-0.3-0.6
		C579,433.5,579.6,433.3,580.1,433L580.1,433z"/>
	<path fill-rule="evenodd" clip-rule="evenodd" d="M287.5,287.4c-0.1-0.2-0.1-0.4-0.1-0.5c0-0.1,0.1-0.2,0.2-0.3
		C287.5,286.9,287.5,287.1,287.5,287.4z"/>
	<path fill-rule="evenodd" clip-rule="evenodd" d="M519.7,92.2c-0.6-0.1-1.3-0.3-1.9-0.4c0.1-0.2,0.2-0.3,0.3-0.5
		c0.5,0.3,1,0.7,1.5,1L519.7,92.2z"/>
	<path fill-rule="evenodd" clip-rule="evenodd" d="M333,386c-0.5-0.5-1-1-1.6-1.6c0.1-0.1,0.3-0.2,0.4-0.2
		C332.2,384.8,332.6,385.4,333,386L333,386z"/>
	<path fill-rule="evenodd" clip-rule="evenodd" d="M367.9,438c1,0.7,2,1.3,3,2c0,0,0.1-0.1,0.1-0.1C370,439.3,369,438.6,367.9,438
		L367.9,438z"/>
	<path fill-rule="evenodd" clip-rule="evenodd" d="M569,439.9c-0.2,0.1-0.4,0.3-0.7,0.4c0-0.1,0-0.3,0-0.4c0.2-0.2,0.4-0.3,0.6-0.4
		C569,439.6,569,439.8,569,439.9z"/>
	<path fill-rule="evenodd" clip-rule="evenodd" d="M373.9,442.1c-1-0.7-1.9-1.4-2.9-2.1c0,0-0.1,0.1-0.1,0.1
		c1.1,0.6,2.1,1.2,3.2,1.7C374.2,441.8,373.9,442.1,373.9,442.1z"/>
	<path fill-rule="evenodd" clip-rule="evenodd" d="M282.7,253c0,0.1-0.1,0.2-0.1,0.4c-0.1-0.1-0.2-0.2-0.2-0.3
		c0-0.2,0.2-0.3,0.3-0.5C282.6,252.8,282.7,252.9,282.7,253z"/>
	<path fill-rule="evenodd" clip-rule="evenodd" d="M434.8,92.6c-0.4,0.1-0.7,0.2-1,0.2c-0.1,0-0.2-0.4-0.2-0.5
		c0.2,0,0.3-0.1,0.5-0.1C434.3,92.3,434.5,92.4,434.8,92.6z"/>
	<path fill-rule="evenodd" clip-rule="evenodd" d="M523.5,93.4c-1.3-0.4-2.5-0.8-3.8-1.2l-0.1,0.1C520.9,92.7,522.1,93,523.5,93.4
		L523.5,93.4z"/>
	<path fill-rule="evenodd" clip-rule="evenodd" d="M314.4,169.3c-0.1,0.1-0.1,0.4-0.2,0.4c-0.2,0-0.4,0-0.6-0.1
		c0.1-0.1,0.2-0.2,0.4-0.3C314.1,169.3,314.3,169.3,314.4,169.3z"/>
	<path fill-rule="evenodd" clip-rule="evenodd" d="M628,383c-0.1,0.6-0.1,1.2-0.2,1.8c-0.8,0.4-1.6,0.8-2.3,1.2
		C626.3,385.1,627.1,384,628,383z"/>
	<path fill-rule="evenodd" clip-rule="evenodd" d="M319.3,162c0,0.2,0.2,0.5,0.1,0.7c-0.2,0.2-0.5,0.3-0.7,0.5
		c0-0.2-0.2-0.6-0.1-0.7C318.7,162.2,319,162.1,319.3,162z"/>
	<path fill-rule="evenodd" clip-rule="evenodd" d="M527.5,454.6c-0.3,0-0.6,0.1-0.9,0.1c0,0-0.1-0.2-0.1-0.3c0.3,0,0.6-0.1,0.9-0.1
		C527.4,454.3,527.4,454.5,527.5,454.6z"/>
	<path fill-rule="evenodd" clip-rule="evenodd" d="M386.8,110.5c0,0.1,0.1,0.3,0.1,0.4c-0.2,0.2-0.4,0.4-0.7,0.5
		c0-0.1-0.1-0.3-0.1-0.4C386.4,110.8,386.6,110.6,386.8,110.5z"/>
	<path fill-rule="evenodd" clip-rule="evenodd" d="M437.3,455.8c1.3,0.4,2.6,0.8,3.9,1.2l0.1-0.1c-1.3-0.4-2.6-0.8-3.9-1.1
		L437.3,455.8z"/>
	<path fill-rule="evenodd" clip-rule="evenodd" d="M518.4,456.4c0.3,0,0.6-0.1,0.9-0.1c0.1,0,0.1,0.2,0.2,0.3
		c-0.3,0.1-0.6,0.1-0.9,0.1C518.6,456.7,518.5,456.5,518.4,456.4z"/>
	<path fill-rule="evenodd" clip-rule="evenodd" d="M523.4,93.4c1.6,0.1,3.2,0.3,4.8,0.4l0.1-0.1C526.7,93.6,525.1,93.5,523.4,93.4
		L523.4,93.4z"/>
	<path fill-rule="evenodd" clip-rule="evenodd" d="M514.8,457.4c0,0.1,0,0.3-0.1,0.3c-0.3,0-0.6,0.1-0.8,0.1c0-0.2,0.1-0.5,0.1-0.5
		C514.2,457.3,514.5,457.3,514.8,457.4z"/>
	<path fill-rule="evenodd" clip-rule="evenodd" d="M322.3,157.8c0.1,0.2,0.3,0.6,0.3,0.7c-0.2,0.2-0.5,0.4-0.7,0.5
		c-0.1-0.2-0.3-0.5-0.2-0.6C321.7,158.2,322,158,322.3,157.8z"/>
	<path fill-rule="evenodd" clip-rule="evenodd" d="M423.6,95.6c-0.3,0.1-0.6,0.2-0.9,0.2c-0.1,0-0.1-0.3-0.2-0.5
		c0.1,0,0.3-0.1,0.4-0.1C423.2,95.3,423.4,95.4,423.6,95.6z"/>
	<polygon fill-rule="evenodd" clip-rule="evenodd" points="451.9,97.6 452.1,97.4 452.4,97.6 	"/>
	<path fill-rule="evenodd" clip-rule="evenodd" d="M522.6,458.5c-0.3,0.1-0.5,0.3-0.8,0.3c-0.2,0-0.3-0.3-0.5-0.4
		c0.1-0.1,0.3-0.2,0.4-0.2C522,458.2,522.3,458.4,522.6,458.5z"/>
	<path fill-rule="evenodd" clip-rule="evenodd" d="M289.6,339.5c-0.1-0.8-0.2-1.6-0.3-2.4C289.4,337.9,289.5,338.8,289.6,339.5
		L289.6,339.5z"/>
	<polygon fill-rule="evenodd" clip-rule="evenodd" points="350.3,136.9 350.6,136.7 350.5,137.1 	"/>
	<path fill-rule="evenodd" clip-rule="evenodd" d="M368.9,135.9c-0.2,0.2-0.4,0.5-0.6,0.7c-0.1-0.2-0.4-0.5-0.3-0.6
		c0.2-0.2,0.4-0.4,0.7-0.5C368.8,135.6,368.9,135.7,368.9,135.9z"/>
	<path fill-rule="evenodd" clip-rule="evenodd" d="M514.8,459.8c0.7-0.2,1.5-0.4,2.2-0.6c0,0.2,0,0.4,0,0.6c-0.8,0-1.5-0.1-2.3-0.1
		L514.8,459.8z"/>
	<path fill-rule="evenodd" clip-rule="evenodd" d="M445.5,98.5c0.1-0.1,0.3-0.2,0.4-0.2c0.1,0,0.3,0,0.5,0c-0.1,0.1-0.3,0.3-0.5,0.4
		C445.8,98.7,445.6,98.6,445.5,98.5z"/>
	<path fill-rule="evenodd" clip-rule="evenodd" d="M373.3,132.6c-0.2,0.2-0.5,0.4-0.8,0.6c0,0-0.2-0.2-0.3-0.3
		c0.2-0.2,0.4-0.4,0.7-0.6C372.9,132.3,373.1,132.5,373.3,132.6z"/>
	<path fill-rule="evenodd" clip-rule="evenodd" d="M377.8,128.8c-0.3,0.5-0.6,1-1,1.5c-0.2-0.1-0.3-0.3-0.5-0.4c0.5-0.3,1-0.7,1.6-1
		L377.8,128.8z"/>
	<path fill-rule="evenodd" clip-rule="evenodd" d="M376.8,116.5c0,0.1,0.1,0.3,0.1,0.4c-0.2,0.2-0.4,0.4-0.6,0.5
		c0-0.1-0.1-0.3,0-0.4C376.4,116.8,376.6,116.7,376.8,116.5z"/>
	<path fill-rule="evenodd" clip-rule="evenodd" d="M377.9,128.9c0.5-0.3,1-0.7,1.5-1c0.1,0.2,0.1,0.4,0.2,0.6
		c-0.6,0.1-1.2,0.2-1.8,0.3L377.9,128.9z"/>
	<polygon fill-rule="evenodd" clip-rule="evenodd" points="381.6,119 381.3,119.2 381.5,118.9 	"/>
	<path fill-rule="evenodd" clip-rule="evenodd" d="M370.4,121.2c0-0.1-0.1-0.2-0.1-0.3c0-0.1,0.2-0.2,0.3-0.3c0,0.1,0.1,0.2,0.1,0.3
		C370.6,121.1,370.5,121.1,370.4,121.2z"/>
	<path fill-rule="evenodd" clip-rule="evenodd" d="M371,126c-1,0.7-2,1.4-3,2.1L368,128C369,127.3,370.1,126.7,371,126L371,126z"/>
	<path fill-rule="evenodd" clip-rule="evenodd" d="M437.4,455.7c-1.5-0.2-3-0.4-4.5-0.6l-0.1,0.1c1.5,0.2,3,0.4,4.5,0.6L437.4,455.7
		z"/>
</g>
<polyline fill="none" points="288.5,202.2 284.2,213.8 281.8,221.5 279.2,233.2 "/>
<polyline fill="none" points="276.8,244.3 275,256.5 274,270.3 274,284.2 275.4,301 278,317.8 280.3,328.7 286.7,349.3 294.3,368.8 
	302.8,384.7 320.3,409.5 341.8,431.7 362.2,447.7 376.8,456.8 401.5,469.3 426.5,477.8 443.5,481.5 461,483.8 469.2,484.7 
	483.5,484.7 505.3,482.3 519,480.3 536.7,475.3 553,470.3 568.5,463.5 581.3,456.8 601.8,443 617.3,430.7 631.3,416.3 638.7,408.2 
	651.8,389.8 665.8,364.5 676.7,334 683.8,292.3 684.5,262.5 682.8,247 679.3,238.5 672.5,214.2 656.7,179.2 641.5,156.5 
	622.3,134.7 600,115.2 572.8,97.5 554.7,88.5 536.7,82.4 522.8,78.7 508,76 482.8,73.9 457.5,75.4 440,77.9 421.3,82.2 403.2,88.5 
	383.8,96.9 363.5,109.4 348.8,120.7 333.3,135.2 321.8,147.7 312.7,159.9 "/>
<circle fill-rule="evenodd" clip-rule="evenodd" fill="#FFFFFF" cx="480" cy="280" r="131.6"/>
</svg>
