<svg width="411" height="411" viewBox="0 0 411 411" fill="none" xmlns="http://www.w3.org/2000/svg">
<path fill-rule="evenodd" clip-rule="evenodd" d="M268.899 398.717C261.499 401.017 254.199 403.817 246.599 405.417C191.599 416.517 140.099 407.317 93.1985 376.517C45.4985 345.217 15.6985 300.917 4.39854 245.117C-7.40146 186.717 4.59853 132.617 39.6985 84.517C75.1985 35.817 123.699 7.41703 183.599 1.21703C246.499 -5.38297 300.799 15.017 346.299 58.617C376.299 87.417 395.499 122.517 404.799 163.017C405.899 168.017 409.199 171.917 409.699 177.417C414.099 233.017 401.999 283.917 368.099 328.917C351.799 350.617 331.499 368.017 308.099 381.517C307.099 382.117 305.999 382.317 304.899 382.717C306.099 381.817 307.199 380.917 308.399 380.017C318.499 372.717 328.999 366.017 338.499 358.117C351.699 347.217 363.199 334.617 372.299 319.917C372.999 318.917 373.599 317.917 374.299 316.917C374.899 315.917 375.599 314.817 376.199 313.817C376.699 313.217 377.399 312.617 377.699 311.817C378.099 311.017 378.099 310.117 378.299 309.217C377.799 309.817 377.199 310.417 376.699 311.117C376.299 311.817 375.999 312.617 375.599 313.317C374.999 314.317 374.299 315.417 373.699 316.417C372.999 317.417 372.299 318.317 371.599 319.317C363.799 328.417 356.899 338.417 348.199 346.517C290.999 399.917 224.599 418.617 148.299 397.517C132.499 393.117 117.599 386.717 103.699 377.917C103.899 377.717 103.999 377.617 104.199 377.417C105.799 378.217 107.499 379.017 109.099 379.917C145.699 399.517 184.699 408.017 226.099 403.617C268.699 399.017 306.199 382.417 338.199 353.717C352.399 341.017 364.799 326.717 374.299 310.017C374.899 309.017 375.499 307.917 376.199 306.917C377.199 305.417 378.199 303.917 379.099 302.417C379.399 301.917 379.399 301.217 379.499 300.617C379.099 300.917 378.399 301.217 378.199 301.717C377.299 303.317 376.599 304.917 375.799 306.517C375.099 307.517 374.499 308.517 373.799 309.517C372.799 310.817 371.799 312.117 370.899 313.517C361.599 327.417 350.899 340.217 338.399 351.217C289.299 394.617 232.399 410.617 167.899 399.317C160.399 398.017 152.999 395.717 145.499 393.917C145.599 393.517 145.699 393.217 145.799 392.817C146.599 393.017 147.299 393.217 148.099 393.417C167.899 398.917 188.099 401.617 208.699 401.117C236.599 400.517 263.199 394.417 288.199 382.317C337.299 358.517 372.399 321.817 390.599 269.817C391.699 266.617 392.199 263.117 392.999 259.717C393.299 258.917 393.599 258.117 393.899 257.317C393.899 257.317 393.599 257.117 393.499 257.117C393.299 258.017 393.199 258.917 392.999 259.817C392.299 261.417 391.399 263.017 390.799 264.717C380.899 294.117 365.499 320.317 343.099 341.717C288.499 393.717 224.299 409.917 151.299 391.417C137.399 387.917 124.099 382.617 111.799 375.017L112.099 374.617C113.499 375.217 114.899 375.617 116.199 376.317C137.499 387.117 159.999 393.817 183.799 396.017C233.599 400.617 278.999 388.917 319.399 359.217C335.099 347.717 348.699 334.017 360.099 318.217C360.699 317.417 360.899 316.217 361.299 315.217C360.499 315.817 359.499 316.217 358.799 317.017C352.599 324.017 346.999 331.517 340.299 338.017C296.499 380.617 244.199 399.717 183.299 392.517C129.099 386.117 85.6985 360.117 53.1985 316.217C50.0985 312.017 47.5985 307.217 44.8985 302.717C45.6985 303.517 46.5985 304.317 47.1985 305.217C57.7985 321.717 70.4985 336.417 85.6985 348.917C127.299 383.317 175.099 397.617 228.499 391.317C270.199 386.417 306.099 368.217 336.099 338.917C366.299 309.417 384.099 273.417 389.799 231.517C390.699 224.817 390.899 218.117 391.399 211.317C390.899 211.317 390.499 211.217 389.999 211.217C389.599 214.617 389.199 218.017 388.899 221.417C384.999 265.617 367.299 303.517 335.999 334.817C329.799 341.017 322.499 346.017 315.699 351.617C316.799 350.317 317.899 349.117 318.999 347.817C320.599 346.217 322.299 344.617 323.899 343.117C324.099 342.817 324.299 342.417 324.499 342.117C324.899 341.917 325.299 341.717 325.699 341.417C328.399 339.217 331.099 336.917 333.799 334.717C336.499 331.617 339.199 328.517 341.899 325.417C342.799 324.617 343.699 323.717 344.699 322.917C345.499 321.717 346.299 320.517 347.099 319.317C347.299 319.117 347.499 318.917 347.699 318.817C348.499 317.717 349.299 316.617 350.199 315.417C350.399 315.217 350.599 314.917 350.699 314.717C351.699 313.317 352.799 311.917 353.799 310.517C354.499 309.517 355.299 308.617 355.999 307.617L355.899 307.717C356.599 306.617 357.299 305.617 357.999 304.517L357.899 304.617C359.099 302.917 360.199 301.217 361.399 299.417C368.899 287.417 374.799 274.517 379.299 261.117C379.999 259.017 381.699 257.217 379.299 254.017C377.399 251.417 378.899 246.217 379.199 242.217C380.199 231.117 381.399 220.017 382.299 208.917C382.399 207.317 381.099 204.417 380.099 204.317C377.199 203.917 377.699 206.717 377.499 208.617C376.899 214.217 376.499 219.917 375.599 225.517C368.699 270.217 350.399 308.517 313.899 337.117C272.499 369.517 226.499 382.017 174.799 371.317C138.899 363.917 107.699 347.717 83.3985 319.717C69.8985 304.117 57.9985 287.517 50.3985 268.217C44.4985 253.117 42.9985 237.217 42.4985 221.217C41.9985 204.317 42.0985 187.517 46.2985 171.117C56.0985 132.417 77.2985 101.017 108.599 76.517C146.799 46.517 190.399 37.917 237.199 48.017C272.899 55.717 301.499 76.017 325.799 102.917C344.199 123.317 357.799 146.217 363.599 173.317C363.799 174.017 364.399 174.717 364.799 175.317C364.999 177.517 365.099 179.817 365.299 182.017C365.599 183.417 365.799 184.817 366.099 186.217C366.399 186.117 366.699 186.017 366.999 185.917C366.399 184.617 365.899 183.417 365.299 182.117C365.099 179.917 364.999 177.617 364.799 175.417C364.699 174.117 364.799 172.717 364.499 171.417C357.099 139.017 343.199 110.117 318.799 87.017C308.299 77.117 297.199 67.617 285.499 59.217C254.299 36.717 218.699 29.617 180.899 32.117C170.399 32.817 159.899 35.117 149.799 36.617C149.599 36.817 149.799 36.517 149.999 36.417C150.899 36.017 151.899 35.717 152.799 35.417C175.599 28.517 198.799 25.917 222.399 28.817C285.599 36.817 332.599 68.717 361.899 125.617C366.699 134.917 369.699 145.017 373.499 154.817C373.799 155.517 374.399 156.117 374.799 156.717C374.799 156.017 374.999 155.217 374.799 154.517C374.299 152.217 373.799 150.017 373.099 147.717C349.799 73.417 270.999 8.41703 167.599 28.717C153.499 31.517 139.999 36.217 126.699 41.617C126.599 41.417 126.399 41.317 126.299 41.117C127.599 40.417 128.799 39.517 130.199 38.917C183.799 16.017 236.899 16.317 289.299 42.417C321.699 58.617 345.799 83.617 363.799 114.717C365.099 117.017 366.599 119.217 368.099 121.417C368.399 121.817 369.199 121.917 369.699 122.117C369.699 121.517 369.999 120.817 369.799 120.317C368.899 118.117 368.199 115.917 366.999 113.917C341.899 70.417 305.999 40.217 257.299 25.917C234.899 19.317 211.899 17.417 188.699 18.317L188.799 18.417C190.099 18.017 191.299 17.417 192.599 17.417C213.199 16.217 233.499 17.617 253.499 23.117C260.099 24.917 266.599 27.117 273.099 29.017C273.799 29.217 274.699 28.917 275.499 28.917C274.999 28.317 274.599 27.517 273.999 27.217C271.599 25.817 269.199 24.517 266.799 23.217L266.699 23.317C267.699 23.517 268.699 23.717 269.599 24.017C285.799 29.917 301.099 37.617 314.999 47.917C358.599 79.917 385.299 122.317 393.699 175.917C394.999 183.917 395.399 192.117 396.299 200.217C396.399 201.117 396.899 201.917 397.199 202.817C397.399 201.917 397.899 200.917 397.899 200.017C397.499 191.717 397.499 183.317 396.299 175.117C389.599 129.817 369.299 91.617 336.199 60.017C283.399 9.71703 201.699 -6.18297 133.899 20.717C106.699 31.517 82.7985 47.117 62.2985 68.017C60.8985 69.417 59.4985 70.917 57.9985 72.217C57.5985 72.617 56.9985 72.917 56.4985 73.217C56.6985 72.717 56.7985 72.117 57.0985 71.617C57.4985 71.017 57.9985 70.617 58.3985 70.117C103.499 23.717 157.899 1.31703 222.999 6.71703C251.999 9.11703 279.099 17.917 304.299 32.617C322.899 43.417 338.999 57.317 353.499 73.117C354.999 74.817 356.499 76.517 357.999 78.217C358.199 78.017 358.599 77.717 358.599 77.717C357.199 75.917 355.799 74.217 354.299 72.417C353.799 71.717 353.499 71.017 352.899 70.317C339.599 55.517 324.899 42.317 307.899 31.817C266.699 6.31703 221.799 -2.08297 174.199 5.11703C113.699 14.317 66.4985 44.917 33.6985 96.717C6.69852 139.417 -3.60145 186.217 4.09855 236.217C11.1986 282.517 31.9985 322.317 66.7985 353.717C116.799 398.817 175.399 416.617 242.299 405.017C251.199 403.517 259.999 400.817 268.899 398.717ZM380.599 306.017C380.699 305.917 380.899 305.817 380.999 305.717C381.899 304.017 382.899 302.317 383.799 300.617C383.899 300.417 383.599 300.117 383.499 299.817C382.699 301.017 381.899 302.217 381.199 303.417C380.899 303.917 380.599 304.617 380.399 305.217C380.299 305.417 380.499 305.717 380.599 306.017ZM387.099 283.917C386.699 284.717 386.399 285.517 386.099 286.217C386.299 286.217 386.699 286.317 386.799 286.317C387.099 285.717 387.399 285.117 387.699 284.517C387.699 284.417 387.399 284.117 387.099 283.917ZM395.799 250.417C395.699 250.117 395.499 249.917 395.399 249.617C395.199 249.817 394.899 250.117 394.899 250.317C394.999 250.617 395.299 250.917 395.499 251.217C395.599 250.917 395.799 250.717 395.799 250.417ZM396.399 246.517C396.499 246.217 396.799 246.017 396.799 245.817C396.799 245.517 396.599 245.217 396.499 245.017C396.399 245.217 396.099 245.417 396.099 245.717C395.999 245.917 396.199 246.217 396.399 246.517ZM397.499 241.317C397.599 241.017 397.599 240.717 397.599 240.417C397.399 240.417 397.199 240.417 397.099 240.317C397.099 240.417 396.999 240.617 397.099 240.717C397.199 241.017 397.399 241.117 397.499 241.317ZM398.399 234.217C398.299 234.317 398.199 234.417 398.199 234.517C398.199 234.617 398.199 234.817 398.199 234.917C398.299 234.817 398.499 234.717 398.599 234.517C398.599 234.517 398.499 234.417 398.399 234.217ZM400.499 206.317C400.299 206.717 400.299 206.817 400.199 207.017C400.299 207.017 400.399 207.017 400.499 207.117C400.499 206.917 400.499 206.717 400.499 206.317Z" transform="translate(0.101471 0.382965)" fill="black"/>
<path fill-rule="evenodd" clip-rule="evenodd" d="M267.383 396.074C258.483 398.174 249.683 400.874 240.683 402.374C173.883 413.974 115.283 396.174 65.1833 351.074C30.3833 319.674 9.58329 279.874 2.48329 233.574C-5.21671 183.574 5.0833 136.774 32.0833 94.0742C64.8833 42.2742 112.083 11.5742 172.583 2.47418C220.183 -4.72582 265.083 3.67417 306.283 29.1742C323.283 39.6742 337.983 52.8742 351.283 67.6742C351.783 68.2742 352.183 69.0742 352.683 69.7742C352.383 69.9742 352.183 70.2742 351.883 70.4742C337.383 54.6742 321.283 40.7742 302.683 29.9742C277.483 15.3742 250.383 6.47417 221.383 4.07417C156.283 -1.32583 101.883 21.0742 56.9833 67.9742C56.4833 68.4742 55.9833 68.8742 55.6833 69.4742C55.3833 69.9742 55.2833 70.5742 55.0833 71.0742C55.5833 70.7742 56.1833 70.4742 56.5833 70.0742C57.9833 68.6742 59.3833 67.2742 60.8833 65.8742C81.3833 44.9742 105.383 29.3742 132.483 18.5742C200.283 -8.42583 281.983 7.57418 334.783 57.8742C367.883 89.4742 388.283 127.674 394.883 172.974C396.083 181.174 395.983 189.574 396.483 197.874C396.483 198.774 396.083 199.774 395.783 200.674C395.483 199.774 394.983 198.974 394.883 198.074C393.983 189.974 393.583 181.774 392.283 173.774C383.783 120.174 357.183 77.7742 313.583 45.7742C299.683 35.5742 284.383 27.7742 268.183 21.8742C267.283 21.5742 266.283 21.3742 265.283 21.1742C260.983 19.7742 256.683 18.4742 252.383 17.0742C250.783 16.9742 249.183 16.7742 247.583 16.6742C246.283 16.2742 245.083 15.8742 243.783 15.5742C243.283 15.2742 242.783 14.8742 242.283 14.5742C242.183 14.7742 242.083 14.8742 241.983 15.0742C242.583 15.1742 243.283 15.3742 243.883 15.4742C245.183 15.8742 246.383 16.2742 247.683 16.6742C249.283 16.7742 250.983 16.8742 252.583 17.0742C256.883 18.4742 261.083 19.7742 265.383 21.1742C267.783 22.4742 270.283 23.7742 272.583 25.1742C273.183 25.5742 273.583 26.3742 274.083 26.8742C273.283 26.9742 272.383 27.1742 271.683 26.9742C265.183 25.0742 258.683 22.8742 252.083 21.0742C232.383 15.3742 211.983 14.0742 191.383 15.2742C190.083 15.3742 188.883 15.9742 187.583 16.2742C185.283 16.2742 182.983 16.2742 180.683 16.2742C180.683 16.5742 180.683 16.7742 180.783 17.0742C183.083 16.7742 185.283 16.4742 187.583 16.1742C210.883 15.2742 233.783 17.1742 256.183 23.7742C304.783 38.0742 340.683 68.1742 365.883 111.774C367.083 113.774 367.783 115.974 368.683 118.174C368.883 118.674 368.683 119.374 368.583 119.974C367.983 119.774 367.283 119.674 366.983 119.274C365.483 117.074 363.983 114.874 362.683 112.574C344.683 81.3742 320.683 56.3742 288.183 40.2742C235.783 14.1742 182.683 13.8742 129.083 36.7742C127.683 37.3742 126.483 38.1742 125.183 38.9742C122.583 40.3742 120.083 41.8742 117.483 43.2742C115.183 44.5742 112.883 45.9742 110.483 47.2742C109.883 47.4742 109.283 47.5742 108.683 47.7742C108.783 47.9742 108.883 48.1742 108.983 48.3742C109.483 47.9742 109.883 47.5742 110.383 47.1742C112.683 45.8742 114.983 44.4742 117.383 43.1742C120.083 41.9742 122.883 40.6742 125.583 39.4742C138.883 34.0742 152.283 29.3742 166.483 26.5742C269.883 6.27417 348.683 71.1742 371.983 145.574C372.683 147.774 373.183 150.074 373.683 152.374C373.883 153.074 373.683 153.874 373.683 154.574C373.183 153.974 372.583 153.374 372.383 152.674C368.483 142.974 365.483 132.774 360.783 123.474C331.483 66.5742 284.583 34.6742 221.283 26.6742C197.683 23.6742 174.383 26.3742 151.683 33.2742C150.683 33.5742 149.783 33.8742 148.883 34.2742C148.683 34.3742 148.483 34.6742 148.683 34.4742C158.783 32.9742 169.183 30.6742 179.783 29.9742C217.583 27.3742 253.183 34.5742 284.383 57.0742C296.083 65.4742 307.183 74.9742 317.683 84.8742C342.083 107.874 355.983 136.874 363.383 169.274C363.683 170.574 363.583 171.874 363.683 173.274L363.783 173.174C363.383 172.474 362.783 171.874 362.583 171.174C356.783 144.074 343.183 121.074 324.783 100.774C300.483 73.9742 271.883 53.5742 236.183 45.8742C189.283 35.7742 145.783 44.3742 107.583 74.3742C76.2833 98.8742 55.0833 130.274 45.2833 168.974C41.0833 185.474 40.9833 202.274 41.4833 219.074C41.9833 235.174 43.4833 250.974 49.3833 266.074C56.9833 285.374 68.8833 301.974 82.3833 317.574C106.683 345.674 137.883 361.774 173.783 369.174C225.483 379.874 271.483 367.374 312.883 334.974C349.183 306.074 367.483 267.874 374.383 223.074C375.283 217.474 375.683 211.874 376.283 206.174C376.483 204.274 375.983 201.574 378.883 201.874C379.783 201.974 381.183 204.974 381.083 206.474C380.283 217.574 378.983 228.674 377.983 239.774C377.683 243.774 376.183 248.974 378.083 251.574C380.383 254.774 378.783 256.574 378.083 258.674C373.583 272.174 367.683 284.974 360.183 296.974C358.983 298.674 357.883 300.374 356.683 302.174L356.783 302.074C356.083 303.174 355.383 304.174 354.683 305.274L354.783 305.174C353.983 305.474 353.283 305.774 352.483 306.074C351.683 307.074 350.783 308.074 349.983 309.074C349.883 309.374 349.683 309.574 349.583 309.874C348.883 310.874 348.183 311.974 347.583 312.974C347.283 313.274 346.983 313.674 346.583 313.974C345.883 314.974 345.183 315.974 344.483 316.974C344.183 317.274 343.883 317.574 343.583 317.974C341.883 319.974 340.183 321.974 338.483 324.074C336.183 326.374 333.883 328.774 331.583 331.074C329.283 333.674 326.883 336.374 324.583 338.974C324.183 339.174 323.783 339.374 323.383 339.674C322.483 340.174 321.483 340.674 320.583 341.074C319.883 341.774 319.183 342.474 318.583 343.174C317.583 343.774 316.683 344.374 315.683 345.074C314.983 345.774 314.283 346.474 313.583 347.174C312.583 347.774 311.683 348.474 310.683 349.074C309.283 350.074 307.983 351.074 306.583 352.174C306.183 352.674 305.783 353.274 305.383 353.774C305.583 353.974 305.683 354.174 305.883 354.374C305.483 354.974 305.183 355.574 304.783 356.174C304.183 356.374 303.583 356.574 302.983 356.774C303.083 356.974 303.183 357.174 303.283 357.374C303.783 356.974 304.183 356.574 304.683 356.074C305.683 355.374 306.683 354.674 307.683 354.074L307.483 354.174C308.583 353.474 309.583 352.774 310.683 352.074L310.483 352.174C311.883 351.174 313.283 350.074 314.683 349.074L314.483 349.174C321.283 343.574 328.583 338.574 334.783 332.374C366.083 300.974 383.783 263.174 387.683 218.974C387.983 215.574 388.383 212.174 388.783 208.774C389.283 208.774 389.683 208.874 390.183 208.874C389.683 215.574 389.483 222.374 388.583 229.074C382.883 270.974 365.083 306.974 334.883 336.474C304.883 365.774 268.983 383.974 227.283 388.874C173.883 395.074 125.983 380.874 84.4833 346.474C69.3833 333.974 56.6833 319.274 45.9833 302.774C45.3833 301.874 44.4833 301.074 43.6833 300.274C43.0833 299.074 42.4833 297.774 41.8833 296.574C41.6833 296.674 41.4833 296.774 41.2833 296.874C42.0833 297.974 42.8833 299.174 43.6833 300.274C46.4833 304.774 48.8833 309.574 51.9833 313.774C84.4833 357.674 127.783 383.674 182.083 390.074C242.983 397.274 295.383 378.174 339.083 335.574C345.783 329.074 351.383 321.574 357.583 314.574C358.283 313.874 359.283 313.374 360.083 312.774C359.683 313.774 359.483 314.874 358.883 315.774C347.483 331.574 333.883 345.174 318.183 356.774C277.783 386.574 232.383 398.174 182.583 393.574C158.783 391.374 136.283 384.674 114.983 373.874C113.683 373.174 112.183 372.674 110.883 372.174C108.583 370.874 106.183 369.574 103.883 368.174C102.283 367.174 100.583 366.074 98.9833 365.074C97.8833 364.474 96.7833 363.874 95.7833 363.374C94.7833 362.674 93.7833 362.074 92.7833 361.374C91.4833 360.374 90.0833 359.374 88.7833 358.374C87.4833 357.374 86.0833 356.374 84.7833 355.374C84.4833 354.974 84.2833 354.474 83.9833 354.274C83.4833 353.974 82.8833 353.774 82.3833 353.474C82.7833 353.974 83.0833 354.474 83.5833 354.874C83.9833 355.174 84.4833 355.174 84.9833 355.374C86.2833 356.374 87.6833 357.374 88.9833 358.374C90.2833 359.374 91.6833 360.374 92.9833 361.374C93.9833 362.074 94.9833 362.674 95.9833 363.374C96.9833 364.074 97.8833 364.774 98.8833 365.474C100.483 366.474 102.183 367.574 103.783 368.574C106.083 369.874 108.483 371.274 110.783 372.574C123.083 380.174 136.383 385.474 150.283 388.974C223.183 407.474 287.483 391.274 342.083 339.274C364.483 317.874 379.983 291.674 389.783 262.274C390.383 260.574 391.283 258.974 391.983 257.374C391.183 260.774 390.683 264.174 389.583 267.474C371.383 319.474 336.183 356.174 287.183 379.974C262.183 392.074 235.583 398.174 207.683 398.774C186.983 399.174 166.883 396.574 147.083 391.074C146.283 390.874 145.583 390.674 144.783 390.474C144.683 390.874 144.583 391.174 144.483 391.574C151.983 393.374 159.283 395.674 166.883 396.974C231.383 408.174 288.283 392.174 337.383 348.874C349.883 337.774 360.583 325.074 369.883 311.174C370.783 309.774 371.783 308.474 372.783 307.174C372.983 307.374 373.183 307.574 373.383 307.674C363.883 324.274 351.483 338.674 337.283 351.374C305.283 379.974 267.783 396.674 225.183 401.274C183.783 405.774 144.783 397.174 108.183 377.574C106.583 376.674 104.883 375.974 103.283 375.074C97.4833 371.474 91.7833 367.974 85.9833 364.374C84.5833 363.374 83.2833 362.374 81.8833 361.374C81.4833 360.874 81.1833 360.274 80.7833 359.874C80.4833 359.574 79.9833 359.374 79.4833 359.174C79.6833 359.674 79.7833 360.274 80.1833 360.574C80.6833 360.974 81.3833 361.074 81.9833 361.274C83.3833 362.274 84.6833 363.274 86.0833 364.274C91.6833 368.074 97.1833 371.774 102.783 375.574C116.683 384.374 131.583 390.874 147.383 395.174C223.683 416.274 289.983 397.574 347.283 344.174C355.983 336.074 362.983 326.074 370.683 316.974C370.883 317.174 371.083 317.374 371.383 317.574C362.283 332.274 350.783 344.874 337.583 355.774C327.983 363.674 317.483 370.374 307.483 377.674C306.283 378.574 305.183 379.474 303.983 380.374L304.183 380.274C298.783 382.974 293.383 385.674 287.983 388.374L288.183 388.274C286.783 388.974 285.383 389.674 283.983 390.374L284.183 390.274C282.483 390.974 280.683 391.674 278.983 392.374L279.183 392.274C276.483 393.474 273.783 394.674 270.983 395.874C269.383 395.774 268.383 395.974 267.383 396.074ZM102.283 51.9742C101.783 52.2742 101.283 52.6742 100.683 52.9742C100.883 53.0742 100.983 53.2742 101.183 53.3742C101.483 52.8742 101.783 52.3742 102.183 51.8742C102.783 51.7742 103.383 51.6742 103.983 51.5742C103.883 51.3742 103.883 51.1742 103.783 50.9742C103.183 51.2742 102.783 51.6742 102.283 51.9742ZM161.683 378.874C160.183 378.674 158.683 378.474 157.183 378.274C153.983 377.174 150.683 376.074 147.483 374.974C141.483 372.674 135.383 370.374 129.383 368.174C128.683 367.674 127.983 367.074 127.183 366.574C127.083 366.774 126.983 366.974 126.783 367.174C127.683 367.474 128.483 367.774 129.383 368.074C135.383 370.474 141.283 372.774 147.283 375.174C150.583 376.174 153.883 377.174 157.183 378.174C158.683 378.374 160.183 378.574 161.683 378.774C162.983 379.174 164.283 379.574 165.583 379.874C167.283 380.174 168.983 380.474 170.683 380.774C171.883 381.074 172.983 381.474 174.183 381.774C174.183 381.774 174.283 381.574 174.283 381.374C173.183 381.174 172.083 381.074 170.983 380.874C170.783 380.874 170.683 380.774 170.483 380.774C168.783 380.474 167.083 380.174 165.383 379.874C164.283 379.574 162.983 379.174 161.683 378.874ZM9.0833 243.674C9.0833 243.374 9.0833 243.074 9.0833 242.774C9.0833 242.274 9.18328 241.874 9.18328 241.374C8.98328 241.374 8.88328 241.374 8.68328 241.374C8.78328 241.774 8.88329 242.274 8.98329 242.674C8.98329 243.074 8.9833 243.374 9.0833 243.674C9.1833 243.874 9.38329 244.174 9.48329 244.474C9.68329 244.674 9.8833 244.974 10.0833 245.174C9.7833 244.674 9.3833 244.174 9.0833 243.674ZM37.4833 288.974C37.4833 289.274 37.2833 289.674 37.4833 289.874C37.7833 290.474 38.2833 291.074 38.6833 291.674C38.4833 290.974 38.3833 290.274 38.0833 289.674C37.9833 289.374 37.5833 289.274 37.4833 288.974C37.2833 288.574 37.2833 288.074 37.0833 287.674C36.7833 287.274 36.2833 286.874 35.8833 286.574C36.0833 287.174 36.1833 287.774 36.3833 288.274C36.5833 288.574 37.0833 288.674 37.4833 288.974ZM165.983 14.4742C166.383 14.2742 166.783 14.1742 167.283 13.9742C167.683 13.8742 168.183 13.7742 168.583 13.6742C168.083 13.5742 167.483 13.3742 166.983 13.4742C166.583 13.5742 166.383 14.0742 165.983 14.4742C165.683 14.4742 165.383 14.3742 165.083 14.3742C164.483 14.3742 163.883 14.4742 163.383 14.4742C163.983 14.4742 164.483 14.4742 165.083 14.4742C165.283 14.4742 165.683 14.4742 165.983 14.4742ZM13.9833 262.674C13.8833 261.874 13.7833 261.074 13.6833 260.274C13.7833 260.974 13.8833 261.774 13.9833 262.674C14.1833 263.074 14.3833 263.474 14.6833 263.874C15.0833 264.474 15.4833 264.974 15.8833 265.574C15.6833 264.874 15.4833 264.074 15.0833 263.374C14.9833 263.074 14.3833 262.874 13.9833 262.674ZM95.3833 49.0742C95.9833 48.8742 96.5833 48.6742 97.0833 48.3742C97.4833 48.1742 97.6833 47.6742 97.9833 47.3742C97.4833 47.4742 96.8833 47.4742 96.4833 47.7742C96.0833 47.9742 95.7833 48.6742 95.3833 49.0742C94.3833 49.7742 93.3833 50.4742 92.3833 51.0742C90.1833 52.5742 87.7833 53.7742 85.7833 55.4742C36.5833 96.3742 12.9833 148.674 15.6833 212.774C15.8833 216.874 16.9833 220.874 17.5833 224.874C17.7833 227.374 17.9833 229.874 18.1833 232.374C19.2833 237.274 20.3833 242.074 21.4833 246.974C21.5833 247.774 21.5833 248.574 21.6833 249.374C21.7833 249.374 21.9833 249.274 22.0833 249.274C21.8833 248.574 21.5833 247.874 21.3833 247.174C20.2833 242.274 19.1833 237.474 18.1833 232.574C17.9833 230.074 17.7833 227.574 17.5833 225.074C15.6833 205.274 15.8833 185.574 19.8833 165.974C27.9833 125.974 47.6833 92.5742 77.1833 64.7742C82.0833 60.0742 87.3833 55.7742 92.4833 51.2742C93.3833 50.4742 94.3833 49.7742 95.3833 49.0742ZM129.583 25.1742C130.083 25.0742 130.583 25.0742 130.983 24.8742C131.583 24.5742 132.183 24.0742 132.683 23.6742C131.983 23.8742 131.283 23.9742 130.583 24.3742C130.183 24.5742 129.983 24.9742 129.683 25.3742C129.183 25.3742 128.683 25.2742 128.283 25.3742C127.583 25.6742 126.983 26.0742 126.283 26.4742C126.983 26.2742 127.683 26.1742 128.383 25.9742C128.783 25.7742 129.183 25.3742 129.583 25.1742ZM57.3833 309.174C56.9833 308.574 56.6833 307.874 56.2833 307.274C56.1833 307.374 55.9833 307.474 55.8833 307.474C56.3833 307.974 56.8833 308.574 57.3833 309.174C58.4833 310.374 59.4833 311.774 60.4833 313.074C60.5833 313.574 60.6833 314.074 60.9833 314.374C61.4833 314.874 62.1833 315.274 62.6833 315.774C62.2833 315.174 61.9833 314.474 61.5833 313.874C61.2833 313.574 60.7833 313.374 60.3833 313.174C59.2833 311.774 58.2833 310.474 57.3833 309.174ZM233.783 13.4742C234.283 13.5742 234.683 13.6742 235.183 13.6742C235.883 13.6742 236.583 13.5742 237.283 13.5742C236.583 13.4742 235.783 13.3742 235.083 13.3742C234.683 13.2742 234.183 13.3742 233.783 13.4742C233.283 13.1742 232.983 12.7742 232.483 12.6742C231.783 12.4742 230.983 12.5742 230.183 12.5742C230.883 12.7742 231.683 12.8742 232.383 13.0742C232.883 13.1742 233.383 13.2742 233.783 13.4742ZM25.4833 288.074C25.2833 287.574 25.1833 287.074 24.9833 286.674C24.7833 286.274 24.3833 285.974 24.0833 285.574C24.1833 286.174 24.2833 286.774 24.4833 287.174C24.6833 287.474 25.1833 287.674 25.5833 287.874C25.9833 289.374 26.3833 290.874 26.7833 292.474C27.0833 292.374 27.3833 292.274 27.6833 292.174C26.9833 290.774 26.1833 289.474 25.4833 288.074ZM52.3833 302.074C52.7833 302.674 53.1833 303.374 53.5833 303.974C53.6833 303.874 53.7833 303.774 53.9833 303.674C53.3833 303.174 52.8833 302.674 52.3833 302.074C50.6833 299.374 49.0833 296.674 47.4833 293.974C45.8833 290.974 44.1833 287.974 42.5833 284.874C42.0833 283.474 41.5833 282.074 40.9833 280.674C15.5833 224.874 17.0833 169.774 45.6833 115.574C50.5833 106.374 56.8833 97.8742 62.4833 89.0742C64.1833 87.1742 65.8833 85.1742 67.6833 83.2742C71.8833 78.9742 76.0833 74.7742 80.2833 70.4742C80.5833 70.1742 80.8833 69.6742 81.0833 69.2742C80.5833 69.4742 79.8833 69.4742 79.4833 69.7742C75.2833 74.0742 71.2833 78.4742 67.0833 82.7742C65.4833 84.7742 63.7833 86.7742 62.1833 88.7742C57.1833 95.5742 51.5833 102.074 47.2833 109.274C19.5833 155.674 14.6833 204.874 29.9833 256.274C32.9833 266.174 38.0833 275.474 42.2833 284.974C43.9833 287.974 45.6833 290.974 47.2833 293.974C49.0833 296.774 50.6833 299.374 52.3833 302.074ZM239.183 382.874C235.083 383.474 231.083 384.074 226.983 384.674C215.683 385.374 204.383 385.974 194.183 386.574C201.183 386.574 209.283 386.774 217.383 386.474C220.583 386.374 223.783 385.274 226.883 384.574C230.983 383.974 234.983 383.274 239.083 382.674C239.883 382.674 240.583 382.774 241.383 382.774C241.383 382.574 241.383 382.374 241.383 382.174C240.583 382.574 239.883 382.674 239.183 382.874ZM92.3833 345.074C91.2833 343.974 90.0833 342.974 88.9833 341.874C88.8833 342.074 88.6833 342.274 88.5833 342.474C89.8833 343.374 91.1833 344.174 92.3833 345.074C98.0833 349.074 103.583 353.174 109.183 357.274C111.683 358.874 114.083 360.474 116.583 361.974C116.983 362.274 117.683 362.074 118.183 362.174C117.883 361.874 117.583 361.374 117.183 361.174C114.683 359.674 112.083 358.274 109.583 356.874C103.883 352.974 98.0833 349.074 92.3833 345.074ZM185.783 382.674C183.683 382.574 181.683 382.474 179.583 382.374C179.583 382.474 179.583 382.674 179.583 382.674C181.783 382.774 183.783 382.674 185.783 382.674C186.783 383.074 187.583 383.774 188.483 383.774C198.483 383.874 208.583 383.874 218.583 383.874C218.583 383.474 218.583 383.074 218.583 382.674C207.683 382.674 196.783 382.674 185.783 382.674ZM66.7833 349.474C67.0833 349.174 67.2833 348.974 67.5833 348.674C63.5833 344.874 59.6833 341.074 55.6833 337.274C55.3833 337.074 54.9833 336.974 54.6833 336.874C54.9833 337.274 55.1833 337.774 55.4833 338.074C59.1833 341.874 62.9833 345.674 66.7833 349.474ZM191.183 10.3742C191.283 10.4742 191.283 10.5742 191.383 10.7742C198.783 10.7742 206.183 10.7742 213.583 10.7742C213.583 10.6742 213.583 10.5742 213.583 10.3742C206.083 10.3742 198.683 10.3742 191.183 10.3742ZM2.78328 208.274C2.88328 208.274 2.88329 208.174 2.98329 208.174C2.98329 205.374 2.98329 202.574 2.98329 199.874C2.88329 199.874 2.88328 199.874 2.78328 199.874C2.78328 202.574 2.78328 205.374 2.78328 208.274ZM71.2833 324.974C70.0833 323.774 68.6833 322.574 67.3833 321.274C67.3833 321.474 67.1833 321.874 67.2833 321.974C68.4833 323.274 69.7833 324.574 71.0833 325.874C71.1833 325.674 71.1833 325.374 71.2833 324.974ZM85.2833 338.574C84.2833 337.774 83.3833 336.974 82.3833 336.074C82.1833 336.374 81.8833 336.774 81.9833 336.774C82.9833 337.674 83.9833 338.474 84.8833 339.274C84.9833 339.174 85.0833 338.974 85.2833 338.574ZM222.783 11.9742C223.583 11.8742 224.183 11.7742 224.783 11.6742C224.183 11.4742 223.583 11.1742 222.883 11.1742C222.283 11.0742 221.683 11.2742 220.983 11.2742C221.683 11.5742 222.283 11.8742 222.783 11.9742ZM51.6833 76.1742C51.5833 75.5742 51.4833 75.3742 51.4833 75.0742C50.7833 75.6742 50.0833 76.2742 49.4833 76.9742C49.3833 77.0742 49.5833 77.5742 49.6833 77.8742C50.4833 77.2742 51.1833 76.6742 51.6833 76.1742ZM77.9833 349.374C77.2833 348.974 76.6833 348.574 75.9833 348.174C75.9833 348.474 75.9833 348.774 76.0833 348.974C76.5833 349.374 77.0833 349.774 77.6833 350.174C77.7833 349.874 77.8833 349.674 77.9833 349.374ZM184.883 385.074C184.383 385.174 183.783 385.374 183.183 385.474C183.783 385.574 184.383 385.874 184.983 385.874C185.583 385.874 186.183 385.574 186.883 385.374C186.283 385.374 185.683 385.274 184.883 385.074ZM181.983 11.9742C182.583 11.8742 183.183 11.6742 183.783 11.5742C183.283 11.4742 182.683 11.1742 182.183 11.1742C181.683 11.1742 181.083 11.4742 180.583 11.5742C181.083 11.7742 181.483 11.8742 181.983 11.9742ZM9.48329 216.974C9.58329 217.474 9.68329 218.074 9.88329 218.674C9.98329 218.274 10.1833 217.774 10.1833 217.374C10.1833 216.774 9.98329 216.174 9.88329 215.474C9.78329 215.974 9.68329 216.474 9.48329 216.974ZM66.9833 339.674C66.5833 339.274 66.2833 338.974 65.9833 338.574C65.8833 338.774 65.6833 339.074 65.7833 339.174C66.0833 339.474 66.4833 339.774 66.8833 340.074C66.8833 339.874 66.9833 339.774 66.9833 339.674ZM225.983 383.074C226.383 382.874 226.783 382.674 227.283 382.474C226.883 382.374 226.383 382.174 225.983 382.274C225.483 382.374 224.983 382.574 224.483 382.774C224.983 382.774 225.383 382.874 225.983 383.074ZM6.0833 218.274C5.8833 218.774 5.68327 218.974 5.68327 219.174C5.68327 219.674 5.68327 220.174 5.68327 220.574C5.88327 220.474 6.18327 220.474 6.18327 220.374C6.18327 219.774 6.0833 219.074 6.0833 218.274ZM4.0833 222.174C4.0833 221.374 4.0833 220.774 4.0833 220.174C4.0833 219.974 3.88327 219.874 3.68327 219.674C3.58327 220.274 3.48329 220.874 3.48329 221.574C3.58329 221.674 3.8833 221.874 4.0833 222.174ZM4.88329 201.374C4.78329 201.774 4.68327 202.074 4.68327 202.374C4.68327 202.674 4.68327 202.974 4.68327 203.374C4.78327 203.074 4.98329 202.774 4.98329 202.474C5.08329 202.074 4.98329 201.774 4.88329 201.374ZM172.983 12.4742C173.383 12.6742 173.683 12.8742 173.883 12.8742C174.383 12.8742 174.783 12.6742 175.283 12.5742C174.983 12.4742 174.783 12.1742 174.483 12.1742C174.083 12.2742 173.583 12.3742 172.983 12.4742ZM53.0833 330.574C53.0833 330.474 53.2833 330.274 53.1833 330.274C52.9833 329.974 52.7833 329.774 52.5833 329.574C52.5833 329.674 52.3833 329.874 52.4833 329.874C52.6833 330.074 52.8833 330.374 53.0833 330.574ZM75.4833 356.374C75.0833 355.874 74.8833 355.374 74.4833 355.174C74.2833 354.974 73.8833 355.174 73.4833 355.174C73.7833 355.574 74.0833 355.974 74.4833 356.274C74.6833 356.374 74.9833 356.274 75.4833 356.374ZM277.883 370.774C277.583 370.674 277.283 370.574 277.083 370.574C276.683 370.774 276.283 371.074 275.883 371.274C275.983 371.474 276.183 371.674 276.183 371.674C276.783 371.474 277.283 371.074 277.883 370.774ZM124.883 383.274C124.183 382.974 123.583 382.674 123.083 382.374C123.083 382.574 122.983 382.874 123.183 382.974C123.583 383.274 123.983 383.474 124.483 383.674C124.483 383.774 124.683 383.474 124.883 383.274ZM89.1833 62.4742C88.8833 62.2742 88.6833 62.0742 88.5833 62.1742C88.2833 62.2742 87.9833 62.4742 87.7833 62.6742C87.6833 62.7742 87.8833 63.1742 87.9833 63.3742C88.2833 63.0742 88.6833 62.7742 89.1833 62.4742ZM5.78328 185.674C5.98328 185.374 6.0833 185.274 6.0833 185.074C6.0833 184.774 6.08329 184.474 5.98329 184.174C5.88329 184.374 5.6833 184.474 5.5833 184.674C5.5833 184.874 5.68328 185.174 5.78328 185.674ZM6.78328 229.674C6.98328 229.374 7.18327 229.274 7.18327 229.074C7.18327 228.774 7.0833 228.474 7.0833 228.174C6.9833 228.374 6.68327 228.474 6.68327 228.674C6.58327 228.974 6.68328 229.274 6.78328 229.674ZM4.78328 230.974C4.98328 230.674 5.18327 230.474 5.18327 230.274C5.18327 229.974 5.18327 229.674 5.18327 229.374C4.98327 229.374 4.68327 229.474 4.68327 229.474C4.68327 229.974 4.68328 230.374 4.78328 230.974ZM28.2833 267.774C27.7833 266.874 27.5833 266.274 27.2833 265.774C27.2833 265.674 26.9833 265.774 26.7833 265.774C26.9833 266.174 27.1833 266.674 27.3833 267.074C27.4833 267.274 27.6833 267.374 28.2833 267.774ZM11.1833 226.874C11.0833 226.574 10.9833 226.274 10.9833 225.974C10.8833 226.274 10.7833 226.474 10.6833 226.774C10.6833 226.874 10.6833 227.074 10.7833 227.274C10.8833 227.174 10.9833 226.974 11.1833 226.874ZM173.783 17.8742C174.083 17.7742 174.383 17.7742 174.683 17.6742C174.483 17.5742 174.383 17.2742 174.183 17.2742C173.883 17.2742 173.583 17.3742 173.283 17.3742C173.383 17.5742 173.583 17.6742 173.783 17.8742ZM233.983 381.774C233.683 381.574 233.483 381.274 233.283 381.274C232.983 381.274 232.683 381.274 232.383 381.374C232.383 381.574 232.383 381.874 232.483 381.874C232.883 381.874 233.383 381.774 233.983 381.774ZM170.783 383.174C170.483 383.374 170.283 383.474 170.083 383.574C170.383 383.674 170.583 383.774 170.883 383.774C171.183 383.774 171.483 383.674 171.683 383.574C171.383 383.474 171.083 383.374 170.783 383.174ZM178.083 384.674C177.683 384.474 177.383 384.174 177.183 384.174C176.783 384.174 176.283 384.274 175.883 384.374C176.183 384.474 176.383 384.774 176.683 384.774C177.083 384.874 177.583 384.774 178.083 384.674ZM23.7833 255.374C23.6833 255.674 23.5833 255.974 23.5833 256.274C23.5833 256.474 23.8833 256.574 24.0833 256.774C24.1833 256.474 24.2833 256.174 24.2833 255.974C24.1833 255.674 23.8833 255.574 23.7833 255.374ZM7.78328 234.674C7.78328 234.974 7.68327 235.274 7.68327 235.574C7.68327 235.574 7.88329 235.674 7.98329 235.674C7.98329 235.374 8.0833 235.074 8.0833 234.774C8.0833 234.774 7.88328 234.674 7.78328 234.674ZM45.6833 320.874C45.6833 320.774 45.5833 320.574 45.4833 320.474C45.3833 320.374 45.1833 320.274 45.0833 320.274C45.0833 320.474 45.1833 320.674 45.2833 320.874C45.2833 320.974 45.5833 320.874 45.6833 320.874ZM48.1833 324.374V324.674H48.4833L48.1833 324.374ZM48.8833 329.674C48.7833 329.574 48.6833 329.474 48.5833 329.374C48.4833 329.374 48.3833 329.474 48.2833 329.474C48.3833 329.574 48.4833 329.674 48.5833 329.774C48.6833 329.874 48.7833 329.774 48.8833 329.674ZM31.2833 299.174C31.1833 299.174 30.9833 299.174 30.8833 299.174C30.9833 299.374 31.0833 299.674 31.2833 299.774C31.3833 299.874 31.5833 299.774 31.6833 299.774C31.5833 299.574 31.3833 299.374 31.2833 299.174ZM14.0833 243.974C13.9833 243.874 13.9833 243.674 13.8833 243.574C13.7833 243.774 13.6833 244.074 13.5833 244.274C13.5833 244.374 13.6833 244.574 13.7833 244.674C13.9833 244.374 13.9833 244.174 14.0833 243.974ZM12.8833 238.374C12.7833 238.674 12.6833 238.974 12.6833 239.274C12.6833 239.374 12.7833 239.574 12.7833 239.674C12.8833 239.474 13.1833 239.374 13.1833 239.174C13.0833 238.974 12.9833 238.674 12.8833 238.374ZM12.1833 234.174C12.1833 233.874 12.0833 233.574 12.0833 233.374C11.9833 233.574 11.6833 233.674 11.6833 233.874C11.6833 234.174 11.8833 234.374 11.9833 234.674C11.9833 234.474 12.0833 234.374 12.1833 234.174ZM75.6833 353.074L75.8833 353.274L75.7833 352.974L75.6833 353.074ZM12.8833 222.874L12.6833 223.274L12.9833 223.374L12.8833 222.874ZM34.7833 305.074C34.6833 304.774 34.5833 304.574 34.4833 304.374C34.3833 304.274 34.2833 304.274 34.0833 304.174C34.0833 304.374 33.8833 304.674 33.9833 304.774C34.2833 304.874 34.4833 304.974 34.7833 305.074ZM11.8833 210.474C11.8833 210.174 11.8833 209.974 11.9833 209.674C11.8833 209.774 11.7833 209.874 11.7833 209.974C11.7833 210.174 11.7833 210.274 11.8833 210.474ZM293.383 362.974C293.383 362.874 293.383 362.674 293.383 362.574C293.183 362.674 292.983 362.774 292.783 362.974C292.683 363.074 292.783 363.274 292.783 363.374C292.883 363.274 293.183 363.074 293.383 362.974ZM7.0833 176.074C7.0833 175.974 7.08329 175.774 6.98329 175.674C6.88329 175.774 6.78327 175.974 6.68327 176.174C6.68327 176.274 6.78329 176.374 6.88329 176.474C6.98329 176.374 6.9833 176.174 7.0833 176.074ZM159.183 15.6742C158.883 15.4742 158.683 15.3742 158.483 15.2742C158.383 15.2742 158.183 15.2742 157.983 15.3742C158.083 15.5742 158.183 15.8742 158.183 15.8742C158.483 15.8742 158.783 15.7742 159.183 15.6742ZM38.7833 92.3742C38.5833 92.3742 38.4833 92.3742 38.2833 92.3742C38.1833 92.4742 37.9833 92.5742 37.8833 92.6742C38.0833 92.6742 38.2833 92.7742 38.4833 92.7742C38.6833 92.7742 38.6833 92.4742 38.7833 92.3742ZM43.5833 85.0742C43.3833 85.1742 42.9833 85.2742 42.8833 85.5742C42.7833 85.7742 42.9833 86.0742 42.9833 86.2742C43.1833 86.0742 43.4833 85.9742 43.6833 85.7742C43.7833 85.5742 43.6833 85.2742 43.5833 85.0742ZM251.883 377.674C251.883 377.574 251.783 377.374 251.783 377.374C251.483 377.374 251.183 377.474 250.883 377.474C250.883 377.574 250.983 377.774 250.983 377.774C251.283 377.774 251.583 377.774 251.883 377.674ZM111.183 33.5742C110.983 33.7742 110.683 33.8742 110.583 34.0742C110.483 34.1742 110.583 34.3742 110.683 34.4742C110.883 34.2742 111.183 34.1742 111.383 33.9742C111.383 33.8742 111.283 33.6742 111.183 33.5742ZM242.783 379.474C242.883 379.574 242.983 379.774 242.983 379.774C243.283 379.774 243.583 379.674 243.883 379.674C243.783 379.574 243.783 379.374 243.683 379.374C243.383 379.374 243.083 379.474 242.783 379.474ZM239.183 380.474C238.883 380.474 238.683 380.374 238.383 380.374C238.383 380.374 238.283 380.674 238.283 380.874C238.583 380.874 238.883 380.874 239.083 380.774C239.183 380.774 239.183 380.574 239.183 380.474ZM46.6833 80.8742C46.3833 81.0742 46.0833 81.1742 45.9833 81.4742C45.8833 81.5742 46.1833 81.8742 46.1833 82.0742C46.4833 81.8742 46.7833 81.7742 46.8833 81.5742C46.9833 81.4742 46.7833 81.1742 46.6833 80.8742ZM147.983 18.6742C147.683 18.5742 147.583 18.3742 147.283 18.2742C147.183 18.2742 146.983 18.2742 146.883 18.3742C146.983 18.5742 147.083 18.8742 147.083 18.8742C147.383 18.8742 147.683 18.7742 147.983 18.6742ZM176.283 20.6742L176.783 20.5742L176.483 20.3742L176.283 20.6742ZM246.983 381.574C246.683 381.474 246.383 381.374 246.083 381.274C245.983 381.274 245.783 381.374 245.683 381.474C245.883 381.674 245.983 381.874 246.183 381.874C246.483 381.874 246.683 381.674 246.983 381.574ZM74.6833 59.9742L74.8833 60.1742L74.9833 59.7742L74.6833 59.9742ZM93.2833 58.9742C93.1833 58.8742 93.1833 58.6742 93.0833 58.5742C92.8833 58.7742 92.5833 58.8742 92.3833 59.0742C92.2833 59.1742 92.5833 59.4742 92.6833 59.6742C92.9833 59.3742 93.0833 59.1742 93.2833 58.9742ZM169.883 21.5742C169.983 21.6742 170.183 21.7742 170.283 21.7742C170.483 21.6742 170.583 21.5742 170.783 21.3742C170.583 21.3742 170.483 21.2742 170.283 21.3742C170.083 21.3742 169.983 21.4742 169.883 21.5742ZM97.6833 55.6742C97.5833 55.5742 97.3833 55.3742 97.2833 55.4742C97.0833 55.6742 96.8833 55.8742 96.5833 56.0742C96.6833 56.1742 96.8833 56.3742 96.8833 56.3742C97.1833 56.0742 97.3833 55.8742 97.6833 55.6742ZM101.183 39.5742C100.983 39.7742 100.783 39.8742 100.583 40.0742C100.483 40.1742 100.583 40.2742 100.583 40.4742C100.783 40.2742 100.983 40.1742 101.183 39.9742C101.283 39.8742 101.183 39.6742 101.183 39.5742ZM105.983 42.0742L105.883 41.9742L105.783 42.2742L105.983 42.0742ZM94.7833 44.2742C94.8833 44.1742 94.9833 44.0742 95.0833 43.9742C95.0833 43.8742 95.0833 43.7742 94.9833 43.6742C94.8833 43.7742 94.7833 43.8742 94.6833 43.9742C94.6833 44.0742 94.6833 44.1742 94.7833 44.2742Z" transform="translate(1.6167 3.02582)" fill="white"/>
<path fill-rule="evenodd" clip-rule="evenodd" d="M2.44141e-05 8.1C5.40002 5.4 10.8 2.69999 16.2 -6.10352e-06C10.8 2.69999 5.40002 5.4 2.44141e-05 8.1Z" transform="translate(288.9 383)" fill="black"/>
<path fill-rule="evenodd" clip-rule="evenodd" d="M2.44141e-05 3.60001C2.70002 2.40001 5.39998 1.2 8.19998 0C5.49998 1.2 2.80002 2.40001 2.44141e-05 3.60001Z" transform="translate(271.9 395.1)" fill="black"/>
<path fill-rule="evenodd" clip-rule="evenodd" d="M2.44141e-05 2.10001C1.70002 1.40001 3.49998 0.7 5.19998 0C3.49998 0.7 1.70002 1.40001 2.44141e-05 2.10001Z" transform="translate(279.9 393.1)" fill="black"/>
<path fill-rule="evenodd" clip-rule="evenodd" d="M0.699988 0.900003C0.599988 1.2 0.599976 1.5 0.499976 1.8C0.299976 1.5 0.0999756 1.2 -2.44141e-05 0.799997C-2.44141e-05 0.599997 0.200024 0.299994 0.300024 -6.10352e-06C0.500024 0.399994 0.599988 0.700003 0.699988 0.900003Z" transform="translate(406.1 159.5)" fill="black"/>
<path fill-rule="evenodd" clip-rule="evenodd" d="M2.44141e-05 2.10001C1.40002 1.40001 2.79998 0.7 4.19998 0C2.79998 0.6 1.40002 1.40001 2.44141e-05 2.10001Z" transform="translate(284.9 391.1)" fill="black"/>
<path fill-rule="evenodd" clip-rule="evenodd" d="M0 8.1C2.3 5.8 4.60002 3.4 6.90002 1.1C7.70002 0.7 8.39998 0.299994 9.09998 -6.10352e-06C6.39998 3.09999 3.7 6.20001 1 9.30001C0.7 8.90001 0.4 8.5 0 8.1Z" transform="translate(333 326)" fill="white"/>
<path fill-rule="evenodd" clip-rule="evenodd" d="M7 0C7.4 0.4 7.69998 0.800012 8.09998 1.20001C5.39998 3.40001 2.7 5.69999 0 7.89999C2.3 5.29999 4.7 2.6 7 0Z" transform="translate(326 334.1)" fill="white"/>
<path fill-rule="evenodd" clip-rule="evenodd" d="M0.300012 6.19999C0.200012 5.89999 2.44141e-05 5.6 2.44141e-05 5.4C0.200024 4.8 0.500012 4.20001 0.800012 3.60001C1.50001 2.40001 2.3 1.20001 3.1 6.10352e-06C3.2 0.300006 3.49999 0.599994 3.39999 0.799994C2.49999 2.49999 1.6 4.2 0.6 5.9C0.6 6 0.400012 6.09999 0.300012 6.19999Z" transform="translate(380.4 300.2)" fill="white"/>
<path fill-rule="evenodd" clip-rule="evenodd" d="M2.20001 4.99999C1.40001 5.39999 0.7 5.8 0 6.1C1.7 4.1 3.39998 2.09999 5.09998 -6.10352e-06C5.09998 0.799994 5.1 1.59999 5 2.39999C4 3.29999 3.10001 4.19999 2.20001 4.99999Z" transform="translate(340 321)" fill="black"/>
<path fill-rule="evenodd" clip-rule="evenodd" d="M1.10002 2.60001C1.80002 1.90001 2.50002 1.2 3.10002 0.5C3.80002 0.3 4.59998 0.2 5.29998 0C3.69998 1.6 2.00001 3.20001 0.400012 4.70001C0.300012 4.50001 0.0999878 4.40001 -1.2207e-05 4.20001C0.399988 3.80001 0.800024 3.20001 1.10002 2.60001Z" transform="translate(318.8 343.6)" fill="white"/>
<path fill-rule="evenodd" clip-rule="evenodd" d="M0.800024 6.10352e-06C2.20002 1.70001 3.70001 3.49999 5.10001 5.29999C5.10001 5.29999 4.69998 5.59999 4.49998 5.79999C2.99998 4.09999 1.49998 2.4 -2.44141e-05 0.700003C0.299976 0.500003 0.500024 0.300006 0.800024 6.10352e-06Z" transform="translate(353.6 72.7)" fill="white"/>
<path fill-rule="evenodd" clip-rule="evenodd" d="M1.2207e-05 5.90001C0.800012 4.30001 1.49998 2.69999 2.39998 1.09999C2.69998 0.599994 3.30002 0.399988 3.70002 -1.2207e-05C3.60002 0.599988 3.6 1.30001 3.3 1.80001C2.4 3.30001 1.39998 4.80001 0.399976 6.30001C0.299976 6.20001 0.200012 6.10001 1.2207e-05 5.90001Z" transform="translate(375.7 300.9)" fill="white"/>
<path fill-rule="evenodd" clip-rule="evenodd" d="M1.2 2.30001C1.9 1.60001 2.59998 0.9 3.29998 0.2C3.89998 0.1 4.50002 0.0999878 5.10002 -1.2207e-05C5.20002 0.199988 5.39999 0.299988 5.49999 0.499988C4.39999 1.79999 3.3 3.00001 2.2 4.30001L2.40001 4.2C1.80001 4.3 1.09999 4.39999 0.499988 4.49999C0.299988 4.29999 0.199988 4.10001 -1.2207e-05 3.90001C0.299988 3.40001 0.7 2.80001 1.2 2.30001Z" transform="translate(313.8 347.9)" fill="white"/>
<path fill-rule="evenodd" clip-rule="evenodd" d="M-2.44141e-05 5.20001C1.19998 3.50001 2.29998 1.8 3.49998 0C2.39998 1.8 1.19998 3.50001 -2.44141e-05 5.20001Z" transform="translate(358.1 300.1)" fill="white"/>
<path fill-rule="evenodd" clip-rule="evenodd" d="M0.1 1.99999C0.2 1.69999 0.400024 1.50001 0.500024 1.20001C1.30002 0.800006 2.10001 0.399994 2.80001 -6.10352e-06L3.1 0.200006C2.1 1.60001 1.00002 2.99999 2.44141e-05 4.39999C0.100024 3.49999 0.1 2.79999 0.1 1.99999Z" transform="translate(350.9 311)" fill="white"/>
<path fill-rule="evenodd" clip-rule="evenodd" d="M1.2207e-05 4.10001C0.400012 3.40001 0.699988 2.6 1.09999 1.9C1.49999 1.2 2.10002 0.700006 2.70002 6.10352e-06C2.50002 0.900006 2.39999 1.80001 2.09999 2.60001C1.79999 3.30001 1.09999 3.90001 0.599988 4.60001C0.299988 4.40001 0.200012 4.30001 1.2207e-05 4.10001Z" transform="translate(375.7 309.7)" fill="white"/>
<path fill-rule="evenodd" clip-rule="evenodd" d="M-2.44141e-05 6.10352e-06C0.599976 1.30001 1.09999 2.49999 1.69999 3.79999C1.39999 3.89999 1.10002 4.00001 0.800024 4.10001C0.500024 2.70001 0.299976 1.30001 -2.44141e-05 6.10352e-06Z" transform="translate(365.6 182.7)" fill="white"/>
<path fill-rule="evenodd" clip-rule="evenodd" d="M1.10001 1.2207e-05C1.30001 0.300012 1.70001 0.499988 1.60001 0.599988C1.40001 1.19999 1.09999 1.80001 0.699988 2.40001C0.599988 2.50001 0.299976 2.4 -2.44141e-05 2.3C0.399976 1.5 0.800012 0.800012 1.10001 1.2207e-05Z" transform="translate(386.1 284.3)" fill="white"/>
<path fill-rule="evenodd" clip-rule="evenodd" d="M0.599976 6.7C0.399976 4.5 0.299976 2.2 0.0999756 3.05176e-06L0 0.0999939C0.3 2.29999 0.399976 4.5 0.599976 6.7Z" transform="translate(365 175.9)" fill="white"/>
<path fill-rule="evenodd" clip-rule="evenodd" d="M2.44141e-05 3.59999C2.44141e-05 2.79999 0 2 0.1 1.2C0.4 0.9 0.700024 0.6 1.00002 0.2C1.50002 0.1 1.89999 0.0999878 2.39999 -1.2207e-05C1.69999 1.19999 0.900024 2.39999 2.44141e-05 3.59999Z" transform="translate(344.9 319.9)" fill="white"/>
<path fill-rule="evenodd" clip-rule="evenodd" d="M1.40002 2.79999C0.900024 2.89999 0.5 2.9 0 3C0.7 2 1.39998 1 2.09998 0C2.09998 0.8 2 1.49999 2 2.29999C1.8 2.49999 1.60002 2.69999 1.40002 2.79999Z" transform="translate(346 317.1)" fill="black"/>
<path fill-rule="evenodd" clip-rule="evenodd" d="M2 -6.10352e-06C2 0.799994 1.90002 1.59999 1.90002 2.39999C1.70002 2.59999 1.60002 2.9 1.40002 3.1C0.900024 3.1 0.5 3.20001 0 3.20001C0.7 2.10001 1.4 0.999994 2 -6.10352e-06Z" transform="translate(349 313)" fill="black"/>
<path fill-rule="evenodd" clip-rule="evenodd" d="M1.2207e-05 3.20001C0.700012 2.10001 1.39999 1.1 2.09999 0C1.39999 1.1 0.700012 2.20001 1.2207e-05 3.20001Z" transform="translate(356.2 305.1)" fill="white"/>
<path fill-rule="evenodd" clip-rule="evenodd" d="M0.2 0.9C1 0.6 1.69999 0.300006 2.49999 6.10352e-06C1.79999 1.00001 0.999976 1.9 0.299976 2.9L-1.2207e-05 2.69999C-1.2207e-05 2.09999 0.1 1.5 0.2 0.9Z" transform="translate(353.8 308.2)" fill="white"/>
<path fill-rule="evenodd" clip-rule="evenodd" d="M-1.2207e-05 3.09999C0.599988 2.09999 1.30001 1.00001 1.90001 1.2207e-05C2.10001 0.200012 2.30001 0.300012 2.40001 0.500012C1.80001 1.50001 1.09999 2.59999 0.499988 3.59999C0.299988 3.39999 0.0999878 3.19999 -1.2207e-05 3.09999Z" transform="translate(373.8 313.8)" fill="white"/>
<path fill-rule="evenodd" clip-rule="evenodd" d="M1 0.1C1.5 0.1 1.90002 -6.10352e-06 2.40002 -6.10352e-06C1.60002 1.09999 0.8 2.19999 0 3.39999C0 2.59999 0.0999756 1.9 0.0999756 1.1C0.399976 0.8 0.7 0.4 1 0.1Z" transform="translate(348 316)" fill="white"/>
<path fill-rule="evenodd" clip-rule="evenodd" d="M2.69999 0.499988C1.99999 1.49999 1.39999 2.49999 0.699988 3.49999C0.499988 3.29999 0.299976 3.10001 -2.44141e-05 2.90001C0.699976 1.90001 1.40001 0.999988 2.10001 -1.2207e-05C2.30001 0.0999878 2.49999 0.299988 2.69999 0.499988Z" transform="translate(371.6 316.9)" fill="white"/>
<path fill-rule="evenodd" clip-rule="evenodd" d="M0 2.7C0.2 1.8 0.3 0.899988 0.5 -1.2207e-05C0.6 0.0999878 0.900024 0.2 0.900024 0.2C0.600024 1.1 0.3 1.9 0 2.7Z" transform="translate(393 257.4)" fill="white"/>
<path fill-rule="evenodd" clip-rule="evenodd" d="M0.900024 0.800012C0.800024 1.10001 0.699976 1.4 0.599976 1.6C0.399976 1.3 0.1 1.00001 0 0.700006C0 0.500006 0.3 0.199994 0.5 -6.10352e-06C0.7 0.299994 0.800024 0.500012 0.900024 0.800012Z" transform="translate(395 250)" fill="white"/>
<path fill-rule="evenodd" clip-rule="evenodd" d="M0.3 1.59999C0.2 1.29999 1.2207e-05 0.999994 1.2207e-05 0.699994C1.2207e-05 0.499994 0.299976 0.200012 0.399976 1.2207e-05C0.499976 0.300012 0.700024 0.6 0.700024 0.8C0.600024 1.1 0.4 1.39999 0.3 1.59999Z" transform="translate(396.2 245.3)" fill="white"/>
<path fill-rule="evenodd" clip-rule="evenodd" d="M2.20001 0.900006C1.50001 1.10001 0.7 1.20001 0 1.40001C0.9 0.900006 1.89999 0.400012 2.79999 1.2207e-05C2.59999 0.200012 2.40001 0.500006 2.20001 0.900006Z" transform="translate(322 342.8)" fill="black"/>
<path fill-rule="evenodd" clip-rule="evenodd" d="M0.44442 0.900006C0.24442 0.700006 0.0444567 0.500006 0.0444567 0.400006C-0.0555433 0.300006 0.0444567 0.100012 0.0444567 1.2207e-05C0.244457 1.2207e-05 0.444457 -1.22115e-05 0.544457 0.0999878C0.544457 0.299988 0.54442 0.600006 0.44442 0.900006Z" transform="translate(397.156 240.8)" fill="white"/>
<path fill-rule="evenodd" clip-rule="evenodd" d="M0.244444 0C0.344444 0.1 0.444457 0.299988 0.444457 0.299988C0.344457 0.399988 0.244432 0.500012 0.0444322 0.700012C0.0444322 0.600012 -0.0555678 0.399988 0.0444322 0.299988C0.0444322 0.199988 0.244444 0.1 0.244444 0Z" transform="translate(398.256 234.6)" fill="white"/>
<path fill-rule="evenodd" clip-rule="evenodd" d="M1.2207e-05 2.99999C0.700012 1.99999 1.30001 0.999988 2.00001 -1.2207e-05C2.10001 0.0999878 2.29998 0.300012 2.39998 0.400012C1.79998 1.40001 1.20001 2.49999 0.500012 3.49999C0.400012 3.29999 0.200012 3.09999 1.2207e-05 2.99999Z" transform="translate(373.7 306.9)" fill="white"/>
<path fill-rule="evenodd" clip-rule="evenodd" d="M0.299976 6.10352e-06C0.299976 0.400006 0.299976 0.599988 0.299976 0.699988C0.199976 0.699988 0.0999878 0.700012 -1.2207e-05 0.600012C0.0999878 0.500012 0.199976 0.400006 0.299976 6.10352e-06Z" transform="translate(400.3 206.7)" fill="white"/>
<path fill-rule="evenodd" clip-rule="evenodd" d="M41.0811 0.200006C35.4811 9.00001 29.0811 17.5 24.2811 26.7C-4.31895 80.9 -5.91893 136 19.5811 191.8C20.1811 193.2 20.6811 194.6 21.1811 196L20.8811 196.2C16.7811 186.6 11.5811 177.4 8.58107 167.5C-6.71893 116.1 -1.91894 66.9 25.8811 20.5C30.1811 13.3 35.7811 6.79999 40.7811 -6.10352e-06L41.0811 0.200006Z" transform="translate(23.0189 92)" fill="black"/>
<path fill-rule="evenodd" clip-rule="evenodd" d="M2.10725 173.8C1.40725 169.8 0.307224 165.8 0.207224 161.7C-2.49278 97.7 21.2072 45.4 70.3072 4.4C72.3072 2.7 74.7072 1.5 76.9072 1.52588e-06L77.0072 0.1C71.9072 4.6 66.7072 8.9 61.7072 13.6C32.2072 41.4 12.5072 74.8 4.40724 114.8C0.407236 134.4 0.207248 154.1 2.10725 173.8Z" transform="translate(17.0928 54)" fill="black"/>
<path fill-rule="evenodd" clip-rule="evenodd" d="M32.7 6.10352e-06C29.5 0.700006 26.4 1.8 23.2 1.9C15.1 2.2 6.99999 2.00001 -1.2207e-05 2.00001C10.2 1.40001 21.5 0.700006 32.7 6.10352e-06Z" transform="translate(195.8 387.7)" fill="black"/>
<path fill-rule="evenodd" clip-rule="evenodd" d="M-6.10352e-06 6.10352e-06C10.9 6.10352e-06 21.9 6.10352e-06 32.8 6.10352e-06C32.8 0.400006 32.8 0.799988 32.8 1.19999C22.8 1.19999 12.7 1.20001 2.70001 1.10001C1.90001 1.10001 0.999994 0.400006 -6.10352e-06 6.10352e-06Z" transform="translate(187.4 385.7)" fill="black"/>
<path fill-rule="evenodd" clip-rule="evenodd" d="M1.2207e-05 13.5C4.10001 9.2 8.20001 4.8 12.4 0.500003C12.7 0.100003 13.4 0.100003 14 3.05176e-06C13.7 0.400003 13.5 0.8 13.2 1.2C8.99999 5.5 4.79999 9.7 0.599988 14C0.399988 13.8 0.200012 13.6 1.2207e-05 13.5Z" transform="translate(68.7 72.4)" fill="black"/>
<path fill-rule="evenodd" clip-rule="evenodd" d="M12.1 12.6C8.29999 8.79999 4.50001 5 0.800006 1.2C0.500006 0.9 0.299988 0.399988 -1.2207e-05 -1.2207e-05C0.299988 0.0999878 0.799988 0.200012 0.999988 0.400012C4.99999 4.20001 9.00001 8.00001 12.9 11.8C12.6 12.1 12.3 12.3 12.1 12.6Z" transform="translate(56.3 339.9)" fill="black"/>
<path fill-rule="evenodd" clip-rule="evenodd" d="M-1.2207e-05 3.05176e-06C7.39999 3.05176e-06 14.9 3.05176e-06 22.3 3.05176e-06C22.3 0.100003 22.3 0.199997 22.3 0.399997C14.9 0.399997 7.49999 0.399997 0.0999939 0.399997C0.199994 0.299997 0.0999878 0.100003 -1.2207e-05 3.05176e-06Z" transform="translate(192.8 13.4)" fill="black"/>
<path fill-rule="evenodd" clip-rule="evenodd" d="M16.8 12.3C11.2 8.19999 5.70001 4.1 0.100006 0H0C5.7 3.9 11.5 7.79999 17.2 11.8C17 12 16.9 12.1 16.8 12.3Z" transform="translate(94 348.1)" fill="black"/>
<path fill-rule="evenodd" clip-rule="evenodd" d="M0 0C5.8 3.6 11.5 7.10001 17.3 10.7C17.1 10.9 17 11 16.8 11.2C11.2 7.50001 5.6 3.7 0 0Z" transform="translate(87 367.1)" fill="black"/>
<path fill-rule="evenodd" clip-rule="evenodd" d="M18 7.10001C12 4.70001 6.10001 2.4 0.100006 0H0C6 2.3 12.1 4.59999 18.1 6.79999L18 7.10001Z" transform="translate(131 371.1)" fill="black"/>
<path fill-rule="evenodd" clip-rule="evenodd" d="M-1.2207e-05 -1.2207e-05C1.09999 4.89999 2.2 9.69999 3.2 14.6L3.30001 14.5C2.20001 9.59999 1.19999 4.79999 -1.2207e-05 -1.2207e-05Z" transform="translate(19.8 235.4)" fill="black"/>
<path fill-rule="evenodd" clip-rule="evenodd" d="M1.2207e-05 0.100003C4.30001 1.5 8.59998 2.8 12.9 4.2L13 4.1C8.70001 2.7 4.50002 1.4 0.200024 -3.05176e-06L1.2207e-05 0.100003Z" transform="translate(254.2 19.8)" fill="black"/>
<path fill-rule="evenodd" clip-rule="evenodd" d="M0.400012 -1.2207e-05C2.90001 1.39999 5.49999 2.80001 7.99999 4.30001C8.39999 4.50001 8.59999 5.00001 8.99999 5.30001C8.49999 5.20001 7.80001 5.39999 7.40001 5.09999C4.90001 3.59999 2.49999 2.00001 -1.2207e-05 0.400012C0.0999878 0.300012 0.200012 0.199988 0.400012 -1.2207e-05Z" transform="translate(110.8 359.9)" fill="black"/>
<path fill-rule="evenodd" clip-rule="evenodd" d="M-6.10352e-06 8.40001C-6.10352e-06 5.60001 -6.10352e-06 2.79999 -6.10352e-06 -1.2207e-05C0.0999939 -1.2207e-05 0.100006 -1.2207e-05 0.200006 -1.2207e-05C0.200006 2.79999 0.200006 5.60001 0.200006 8.30001C0.100006 8.30001 0.0999939 8.30001 -6.10352e-06 8.40001Z" transform="translate(4.39999 202.9)" fill="black"/>
<path fill-rule="evenodd" clip-rule="evenodd" d="M5 9.2C3.3 6.2 1.6 3.2 0 0.2L0.299988 -1.2207e-05C1.89999 2.99999 3.60001 5.99999 5.20001 9.09999L5 9.2Z" transform="translate(44 287.9)" fill="black"/>
<path fill-rule="evenodd" clip-rule="evenodd" d="M1.1 3.4C2.5 2.4 3.79998 1.39999 5.19998 0.299994C5.79998 0.199994 6.29999 0.100006 6.89999 6.10352e-06C7.09999 0.200006 7.19999 0.400012 7.39999 0.600012C6.59999 1.50001 5.9 2.5 5.1 3.4L5.30001 3.29999C4.20001 3.99999 3.2 4.7 2.1 5.4L2.30001 5.29999C1.70001 5.39999 1.10002 5.50001 0.500024 5.60001C0.300024 5.40001 0.200024 5.20001 2.44141e-05 5.00001C0.300024 4.50001 0.7 4 1.1 3.4Z" transform="translate(306.9 351.7)" fill="white"/>
<path fill-rule="evenodd" clip-rule="evenodd" d="M12.2 1.2207e-05C8.10001 0.600012 4.1 1.30001 0 1.90001H0.100006C4.20001 1.30001 8.19999 0.699988 12.3 0.0999878L12.2 1.2207e-05Z" transform="translate(228.5 385.8)" fill="black"/>
<path fill-rule="evenodd" clip-rule="evenodd" d="M9.89999 3.20001C6.59999 2.20001 3.3 1.20001 0 0.200006L0.100006 -6.10352e-06C3.30001 1.09999 6.59999 2.10001 9.89999 3.20001Z" transform="translate(149 378)" fill="black"/>
<path fill-rule="evenodd" clip-rule="evenodd" d="M0.100006 -6.10352e-06C1.70001 2.69999 3.29999 5.4 4.89999 8.1L5 7.99999C3.3 5.29999 1.6 2.69999 0 -6.10352e-06H0.100006Z" transform="translate(49 297)" fill="black"/>
<path fill-rule="evenodd" clip-rule="evenodd" d="M4.04142 3.69999C3.94142 4.09999 3.94143 4.39999 3.84143 4.59999C2.54143 3.29999 1.34142 1.99999 0.0414153 0.699994C-0.0585847 0.599994 0.0414214 0.200012 0.141421 1.2207e-05C1.44142 1.30001 2.74142 2.49999 4.04142 3.69999Z" transform="translate(68.8586 324.3)" fill="black"/>
<path fill-rule="evenodd" clip-rule="evenodd" d="M8.20001 0.500003C5.50001 1.7 2.7 3 0 4.2L0.100006 4.3C2.70001 2.9 5.19999 1.4 7.79999 3.05176e-06C7.89999 0.100003 8.10001 0.300003 8.20001 0.500003Z" transform="translate(119 41.9)" fill="black"/>
<path fill-rule="evenodd" clip-rule="evenodd" d="M5.49999 0.499997C3.79999 2.4 2.10001 4.4 0.300006 6.3L-1.2207e-05 6C1.59999 4 3.30001 2 4.90001 -3.05176e-06C5.10001 0.199997 5.29999 0.399997 5.49999 0.499997Z" transform="translate(63.8 85.8)" fill="black"/>
<path fill-rule="evenodd" clip-rule="evenodd" d="M0.300006 -6.10352e-06C2.60001 1.29999 5.00001 2.59999 7.30001 3.99999L6.99999 4.39999C4.69999 3.09999 2.29999 1.69999 -1.2207e-05 0.399988L0.300006 -6.10352e-06Z" transform="translate(104.8 371)" fill="black"/>
<path fill-rule="evenodd" clip-rule="evenodd" d="M3.29999 2.4C3.09999 2.8 3 2.99999 2.9 3.19999C1.9 2.39999 0.900006 1.49999 6.10352e-06 0.699988C6.10352e-06 0.699988 0.3 0.200006 0.4 6.10352e-06C1.4 0.800006 2.29999 1.6 3.29999 2.4Z" transform="translate(83.6 339.2)" fill="black"/>
<path fill-rule="evenodd" clip-rule="evenodd" d="M6.10352e-06 4.1C2.30001 2.8 4.60001 1.4 7.00001 0.0999985L6.9 0C4.6 1.3 2.20001 2.6 6.10352e-06 4.1Z" transform="translate(112.1 46.1)" fill="black"/>
<path fill-rule="evenodd" clip-rule="evenodd" d="M6.90001 -3.05176e-06C4.60001 0.299997 2.39999 0.599998 0.0999939 0.899998C0.0999939 0.599998 0.0999878 0.400003 -1.2207e-05 0.100003C2.39999 3.04729e-06 4.70001 -3.05176e-06 6.90001 -3.05176e-06Z" transform="translate(182.3 19.3)" fill="black"/>
<path fill-rule="evenodd" clip-rule="evenodd" d="M1.69999 0.741423C1.19999 0.541423 0.600012 0.341424 1.2207e-05 0.141424C0.600012 0.0414244 1.30001 -0.0585817 1.90001 0.0414183C2.50001 0.141418 3.1 0.341418 3.8 0.541418C3.1 0.641418 2.49999 0.641423 1.69999 0.741423Z" transform="translate(222.7 14.2586)" fill="black"/>
<path fill-rule="evenodd" clip-rule="evenodd" d="M6.10352e-06 0.2C0.700006 1.6 1.49999 2.90001 2.19999 4.30001C1.89999 4.40001 1.59999 4.49999 1.29999 4.59999C0.899994 3.09999 0.500012 1.59999 0.100012 -1.2207e-05L6.10352e-06 0.2Z" transform="translate(27.1 290.9)" fill="black"/>
<path fill-rule="evenodd" clip-rule="evenodd" d="M2.26726 1.10001C1.66726 1.60001 0.967265 2.2 0.267265 2.8C0.167265 2.5 -0.132717 1.99999 0.0672831 1.89999C0.667283 1.19999 1.36728 0.6 2.06728 0C2.16728 0.3 2.16726 0.500006 2.26726 1.10001Z" transform="translate(51.0327 78.1)" fill="black"/>
<path fill-rule="evenodd" clip-rule="evenodd" d="M2.02501 1.29999C1.92501 1.59999 1.82499 1.8 1.72499 2C1.22499 1.6 0.625012 1.29999 0.125012 0.799988C-0.0749878 0.699988 0.0250061 0.3 0.0250061 0C0.725006 0.4 1.32501 0.899988 2.02501 1.29999Z" transform="translate(77.575 351.1)" fill="black"/>
<path fill-rule="evenodd" clip-rule="evenodd" d="M1.7 0C2.5 0.1 3.1 0.199994 3.7 0.399994C3.1 0.599994 2.50001 0.899994 1.80001 0.899994C1.20001 0.899994 0.599988 0.6 -1.2207e-05 0.5C0.699988 0.3 1.3 0.2 1.7 0Z" transform="translate(184.8 388.1)" fill="black"/>
<path fill-rule="evenodd" clip-rule="evenodd" d="M1.40001 0.800002C0.900006 0.700002 0.400012 0.6 1.2207e-05 0.4C0.500012 0.3 1.09999 -1.52588e-06 1.59999 -1.52588e-06C2.09999 -1.52588e-06 2.69999 0.2 3.19999 0.4C2.69999 0.6 2.00001 0.700002 1.40001 0.800002Z" transform="translate(182.2 14.2)" fill="black"/>
<path fill-rule="evenodd" clip-rule="evenodd" d="M3.90001 3.09999C2.60001 2.29999 1.30001 1.49999 1.2207e-05 0.599994C0.100012 0.399994 0.300006 0.199988 0.400006 -1.2207e-05C1.50001 1.09999 2.60001 2.19999 3.90001 3.09999Z" transform="translate(90.2 344.9)" fill="black"/>
<path fill-rule="evenodd" clip-rule="evenodd" d="M6.2 0.300006C4.1 0.300006 1.99999 0.300006 -1.2207e-05 0.300006C-1.2207e-05 0.300006 -1.2207e-05 0.0999878 -1.2207e-05 -1.2207e-05C1.99999 0.199988 4.1 0.300006 6.2 0.300006Z" transform="translate(181.3 385.4)" fill="black"/>
<path fill-rule="evenodd" clip-rule="evenodd" d="M6.10352e-06 1.49999C0.200006 0.899994 0.3 0.499994 0.4 -6.10352e-06C0.5 0.599994 0.699988 1.19999 0.699988 1.89999C0.699988 2.29999 0.5 2.80001 0.4 3.20001C0.3 2.70001 0.100006 1.99999 6.10352e-06 1.49999Z" transform="translate(11.1 218.5)" fill="black"/>
<path fill-rule="evenodd" clip-rule="evenodd" d="M6.10352e-06 -1.2207e-05C0.200006 2.49999 0.400012 4.99999 0.600012 7.49999L0.699988 7.40001C0.599988 4.90001 0.300006 2.39999 6.10352e-06 -1.2207e-05Z" transform="translate(19.1 227.9)" fill="black"/>
<path fill-rule="evenodd" clip-rule="evenodd" d="M0.300012 -1.2207e-05C1.90001 0.999988 3.60001 2.09999 5.20001 3.09999L4.89999 3.40001C3.29999 2.40001 1.59999 1.30001 -6.10352e-06 0.300006L0.300012 -1.2207e-05Z" transform="translate(99.9 367.9)" fill="black"/>
<path fill-rule="evenodd" clip-rule="evenodd" d="M1.22726 1.10001C1.22726 1.20001 1.12725 1.4 1.12725 1.5C0.727254 1.2 0.327248 0.900006 0.0272481 0.600006C-0.0727519 0.500006 0.12726 0.2 0.22726 0C0.52726 0.3 0.82726 0.700006 1.22726 1.10001Z" transform="translate(67.3727 341.6)" fill="black"/>
<path fill-rule="evenodd" clip-rule="evenodd" d="M1.50001 0.8C0.900006 0.7 0.500006 0.600012 6.10352e-06 0.500012C0.500006 0.300012 1.00001 0.100012 1.50001 1.2207e-05C1.90001 1.2207e-05 2.39999 0.0999939 2.79999 0.199994C2.39999 0.399994 1.90001 0.6 1.50001 0.8Z" transform="translate(226.1 385.3)" fill="black"/>
<path fill-rule="evenodd" clip-rule="evenodd" d="M0.400012 1.2207e-05C0.400012 0.900012 0.499988 1.49999 0.499988 2.19999C0.499988 2.29999 0.199988 2.30001 -1.2207e-05 2.40001C-1.2207e-05 1.90001 -1.2207e-05 1.40001 -1.2207e-05 1.00001C-1.2207e-05 0.600012 0.200012 0.400012 0.400012 1.2207e-05Z" transform="translate(7.29999 221.3)" fill="black"/>
<path fill-rule="evenodd" clip-rule="evenodd" d="M0.500012 2.50001C0.200012 2.20001 1.2207e-05 2 1.2207e-05 1.9C1.2207e-05 1.3 0.0999939 0.700006 0.199994 6.10352e-06C0.299994 0.200006 0.499988 0.300006 0.599988 0.500006C0.599988 1.10001 0.500012 1.70001 0.500012 2.50001Z" transform="translate(5.20001 222.7)" fill="black"/>
<path fill-rule="evenodd" clip-rule="evenodd" d="M2.4 3.7C1.6 2.6 0.800006 1.40001 6.10352e-06 0.300006C0.200006 0.200006 0.400012 0.0999878 0.600012 -1.2207e-05C1.20001 1.19999 1.8 2.5 2.4 3.7Z" transform="translate(42.6 299.4)" fill="black"/>
<path fill-rule="evenodd" clip-rule="evenodd" d="M0.2 -1.2207e-05C0.2 0.399988 0.300006 0.699988 0.300006 0.999988C0.300006 1.29999 0.0999878 1.60001 -1.2207e-05 1.90001C-1.2207e-05 1.60001 -1.2207e-05 1.30001 -1.2207e-05 0.900012C0.0999878 0.600012 0.2 0.299988 0.2 -1.2207e-05Z" transform="translate(6.29999 204.4)" fill="black"/>
<path fill-rule="evenodd" clip-rule="evenodd" d="M6.10352e-06 0.200002C0.600006 0.100002 1.10001 -3.05176e-06 1.60001 -3.05176e-06C1.90001 -3.05176e-06 2.1 0.199998 2.4 0.399998C1.9 0.499998 1.50001 0.600002 1.00001 0.700002C0.700006 0.600002 0.400006 0.400002 6.10352e-06 0.200002Z" transform="translate(174.6 15.3)" fill="black"/>
<path fill-rule="evenodd" clip-rule="evenodd" d="M3.59999 1C3.09999 0.800002 2.7 0.700002 2.2 0.500002C1.5 0.300002 0.799988 0.200002 -1.2207e-05 1.52588e-06C0.799988 1.52588e-06 1.60001 0 2.30001 0.1C2.80001 0.3 3.19999 0.700002 3.59999 1Z" transform="translate(231.8 15.5)" fill="black"/>
<path fill-rule="evenodd" clip-rule="evenodd" d="M2.6 1.89999C2.1 1.79999 1.60001 1.69999 1.20001 1.39999C0.700006 0.999994 0.399994 0.5 -6.10352e-06 0C0.499994 0.2 1.1 0.399988 1.6 0.799988C2 1.09999 2.2 1.59999 2.6 1.89999Z" transform="translate(83.4 356.1)" fill="black"/>
<path fill-rule="evenodd" clip-rule="evenodd" d="M0 6.10352e-06C1 1.30001 2 2.60001 3 4.00001L3.10001 3.9C2.00001 2.5 1 1.20001 0 6.10352e-06Z" transform="translate(59 312.2)" fill="black"/>
<path fill-rule="evenodd" clip-rule="evenodd" d="M-6.10352e-06 0C0.399994 0.2 0.900006 0.400012 1.20001 0.700012C1.70001 1.30001 1.90001 2.00001 2.30001 2.60001C1.70001 2.20001 1 1.80001 0.6 1.20001C0.3 0.900012 0.299994 0.4 -6.10352e-06 0Z" transform="translate(61.9 316.1)" fill="black"/>
<path fill-rule="evenodd" clip-rule="evenodd" d="M0.500006 1C0.300006 0.8 0.100006 0.499988 6.10352e-06 0.299988C6.10352e-06 0.199988 0.100012 0.1 0.100012 0C0.300012 0.2 0.499988 0.500012 0.699988 0.700012C0.699988 0.700012 0.600006 0.9 0.500006 1Z" transform="translate(54.1 332.6)" fill="black"/>
<path fill-rule="evenodd" clip-rule="evenodd" d="M2.44141e-05 3.10001C0.800024 2.20001 1.50001 1.19999 2.30001 0.299988C2.90001 0.199988 3.59998 0.1 4.19998 0C2.79998 1 1.40002 2.00001 2.44141e-05 3.10001Z" transform="translate(311.9 352.1)" fill="black"/>
<path fill-rule="evenodd" clip-rule="evenodd" d="M2.00001 1.24443C1.50001 1.14443 1.20001 1.24446 1.00001 1.14446C0.600006 0.844457 0.400006 0.444451 6.10352e-06 0.0444505C0.300006 0.0444505 0.800006 -0.0555495 1.00001 0.0444505C1.40001 0.244451 1.60001 0.744432 2.00001 1.24443Z" transform="translate(75.1 358.156)" fill="black"/>
<path fill-rule="evenodd" clip-rule="evenodd" d="M-6.10352e-06 0C1.29999 1 2.69999 2 3.99999 3L4.1 2.89999C2.8 1.89999 1.39999 0.9 -6.10352e-06 0Z" transform="translate(85.9 358.1)" fill="black"/>
<path fill-rule="evenodd" clip-rule="evenodd" d="M2.5 2.09999C1.9 1.89999 1.20001 1.80001 0.700012 1.40001C0.300012 1.10001 0.2 0.399988 0 -1.2207e-05C0.4 0.199988 0.899988 0.4 1.29999 0.7C1.69999 1.1 2.1 1.69999 2.5 2.09999Z" transform="translate(80.5 361.9)" fill="black"/>
<path fill-rule="evenodd" clip-rule="evenodd" d="M4.1 3C2.8 2 1.4 1 0.1 0L-6.10352e-06 0.100006C1.39999 1.00001 2.7 2 4.1 3Z" transform="translate(89.9 361.1)" fill="black"/>
<path fill-rule="evenodd" clip-rule="evenodd" d="M-6.10352e-06 0C1.39999 1 2.7 2 4.1 3L4.20001 2.89999C2.80001 1.99999 1.49999 1 -6.10352e-06 0Z" transform="translate(82.9 364.1)" fill="black"/>
<path fill-rule="evenodd" clip-rule="evenodd" d="M0.0999878 1.7C0.399988 1.4 0.600012 0.899997 1.00001 0.699997C1.70001 0.399997 2.39999 0.3 3.09999 0C2.49999 0.4 2.00001 0.899997 1.40001 1.2C1.00001 1.4 0.500012 1.4 1.2207e-05 1.5L0.0999878 1.7Z" transform="translate(131.2 26.6)" fill="black"/>
<path fill-rule="evenodd" clip-rule="evenodd" d="M3.30001 -1.52588e-06C2.90001 0.199998 2.5 0.600003 2.1 0.700003C1.4 0.900003 0.699994 1 -6.10352e-06 1.2C0.699994 0.800003 1.29999 0.399997 1.99999 0.0999969C2.39999 -0.100003 2.99999 0.0999969 3.39999 0.0999969L3.30001 -1.52588e-06Z" transform="translate(127.9 28.2)" fill="black"/>
<path fill-rule="evenodd" clip-rule="evenodd" d="M1.9 0.185588C1.3 0.585588 0.800024 0.885588 0.300024 1.18559C0.300024 1.18559 0.0999756 0.885563 -2.44141e-05 0.785563C0.399976 0.585563 0.699988 0.285582 1.19999 0.0855816C1.29999 -0.114418 1.6 0.0855877 1.9 0.185588Z" transform="translate(277.6 373.614)" fill="black"/>
<path fill-rule="evenodd" clip-rule="evenodd" d="M-1.2207e-05 -1.2207e-05C0.199988 -1.2207e-05 0.299988 0.0999939 0.499988 0.0999939C1.59999 0.299994 2.70001 0.399994 3.80001 0.599994C3.70001 0.699994 3.7 0.999988 3.7 0.999988C2.5 0.699988 1.3 0.299988 0.2 -1.2207e-05H-1.2207e-05Z" transform="translate(172.3 383.9)" fill="black"/>
<path fill-rule="evenodd" clip-rule="evenodd" d="M1.9 0.900012C1.7 1.10001 1.5 1.30001 1.4 1.30001C0.9 1.10001 0.500012 0.899994 0.100012 0.599994C1.22041e-05 0.499994 0.100006 0.199988 6.10352e-06 -1.2207e-05C0.700006 0.299988 1.3 0.600012 1.9 0.900012Z" transform="translate(124.6 385.4)" fill="black"/>
<path fill-rule="evenodd" clip-rule="evenodd" d="M6.10352e-06 1.9C0.300006 1.4 0.600006 0.799998 1.00001 0.399998C1.40001 0.0999985 2.00001 0.0999969 2.50001 -3.05176e-06C2.20001 0.299997 1.90001 0.799997 1.60001 0.999997C1.10001 1.3 0.500006 1.5 6.10352e-06 1.9Z" transform="translate(97.1 50.3)" fill="black"/>
<path fill-rule="evenodd" clip-rule="evenodd" d="M1.42724 0.32012C0.927242 0.62012 0.62726 0.92013 0.22726 1.22013C0.12726 1.02013 -0.0727519 0.620133 0.0272481 0.520133C0.227248 0.320133 0.527266 0.120133 0.827266 0.0201326C0.927266 -0.0798674 1.12724 0.22012 1.42724 0.32012Z" transform="translate(89.3727 65.1799)" fill="black"/>
<path fill-rule="evenodd" clip-rule="evenodd" d="M0.0999939 1.50001C0.0999939 1.10001 -1.2207e-05 0.800006 -1.2207e-05 0.500006C-1.2207e-05 0.300006 0.200012 0.200006 0.400012 6.10352e-06C0.400012 0.300006 0.499988 0.6 0.499988 0.9C0.399988 1 0.199994 1.20001 0.0999939 1.50001Z" transform="translate(7.29999 187.2)" fill="black"/>
<path fill-rule="evenodd" clip-rule="evenodd" d="M0.141415 1.60001C0.0414153 1.20001 -0.0585909 0.8 0.0414091 0.5C0.0414091 0.3 0.341434 0.2 0.441434 0C0.441434 0.3 0.541409 0.599994 0.541409 0.899994C0.441409 1.19999 0.241415 1.40001 0.141415 1.60001Z" transform="translate(8.25858 231.1)" fill="black"/>
<path fill-rule="evenodd" clip-rule="evenodd" d="M0.0999939 1.59999C0.0999939 0.999994 -1.2207e-05 0.499994 -1.2207e-05 0.0999939C-1.2207e-05 0.0999939 0.299988 -1.2207e-05 0.499988 -1.2207e-05C0.499988 0.299988 0.599988 0.600012 0.499988 0.900012C0.399988 1.10001 0.299994 1.29999 0.0999939 1.59999Z" transform="translate(6.29999 232.4)" fill="black"/>
<path fill-rule="evenodd" clip-rule="evenodd" d="M6.10352e-06 6.10352e-06C0.400006 0.200006 0.999988 0.399988 1.19999 0.699988C1.59999 1.39999 1.70001 2.1 2.00001 2.9C1.60001 2.3 1.19999 1.79999 0.799994 1.19999C0.399994 0.799988 0.200006 0.300006 6.10352e-06 6.10352e-06Z" transform="translate(15.6 265.7)" fill="black"/>
<path fill-rule="evenodd" clip-rule="evenodd" d="M1.59999 2.04446C0.999994 1.64446 0.799994 1.54444 0.599994 1.34444C0.399994 0.944444 0.199988 0.544457 -1.2207e-05 0.0444567C0.199988 0.0444567 0.499988 -0.0555433 0.499988 0.0444567C0.899988 0.544457 1.09999 1.14446 1.59999 2.04446Z" transform="translate(28.3 268.756)" fill="black"/>
<path fill-rule="evenodd" clip-rule="evenodd" d="M6.10352e-06 0.927256C0.300006 0.627256 0.600006 0.127254 1.00001 0.0272542C1.50001 -0.0727458 2.00001 0.127251 2.60001 0.227251C2.20001 0.327251 1.69999 0.427254 1.29999 0.527254C0.799994 0.527254 0.400006 0.727256 6.10352e-06 0.927256Z" transform="translate(167.6 16.5728)" fill="black"/>
<path fill-rule="evenodd" clip-rule="evenodd" d="M-6.10352e-06 0.200002C0.499994 0.100002 0.899988 -3.05176e-06 1.39999 -3.05176e-06C2.09999 -3.05176e-06 2.9 0.100002 3.6 0.200002C2.9 0.300002 2.19999 0.3 1.49999 0.3C0.999994 0.4 0.499994 0.300002 -6.10352e-06 0.200002Z" transform="translate(235.4 16.3)" fill="black"/>
<path fill-rule="evenodd" clip-rule="evenodd" d="M0.599988 0.899988C0.399988 0.999988 0.299988 1.20001 0.0999878 1.30001C0.0999878 1.10001 1.2207e-05 1.00001 1.2207e-05 0.800012C0.100012 0.500012 0.2 0.299994 0.3 -6.10352e-06C0.4 0.299994 0.499988 0.599988 0.599988 0.899988Z" transform="translate(12.2 229)" fill="black"/>
<path fill-rule="evenodd" clip-rule="evenodd" d="M1.50001 2.49999C1.10001 2.29999 0.700006 2.10001 0.500006 1.70001C0.200006 1.20001 0.100006 0.599994 6.10352e-06 -6.10352e-06C0.400006 0.399994 0.899988 0.7 1.19999 1.1C1.29999 1.6 1.30001 2.09999 1.50001 2.49999Z" transform="translate(37.6 289.5)" fill="black"/>
<path fill-rule="evenodd" clip-rule="evenodd" d="M0.499994 0.541424C0.299994 0.441424 0.199994 0.241423 -6.10352e-06 0.141423C0.299994 0.0414229 0.599988 -0.0585756 0.899988 0.0414244C1.09999 0.0414244 1.19999 0.241418 1.39999 0.441418C1.09999 0.441418 0.799994 0.441424 0.499994 0.541424Z" transform="translate(174.9 20.3586)" fill="black"/>
<path fill-rule="evenodd" clip-rule="evenodd" d="M2.60001 1.5C1.70001 1.2 0.9 0.900006 0 0.600006C0.1 0.400006 0.199994 0.2 0.399994 0C1.09999 0.5 1.80001 1 2.60001 1.5Z" transform="translate(128.5 369.6)" fill="black"/>
<path fill-rule="evenodd" clip-rule="evenodd" d="M5.19999 0.900012C3.49999 0.600012 1.79999 0.299988 0.0999878 -1.2207e-05L1.2207e-05 0.0999939C1.70001 0.399994 3.39999 0.699988 5.09999 0.999988L5.19999 0.900012Z" transform="translate(167.2 382.9)" fill="black"/>
<path fill-rule="evenodd" clip-rule="evenodd" d="M1.50001 2.29999C1.10001 2.09999 0.600006 1.90001 0.400006 1.60001C0.100006 1.10001 0.100012 0.500006 1.2207e-05 6.10352e-06C0.300012 0.400006 0.700006 0.700012 0.900006 1.10001C1.10001 1.50001 1.30001 2.00001 1.40001 2.50001L1.50001 2.29999Z" transform="translate(25.7 288.7)" fill="black"/>
<path fill-rule="evenodd" clip-rule="evenodd" d="M1.60001 0.500012C1.00001 0.500012 0.500006 0.599988 0.100006 0.599988C0.100006 0.599988 0 0.299988 0 0.0999878C0.3 0.0999878 0.599994 1.2207e-05 0.899994 1.2207e-05C1.09999 1.2207e-05 1.30001 0.300012 1.60001 0.500012Z" transform="translate(234 384.3)" fill="black"/>
<path fill-rule="evenodd" clip-rule="evenodd" d="M0.699994 6.10352e-06C0.999994 0.100006 1.29999 0.300006 1.59999 0.500006C1.29999 0.600006 1 0.699988 0.8 0.699988C0.5 0.699988 0.300012 0.500006 1.2207e-05 0.500006C0.200012 0.300006 0.399994 0.200006 0.699994 6.10352e-06Z" transform="translate(171.7 386.2)" fill="black"/>
<path fill-rule="evenodd" clip-rule="evenodd" d="M2.30001 0.400006C1.70001 0.500006 1.30001 0.599988 0.800012 0.599988C0.500012 0.599988 0.299994 0.399994 -6.10352e-06 0.199994C0.399994 0.0999939 0.900012 1.2207e-05 1.30001 1.2207e-05C1.70001 1.2207e-05 1.90001 0.200006 2.30001 0.400006Z" transform="translate(177.4 387.3)" fill="black"/>
<path fill-rule="evenodd" clip-rule="evenodd" d="M0 0C0.2 0.2 0.600012 0.400006 0.700012 0.600006C1.00001 1.30001 1.09999 1.90001 1.29999 2.60001C0.899988 2.00001 0.400006 1.39999 0.100006 0.799988C-0.0999939 0.599988 0.1 0.2 0 0Z" transform="translate(39 292.1)" fill="black"/>
<path fill-rule="evenodd" clip-rule="evenodd" d="M1.7 0C1.2 0.4 0.800006 0.799997 0.300006 1.2C0.200006 0.999997 0.0999878 0.799998 -1.2207e-05 0.599998C0.599988 0.399998 1.2 0.2 1.7 0Z" transform="translate(110.3 50.1)" fill="black"/>
<path fill-rule="evenodd" clip-rule="evenodd" d="M0.227248 -1.2207e-05C0.427248 0.199988 0.627248 0.399994 0.727248 0.599994C0.727248 0.899994 0.627266 1.20001 0.527266 1.40001C0.327266 1.20001 0.127266 1.10001 0.0272665 0.900012C-0.0727335 0.600012 0.127248 0.299988 0.227248 -1.2207e-05Z" transform="translate(25.1728 258.4)" fill="black"/>
<path fill-rule="evenodd" clip-rule="evenodd" d="M0.0999939 6.10352e-06C0.199994 6.10352e-06 0.400012 0.100012 0.400012 0.100012C0.400012 0.400012 0.400006 0.700006 0.300006 1.00001C0.200006 1.00001 -1.2207e-05 0.9 -1.2207e-05 0.9C-1.2207e-05 0.5 0.0999939 0.300006 0.0999939 6.10352e-06Z" transform="translate(9.29999 237.7)" fill="black"/>
<path fill-rule="evenodd" clip-rule="evenodd" d="M0.599988 0.599988C0.499988 0.599988 0.199994 0.699988 0.199994 0.599988C0.0999939 0.399988 0.100012 0.200012 1.2207e-05 1.2207e-05C0.100012 0.100012 0.300006 0.0999939 0.400006 0.199994C0.500006 0.299994 0.599988 0.499988 0.599988 0.599988Z" transform="translate(46.7 323.3)" fill="black"/>
<path fill-rule="evenodd" clip-rule="evenodd" d="M-1.2207e-05 -1.2207e-05L0.300006 0.2L-1.2207e-05 0.300006V-1.2207e-05Z" transform="translate(49.8 327.4)" fill="black"/>
<path fill-rule="evenodd" clip-rule="evenodd" d="M0 0.199994C0.2 0.899994 0.500012 1.6 0.700012 2.3C0.600012 2.3 0.399988 2.40001 0.299988 2.40001C0.199988 1.60001 0.200006 0.800012 0.100006 1.2207e-05L0 0.199994Z" transform="translate(23 249.8)" fill="black"/>
<path fill-rule="evenodd" clip-rule="evenodd" d="M0.6 0.341427C0.5 0.441427 0.400012 0.541434 0.300012 0.441434C0.200012 0.441434 0.0999939 0.241415 -6.10352e-06 0.141415C0.0999939 0.0414153 0.200012 -0.0585909 0.300012 0.0414091C0.400012 0.141409 0.5 0.341427 0.6 0.341427Z" transform="translate(49.9 332.359)" fill="black"/>
<path fill-rule="evenodd" clip-rule="evenodd" d="M0.399994 6.10352e-06C0.499994 0.200006 0.699988 0.399988 0.799988 0.699988C0.699988 0.699988 0.499994 0.699988 0.399994 0.699988C0.199994 0.499988 0.1 0.300012 0 0.100012C0.1 1.22041e-05 0.199994 6.10352e-06 0.399994 6.10352e-06Z" transform="translate(32.5 302.2)" fill="black"/>
<path fill-rule="evenodd" clip-rule="evenodd" d="M1.2207e-05 6.10352e-06C0.300012 0.500006 0.700012 1.00001 1.00001 1.50001C0.800012 1.30001 0.600006 1.09999 0.400006 0.799994C0.200006 0.499994 0.100012 0.300006 1.2207e-05 6.10352e-06Z" transform="translate(10.7 246.7)" fill="black"/>
<path fill-rule="evenodd" clip-rule="evenodd" d="M0.500012 0.399994C0.400012 0.599994 0.299994 0.900006 0.199994 1.10001C0.0999939 1.00001 1.2207e-05 0.800012 1.2207e-05 0.700012C1.2207e-05 0.400012 0.2 0.2 0.3 0C0.4 0.1 0.500012 0.199994 0.500012 0.399994Z" transform="translate(15.2 246.6)" fill="black"/>
<path fill-rule="evenodd" clip-rule="evenodd" d="M0.300006 2.20001C0.300006 1.90001 0.300006 1.60001 0.300006 1.30001C0.200006 0.900012 0.0999878 0.399994 -1.2207e-05 -6.10352e-06C0.199988 -6.10352e-06 0.299988 -6.10352e-06 0.499988 -6.10352e-06C0.499988 0.499994 0.400012 0.899988 0.400012 1.39999C0.300012 1.59999 0.400006 1.90001 0.300006 2.20001Z" transform="translate(10.3 244.5)" fill="black"/>
<path fill-rule="evenodd" clip-rule="evenodd" d="M0.228 -1.2207e-05C0.328 0.299988 0.527988 0.500006 0.527988 0.800006C0.527988 1.00001 0.327994 1.10001 0.127994 1.30001C0.127994 1.20001 -0.0720122 1.00001 0.0279878 0.900012C0.0279878 0.600012 0.128 0.399988 0.228 -1.2207e-05Z" transform="translate(14.272 241.4)" fill="black"/>
<path fill-rule="evenodd" clip-rule="evenodd" d="M1.80002 1.69999C1.20002 1.79999 0.599976 1.8 -2.44141e-05 1.9C0.999976 1.3 1.9 0.700006 2.9 6.10352e-06C2.5 0.600006 2.10002 1.19999 1.80002 1.69999Z" transform="translate(317.1 346.2)" fill="black"/>
<path fill-rule="evenodd" clip-rule="evenodd" d="M0.499988 0.900006C0.399988 1.00001 0.300006 1.2 0.300006 1.3C0.200006 1 -1.2207e-05 0.800012 -1.2207e-05 0.500012C-1.2207e-05 0.400012 0.300012 0.200012 0.400012 1.2207e-05C0.400012 0.400012 0.399988 0.600006 0.499988 0.900006Z" transform="translate(13.3 236.3)" fill="black"/>
<path fill-rule="evenodd" clip-rule="evenodd" d="M1.70001 1.60001C1.10001 1.70001 0.6 1.8 0 1.9C1 1.3 1.90002 0.600006 2.90002 6.10352e-06C2.50002 0.500006 2.10001 1.10001 1.70001 1.60001Z" transform="translate(312 350.2)" fill="black"/>
<path fill-rule="evenodd" clip-rule="evenodd" d="M0 0C0.5 0.5 1.00001 1.00001 1.60001 1.60001C1.50001 1.70001 1.40001 1.79999 1.20001 1.89999C0.800012 1.19999 0.4 0.6 0 0Z" transform="translate(54 305.1)" fill="black"/>
<path fill-rule="evenodd" clip-rule="evenodd" d="M-1.2207e-05 0.2L0.2 -1.2207e-05L0.300006 0.300006L-1.2207e-05 0.2Z" transform="translate(77.3 355.9)" fill="black"/>
<path fill-rule="evenodd" clip-rule="evenodd" d="M0.1 -1.2207e-05L0.200006 0.499988L-6.10352e-06 0.400012L0.1 -1.2207e-05Z" transform="translate(14.4 225.9)" fill="black"/>
<path fill-rule="evenodd" clip-rule="evenodd" d="M1.2 0C0.8 0.5 0.399988 1.10001 -1.2207e-05 1.60001C0.399988 1.10001 0.8 0.6 1.2 0Z" transform="translate(306.8 355.1)" fill="black"/>
<path fill-rule="evenodd" clip-rule="evenodd" d="M2.44141e-05 2.10001C1.10002 1.40001 2.09998 0.7 3.19998 0C2.09998 0.7 1.10002 1.40001 2.44141e-05 2.10001Z" transform="translate(308.9 355.1)" fill="black"/>
<path fill-rule="evenodd" clip-rule="evenodd" d="M2.60001 0.0750015C2.30001 0.0750015 2.00001 0.175 1.70001 0.175C1.10001 0.175 0.6 0.175 0 0.175C0.6 0.175 1.20001 0.0750015 1.70001 0.0750015C2.00001 -0.0249985 2.30001 -0.0249985 2.60001 0.0750015Z" transform="translate(165 17.425)" fill="black"/>
<path fill-rule="evenodd" clip-rule="evenodd" d="M1.20001 0.299988C1.80001 0.199988 2.4 0.1 3 0C2 0.7 1 1.4 0 2L0.0999756 2.10001C0.499976 1.50001 0.900012 0.899988 1.20001 0.299988Z" transform="translate(306 357.1)" fill="black"/>
<path fill-rule="evenodd" clip-rule="evenodd" d="M0.841415 0.9C0.541415 0.8 0.241427 0.700012 0.0414275 0.600012C-0.0585725 0.500012 0.0414336 0.200006 0.141434 6.10352e-06C0.241434 0.100006 0.441427 0.0999878 0.541427 0.199988C0.741427 0.399988 0.741415 0.6 0.841415 0.9Z" transform="translate(35.5586 307.2)" fill="black"/>
<path fill-rule="evenodd" clip-rule="evenodd" d="M1.69998 0C1.19998 0.4 0.800012 0.799988 0.300012 1.29999C0.200012 1.09999 0.100024 0.900012 2.44141e-05 0.700012C0.600024 0.500012 1.19998 0.3 1.69998 0Z" transform="translate(304.4 359.1)" fill="black"/>
<path fill-rule="evenodd" clip-rule="evenodd" d="M0.1 0.799994C0 0.599994 -6.10352e-06 0.399994 -6.10352e-06 0.299994C-6.10352e-06 0.199994 0.100006 0.100006 0.200006 6.10352e-06C0.100006 0.300006 0.1 0.499994 0.1 0.799994Z" transform="translate(13.4 212.7)" fill="black"/>
<path fill-rule="evenodd" clip-rule="evenodd" d="M1.90001 0.899997C1.30001 0.799997 0.599988 0.600003 -1.2207e-05 0.500003C0.0999878 0.300003 0.199976 0.200003 0.299976 3.05176e-06C0.799976 0.300003 1.29998 0.700003 1.79998 1L1.90001 0.899997Z" transform="translate(243.8 17.4)" fill="black"/>
<path fill-rule="evenodd" clip-rule="evenodd" d="M1.6 1.8C1.1 1.3 0.599994 0.799994 -6.10352e-06 0.199994C0.0999939 0.0999939 0.299988 1.2207e-05 0.399988 1.2207e-05C0.799988 0.600012 1.2 1.2 1.6 1.8Z" transform="translate(57.4 310.3)" fill="black"/>
<path fill-rule="evenodd" clip-rule="evenodd" d="M-6.10352e-06 0C0.999994 0.7 1.99999 1.3 2.99999 2L3.1 1.89999C2.1 1.29999 1.09999 0.6 -6.10352e-06 0Z" transform="translate(93.9 364.1)" fill="black"/>
<path fill-rule="evenodd" clip-rule="evenodd" d="M0.7 0.399994C0.5 0.499994 0.299988 0.699988 -1.2207e-05 0.799988C-1.2207e-05 0.699988 -1.2207e-05 0.499994 -1.2207e-05 0.399994C0.199988 0.199994 0.400024 0.1 0.600024 0C0.700024 0.1 0.7 0.299994 0.7 0.399994Z" transform="translate(294.3 365.6)" fill="black"/>
<path fill-rule="evenodd" clip-rule="evenodd" d="M2.99999 2.10001C1.99999 1.40001 1.1 0.7 0.1 0L-6.10352e-06 0.100006C1.09999 0.700006 2.10001 1.29999 3.20001 1.79999C3.30001 1.79999 2.99999 2.10001 2.99999 2.10001Z" transform="translate(96.9 366.1)" fill="black"/>
<path fill-rule="evenodd" clip-rule="evenodd" d="M0.300012 0.4C0.300012 0.5 0.200006 0.599994 0.200006 0.799994C0.100006 0.699994 -6.10352e-06 0.600006 -6.10352e-06 0.500006C-6.10352e-06 0.300006 0.200012 0.200006 0.300012 6.10352e-06C0.200012 0.200006 0.300012 0.3 0.300012 0.4Z" transform="translate(8.39999 178.7)" fill="black"/>
<path fill-rule="evenodd" clip-rule="evenodd" d="M1.19999 0.399998C0.799988 0.499998 0.499988 0.600003 0.199988 0.600003C0.0999878 0.600003 6.10352e-06 0.200003 6.10352e-06 0.100003C0.200006 0.100003 0.300006 -3.05176e-06 0.500006 -3.05176e-06C0.700006 0.0999969 0.899988 0.199998 1.19999 0.399998Z" transform="translate(159.6 18.3)" fill="black"/>
<path fill-rule="evenodd" clip-rule="evenodd" d="M3.9 1.2C2.6 0.800001 1.40001 0.399997 0.100012 -3.05176e-06L-2.44141e-05 0.100003C1.29998 0.500003 2.5 0.800001 3.9 1.2Z" transform="translate(245.6 18.3)" fill="black"/>
<path fill-rule="evenodd" clip-rule="evenodd" d="M0.799994 3.05176e-06C0.699994 0.100003 0.700012 0.399997 0.600012 0.399997C0.400012 0.399997 0.200006 0.400006 6.10352e-06 0.300006C0.100006 0.200006 0.2 0.100003 0.4 3.05176e-06C0.5 3.05176e-06 0.699994 3.05176e-06 0.799994 3.05176e-06Z" transform="translate(39.6 95.4)" fill="black"/>
<path fill-rule="evenodd" clip-rule="evenodd" d="M2.5 0C2.4 0.6 2.39999 1.19999 2.29999 1.79999C1.49999 2.19999 0.7 2.6 0 3C0.8 2.1 1.6 1 2.5 0Z" transform="translate(351.5 309.1)" fill="black"/>
<path fill-rule="evenodd" clip-rule="evenodd" d="M0.727988 0C0.727988 0.2 0.927994 0.499997 0.827994 0.699997C0.627994 0.899997 0.328012 0.999997 0.128012 1.2C0.128012 0.999997 -0.0719939 0.6 0.0280061 0.5C0.128006 0.2 0.427988 0.1 0.727988 0Z" transform="translate(44.572 88.1)" fill="black"/>
<path fill-rule="evenodd" clip-rule="evenodd" d="M1 0.300006C0.7 0.300006 0.399976 0.400012 0.0999756 0.400012C0.0999756 0.400012 0 0.199994 0 0.0999939C0.3 0.0999939 0.600024 -1.2207e-05 0.900024 -1.2207e-05C0.900024 -1.2207e-05 0.9 0.200006 1 0.300006Z" transform="translate(252.5 380.4)" fill="black"/>
<path fill-rule="evenodd" clip-rule="evenodd" d="M0.699988 0C0.699988 0.1 0.799994 0.300002 0.799994 0.400002C0.599994 0.600002 0.400012 0.800002 0.100012 0.900002C0.100012 0.800002 6.10352e-06 0.6 6.10352e-06 0.5C0.300006 0.3 0.499988 0.1 0.699988 0Z" transform="translate(112.1 36.6)" fill="black"/>
<path fill-rule="evenodd" clip-rule="evenodd" d="M-1.2207e-05 -1.2207e-05C1.29999 0.399988 2.60001 0.8 3.90001 1.2L3.99999 1.09999C2.69999 0.699994 1.39999 0.299988 0.0999939 -1.2207e-05H-1.2207e-05Z" transform="translate(163.3 381.9)" fill="black"/>
<path fill-rule="evenodd" clip-rule="evenodd" d="M2.44141e-05 0.0999939C0.300024 0.0999939 0.599988 -1.2207e-05 0.899988 -1.2207e-05C0.999988 -1.2207e-05 1 0.200006 1.1 0.300006C0.8 0.400006 0.499976 0.400012 0.199976 0.400012C0.199976 0.400012 0.100024 0.199994 2.44141e-05 0.0999939Z" transform="translate(244.4 382.4)" fill="black"/>
<path fill-rule="evenodd" clip-rule="evenodd" d="M2.44141e-05 1.52588e-06C1.60002 0.100002 3.20001 0.300003 4.80001 0.400003L4.89999 0.299997C3.29999 0.199997 1.70002 0.100002 2.44141e-05 1.52588e-06Z" transform="translate(249.4 19.5)" fill="black"/>
<path fill-rule="evenodd" clip-rule="evenodd" d="M0.899988 0.0999939C0.899988 0.199994 0.900012 0.400012 0.800012 0.400012C0.500012 0.400012 0.200024 0.499988 2.44141e-05 0.499988C2.44141e-05 0.299988 0.1 -1.2207e-05 0.1 -1.2207e-05C0.3 -1.2207e-05 0.599988 -6.10203e-06 0.899988 0.0999939Z" transform="translate(239.9 383.4)" fill="black"/>
<path fill-rule="evenodd" clip-rule="evenodd" d="M0.627242 3.05176e-06C0.727242 0.200003 0.92726 0.6 0.92726 0.7C0.72726 0.9 0.427248 1.1 0.227248 1.2C0.127248 1 -0.0727335 0.699994 0.0272665 0.599994C0.0272665 0.399994 0.327242 0.200003 0.627242 3.05176e-06Z" transform="translate(47.6728 83.9)" fill="black"/>
<path fill-rule="evenodd" clip-rule="evenodd" d="M1.10001 0.399998C0.800006 0.499998 0.500012 0.600003 0.200012 0.600003C0.100012 0.600003 0.1 0.300003 0 0.100003C0.1 0.100003 0.299994 -3.05176e-06 0.399994 -3.05176e-06C0.699994 0.0999969 0.900006 0.199998 1.10001 0.399998Z" transform="translate(148.5 21.3)" fill="black"/>
<path fill-rule="evenodd" clip-rule="evenodd" d="M-6.10352e-06 0.199998L0.200006 1.52588e-06L0.499994 0.199998H-6.10352e-06Z" transform="translate(177.9 23.5)" fill="black"/>
<path fill-rule="evenodd" clip-rule="evenodd" d="M1.29998 0.3C0.999976 0.4 0.799988 0.599988 0.499988 0.599988C0.299988 0.599988 0.199988 0.299994 -1.2207e-05 0.199994C0.0999878 0.0999939 0.300012 1.2207e-05 0.400012 1.2207e-05C0.700012 1.2207e-05 0.999976 0.2 1.29998 0.3Z" transform="translate(247.3 384.3)" fill="black"/>
<path fill-rule="evenodd" clip-rule="evenodd" d="M0.300006 2.4C0.200006 1.6 0.0999878 0.800006 -1.2207e-05 6.10352e-06C0.0999878 0.800006 0.200006 1.7 0.300006 2.4Z" transform="translate(15.3 263.2)" fill="black"/>
<path fill-rule="evenodd" clip-rule="evenodd" d="M-1.2207e-05 0.199994L0.300006 -3.05176e-06L0.2 0.400006L-1.2207e-05 0.199994Z" transform="translate(76.3 62.8)" fill="black"/>
<path fill-rule="evenodd" clip-rule="evenodd" d="M0.92012 0.399994C0.72012 0.599994 0.520114 0.900006 0.320114 1.10001C0.220114 0.900006 -0.0798735 0.6 0.0201265 0.5C0.220127 0.3 0.420139 0.1 0.720139 0C0.820139 0.1 0.92012 0.199994 0.92012 0.399994Z" transform="translate(93.9799 61.6)" fill="black"/>
<path fill-rule="evenodd" clip-rule="evenodd" d="M0.0999878 0.599988C0.799988 0.399988 1.6 0.200012 2.3 1.2207e-05C2.3 0.200012 2.3 0.399988 2.3 0.599988C1.5 0.599988 0.800012 0.500012 1.2207e-05 0.500012L0.0999878 0.599988Z" transform="translate(240.7 385.3)" fill="black"/>
<path fill-rule="evenodd" clip-rule="evenodd" d="M0 0.2C0.1 0.1 0.299994 3.05176e-06 0.399994 3.05176e-06C0.499994 3.05176e-06 0.699994 3.05176e-06 0.899994 3.05176e-06C0.799994 0.100003 0.599994 0.299997 0.399994 0.399997C0.299994 0.399997 0.1 0.3 0 0.2Z" transform="translate(171.5 24.4)" fill="black"/>
<path fill-rule="evenodd" clip-rule="evenodd" d="M1.09999 0.300006C0.899988 0.500006 0.6 0.699997 0.3 0.899997C0.3 0.899997 0.100012 0.699994 1.2207e-05 0.599994C0.200012 0.399994 0.399994 0.200003 0.699994 3.05176e-06C0.699994 3.05176e-06 0.899988 0.200006 1.09999 0.300006Z" transform="translate(98.2 58.4)" fill="black"/>
<path fill-rule="evenodd" clip-rule="evenodd" d="M1.49999 3.05176e-06C1.19999 0.500003 0.899988 1 0.499988 1.5C0.299988 1.4 0.199988 1.19999 -1.2207e-05 1.09999C0.499988 0.799994 0.999994 0.399994 1.59999 0.0999939L1.49999 3.05176e-06Z" transform="translate(102.3 54.9)" fill="black"/>
<path fill-rule="evenodd" clip-rule="evenodd" d="M0.544432 0C0.544432 0.1 0.644438 0.300002 0.644438 0.400002C0.444438 0.600002 0.244432 0.800002 0.0444322 0.900002C0.0444322 0.800002 -0.0555678 0.6 0.0444322 0.5C0.144432 0.3 0.344432 0.2 0.544432 0Z" transform="translate(102.256 42.6)" fill="black"/>
<path fill-rule="evenodd" clip-rule="evenodd" d="M0.0999939 0.999994C0.599994 0.699994 1.09999 0.300002 1.59999 1.52588e-06C1.69999 0.200002 1.70001 0.4 1.80001 0.6C1.20001 0.7 0.599988 0.800003 -1.2207e-05 0.900003L0.0999939 0.999994Z" transform="translate(103.8 54)" fill="black"/>
<path fill-rule="evenodd" clip-rule="evenodd" d="M0.300006 0.1L-1.2207e-05 0.299997L0.2 1.52588e-06L0.300006 0.1Z" transform="translate(107.3 45)" fill="black"/>
<path fill-rule="evenodd" clip-rule="evenodd" d="M0.0999939 0.599997C0.0999939 0.499997 -1.2207e-05 0.400002 -1.2207e-05 0.300002C-1.2207e-05 0.200002 0.200006 0.0999985 0.300006 -1.52588e-06C0.300006 0.0999985 0.400012 0.200002 0.400012 0.300002C0.300012 0.500002 0.199994 0.499997 0.0999939 0.599997Z" transform="translate(96.3 46.7)" fill="black"/>
<path fill-rule="evenodd" clip-rule="evenodd" d="M3 0C2 0.7 1 1.40001 0 2.10001V2C1 1.3 2.1 0.7 3 0Z" transform="translate(94 52.1)" fill="black"/>
<path fill-rule="evenodd" clip-rule="evenodd" d="M4.59999 0.600012C3.09999 0.400012 1.59999 0.200006 0.0999939 6.10352e-06L-1.2207e-05 0.100012C1.49999 0.300012 2.99999 0.499988 4.49999 0.699988L4.59999 0.600012Z" transform="translate(158.8 381.2)" fill="black"/>
<path d="M131.6 263.2C204.281 263.2 263.2 204.281 263.2 131.6C263.2 58.9193 204.281 -6.10352e-06 131.6 -6.10352e-06C58.9193 -6.10352e-06 -6.10352e-06 58.9193 -6.10352e-06 131.6C-6.10352e-06 204.281 58.9193 263.2 131.6 263.2Z" transform="translate(74.4 74.5)" fill="white"/>
</svg>
