<?xml version="1.0" encoding="utf-8"?>
<!-- Generator: Adobe Illustrator 16.0.0, SVG Export Plug-In . SVG Version: 6.00 Build 0)  -->
<!DOCTYPE svg PUBLIC "-//W3C//DTD SVG 1.1//EN" "http://www.w3.org/Graphics/SVG/1.1/DTD/svg11.dtd">
<svg version="1.1" id="Layer_1" xmlns="http://www.w3.org/2000/svg" xmlns:xlink="http://www.w3.org/1999/xlink" x="0px" y="0px"
	 width="43.402px" height="69.604px" viewBox="0 0 43.402 69.604" enable-background="new 0 0 43.402 69.604" xml:space="preserve">
<g>
	<path d="M4.3,45.203c0-6.4-0.6-13.601-0.8-16.901c-0.7,0.5-2.2,2-3.2,2c0.7-7.3,0.2-11.9,0.8-16.101C8.6,5.101,15.401,0,24.201,0
		c11.601,0,19.201,5,19.201,27.602c0,17.301-5.3,37.703-15.801,41.903c-3.1,0.1-5.8,0.1-8.301,0.1c-11.4,0-16.201-0.8-18.701-3.8
		C0.4,60.104,0.4,56.503,0,49.303c1.3,0.2,2.6,0.8,4.1,1.2C4.2,48.903,4.3,47.103,4.3,45.203z M11.4,42.403c0,3.6-0.2,7.1-0.4,9.8
		c2.1,0.5,3.9,0.7,5.6,0.7c12.601,0,18.401-14.701,18.401-23.001c0-6.4-2.5-12.701-8.5-12.701c-4.5,0-11.701,2.4-17.301,7.3
		C10.9,29.802,11.4,36.402,11.4,42.403z"/>
</g>
</svg>
