<?xml version="1.0" encoding="utf-8"?>
<!-- Generator: Adobe Illustrator 16.0.0, SVG Export Plug-In . SVG Version: 6.00 Build 0)  -->
<!DOCTYPE svg PUBLIC "-//W3C//DTD SVG 1.1//EN" "http://www.w3.org/Graphics/SVG/1.1/DTD/svg11.dtd">
<svg version="1.1" id="Layer_1" xmlns="http://www.w3.org/2000/svg" xmlns:xlink="http://www.w3.org/1999/xlink" x="0px" y="0px"
	 width="67.7px" height="86.905px" viewBox="0 0 67.7 86.905" enable-background="new 0 0 67.7 86.905" xml:space="preserve">
<g>
	<path d="M4.3,62.503c0-6.4-0.6-13.601-0.8-16.901c-0.7,0.5-2.2,2-3.2,2c0.7-7.3,0.2-11.9,0.8-16.101
		c7.5-9.1,14.301-14.201,23.102-14.201c11.601,0,19.201,5,19.201,27.602c0,17.301-5.3,37.703-15.801,41.903
		c-3.1,0.1-5.8,0.1-8.301,0.1c-11.4,0-16.201-0.8-18.701-3.8C0.4,77.404,0.4,73.804,0,66.604c1.3,0.2,2.6,0.8,4.1,1.2
		C4.2,66.204,4.3,64.404,4.3,62.503z M11.4,59.704c0,3.6-0.2,7.1-0.4,9.8c2.1,0.5,3.9,0.7,5.6,0.7
		c12.601,0,18.401-14.701,18.401-23.001c0-6.4-2.5-12.701-8.5-12.701c-4.5,0-11.701,2.4-17.301,7.3
		C10.9,47.103,11.4,53.703,11.4,59.704z"/>
	<path d="M54.999,6.7c0,6.101-0.1,12.801-0.2,18.801c2.7-2,5.4-3.1,7.601-3.1c3.1,0,5.3,2.1,5.3,7.3
		c0,15.101-16.101,30.202-19.101,30.702c0-10.101,1.1-39.302,1.1-52.703c0-2.2,0-4-0.1-5.2c0-0.6,4-2.5,5.1-2.5
		c0.2,0,0.3,0.1,0.3,0.2V6.7z M53.899,45.803c4-2.9,6.3-8.201,6.3-10.601c-0.1-1.7-0.6-2.4-1.3-2.4c-1.4,0-3.601,2.5-4.601,3.9
		C54.199,38.702,53.899,43.402,53.899,45.803z"/>
</g>
</svg>
