<?xml version="1.0" encoding="utf-8"?>
<!-- Generator: Adobe Illustrator 16.0.0, SVG Export Plug-In . SVG Version: 6.00 Build 0)  -->
<!DOCTYPE svg PUBLIC "-//W3C//DTD SVG 1.1//EN" "http://www.w3.org/Graphics/SVG/1.1/DTD/svg11.dtd">
<svg version="1.1" id="Layer_1" xmlns="http://www.w3.org/2000/svg" xmlns:xlink="http://www.w3.org/1999/xlink" x="0px" y="0px"
	 width="54.402px" height="69.404px" viewBox="0 0 54.402 69.404" enable-background="new 0 0 54.402 69.404" xml:space="preserve">
<g>
	<path d="M9.201,22.901c0,3,0.2,6.5,0.3,9.3c4.1-1.2,9.601-3.7,12.9-3.7c2.3,0,2.8,1.3,2.8,2.8v4.9c0,5.3-0.1,5.3-5.5,6.3
		c-4.3,1.2-6.9,2.3-10.101,3.3c0,3.2,0.2,4.8,0.4,8.601c5.2-0.1,11.101-0.7,18.101-1.1h1.1c2.7,0,3.4,0.7,3.4,1.8
		c0,13.501-4.3,13.601-8.8,13.701h-1.2c-7.601,0.3-12.601,0.6-21.801,0.6C0.2,62.904,0,53.803,0,44.402C0,29.501,0.5,13.701,1,5.6
		C1.2,2.5,21.202,0,30.902,0c2.7,0,3.5,1.1,3.5,2.8c0,3.2-1.5,12.701-4,13.301c-5.1,1.8-17.601,0.3-21.101,3.5
		C9.201,20.501,9.201,21.701,9.201,22.901z"/>
</g>
</svg>
