<?xml version="1.0" encoding="utf-8"?>
<!-- Generator: Adobe Illustrator 16.0.0, SVG Export Plug-In . SVG Version: 6.00 Build 0)  -->
<!DOCTYPE svg PUBLIC "-//W3C//DTD SVG 1.1//EN" "http://www.w3.org/Graphics/SVG/1.1/DTD/svg11.dtd">
<svg version="1.1" id="Layer_1" xmlns="http://www.w3.org/2000/svg" xmlns:xlink="http://www.w3.org/1999/xlink" x="0px" y="0px"
	 width="59.2px" height="86.905px" viewBox="0 0 59.2 86.905" enable-background="new 0 0 59.2 86.905" xml:space="preserve">
<g>
	<path d="M9.201,40.402c0,3,0.2,6.5,0.3,9.3c4.1-1.2,9.601-3.7,12.9-3.7c2.3,0,2.8,1.3,2.8,2.8v4.9c0,5.3-0.1,5.3-5.5,6.3
		c-4.3,1.2-6.9,2.3-10.101,3.3c0,3.2,0.2,4.8,0.4,8.601c5.2-0.1,11.101-0.7,18.101-1.1h1.1c2.7,0,3.4,0.7,3.4,1.8
		c0,13.501-4.3,13.601-8.8,13.701h-1.2c-7.601,0.3-12.601,0.6-21.801,0.6C0.2,80.405,0,71.304,0,61.903
		c0-14.901,0.5-30.702,1-38.802c0.2-3.1,20.202-5.6,29.902-5.6c2.7,0,3.5,1.1,3.5,2.8c0,3.2-1.5,12.701-4,13.301
		c-5.1,1.8-17.601,0.3-21.101,3.5C9.201,38.002,9.201,39.202,9.201,40.402z"/>
	<path d="M46.499,6.7c0,6.101-0.1,12.801-0.2,18.801c2.7-2,5.4-3.1,7.601-3.1c3.1,0,5.3,2.1,5.3,7.3
		c0,15.101-16.101,30.202-19.101,30.702c0-10.101,1.1-39.302,1.1-52.703c0-2.2,0-4-0.1-5.2c0-0.6,4-2.5,5.1-2.5
		c0.2,0,0.3,0.1,0.3,0.2V6.7z M45.399,45.803c4-2.9,6.3-8.201,6.3-10.601c-0.1-1.7-0.6-2.4-1.3-2.4c-1.4,0-3.601,2.5-4.601,3.9
		C45.699,38.702,45.399,43.402,45.399,45.803z"/>
</g>
</svg>
