<svg width="167" height="15" viewBox="0 0 167 15" fill="none" xmlns="http://www.w3.org/2000/svg">
<path d="M1.498 2.114C1.302 2.114 1.12933 2.03467 0.98 1.876C0.83067 1.708 0.756 1.512 0.756 1.288C0.756 1.064 0.83067 0.868 0.98 0.7C1.13867 0.532 1.316 0.448 1.512 0.448C1.72667 0.448 1.904 0.532 2.044 0.7C2.19333 0.85867 2.268 1.05467 2.268 1.288C2.268 1.512 2.18867 1.708 2.03 1.876C1.88067 2.03467 1.70333 2.114 1.498 2.114ZM0.112 10.22C0.382667 10.22 0.574 10.1547 0.686 10.024C0.80733 9.884 0.87733 9.7113 0.896 9.506C0.924 9.2913 0.938 8.96 0.938 8.512V5.32C0.938 5.04933 0.95667 4.746 0.994 4.41L8.10623e-09 4.466V3.878C0.55067 3.878 0.94267 3.84533 1.176 3.78C1.41867 3.71467 1.60533 3.62133 1.736 3.5H2.142V9.156C2.142 9.576 2.12333 9.8933 2.086 10.108L2.968 10.066V10.64H0.112V10.22ZM4.0495 10.22C4.32017 10.22 4.5115 10.1547 4.6235 10.024C4.74483 9.884 4.81483 9.716 4.8335 9.52C4.85217 9.3147 4.86617 8.9787 4.8755 8.512L4.8895 5.32C4.8895 4.928 4.90817 4.62467 4.9455 4.41L3.9515 4.466V3.878C4.50217 3.878 4.88017 3.85 5.0855 3.794C5.29083 3.72867 5.4635 3.63067 5.6035 3.5H6.0095C6.02817 3.67733 6.04683 3.962 6.0655 4.354C6.38283 4.074 6.74217 3.85 7.1435 3.682C7.55417 3.50467 7.9555 3.416 8.3475 3.416C9.1595 3.416 9.7522 3.67267 10.1255 4.186C10.4988 4.69 10.6855 5.47867 10.6855 6.552V9.156C10.6855 9.576 10.6668 9.8933 10.6295 10.108L11.5115 10.066V10.64H8.6555V10.22C8.92617 10.22 9.1175 10.1547 9.2295 10.024C9.35083 9.884 9.42083 9.7113 9.4395 9.506C9.4675 9.2913 9.4815 8.96 9.4815 8.512V6.552C9.47217 5.74933 9.3415 5.14733 9.0895 4.746C8.8375 4.33533 8.44083 4.13 7.8995 4.13C7.5635 4.13 7.2275 4.214 6.8915 4.382C6.56483 4.55 6.29417 4.76933 6.0795 5.04C6.08883 5.14267 6.0935 5.32467 6.0935 5.586L6.0795 9.156C6.0795 9.576 6.06083 9.8933 6.0235 10.108L6.9055 10.066V10.64H4.0495V10.22ZM12.6234 10.22C12.8941 10.22 13.0854 10.1547 13.1974 10.024C13.3187 9.884 13.3887 9.7113 13.4074 9.506C13.4354 9.2913 13.4494 8.96 13.4494 8.512L13.4354 4.242L12.2874 4.27V3.64H13.4354V3.346C13.4354 2.26333 13.6314 1.43733 14.0234 0.868C14.4247 0.28933 15.0687 -1.04904e-07 15.9554 -1.04904e-07C16.3101 -1.04904e-07 16.6461 0.0886699 16.9634 0.266C17.2901 0.44333 17.4534 0.7 17.4534 1.036C17.4534 1.22267 17.3974 1.37667 17.2854 1.498C17.1827 1.61 17.0381 1.666 16.8514 1.666C16.6647 1.666 16.5201 1.60533 16.4174 1.484C16.3241 1.35333 16.2774 1.22267 16.2774 1.092C16.2774 0.96133 16.3007 0.84467 16.3474 0.742C16.2821 0.66733 16.1934 0.61133 16.0814 0.574C15.9694 0.52733 15.8574 0.504 15.7454 0.504C15.3441 0.504 15.0594 0.66733 14.8914 0.994C14.7234 1.31133 14.6394 1.70333 14.6394 2.17V3.64H16.5294V4.186L14.6394 4.228L14.6534 9.156C14.6534 9.576 14.6347 9.8933 14.5974 10.108L15.4794 10.066V10.64H12.6234V10.22ZM20.6875 10.864C20.0435 10.864 19.4508 10.7147 18.9095 10.416C18.3775 10.108 17.9528 9.6833 17.6355 9.142C17.3275 8.6007 17.1735 7.9893 17.1735 7.308C17.1735 6.58 17.3275 5.922 17.6355 5.334C17.9435 4.73667 18.3635 4.27 18.8955 3.934C19.4368 3.58867 20.0342 3.416 20.6875 3.416C21.3315 3.416 21.9242 3.57467 22.4655 3.892C23.0068 4.2 23.4315 4.62467 23.7395 5.166C24.0568 5.70733 24.2155 6.30933 24.2155 6.972C24.2155 7.6813 24.0568 8.3347 23.7395 8.932C23.4315 9.5293 23.0068 10.0007 22.4655 10.346C21.9335 10.6913 21.3408 10.864 20.6875 10.864ZM20.7995 10.304C21.4808 10.304 21.9802 10.024 22.2975 9.464C22.6242 8.904 22.7875 8.2087 22.7875 7.378C22.7875 6.43533 22.6102 5.628 22.2555 4.956C21.9102 4.284 21.3875 3.948 20.6875 3.948C19.9968 3.948 19.4742 4.23267 19.1195 4.802C18.7742 5.37133 18.6015 6.07133 18.6015 6.902C18.6015 7.4993 18.6808 8.0593 18.8395 8.582C19.0075 9.0953 19.2548 9.5107 19.5815 9.828C19.9175 10.1453 20.3235 10.304 20.7995 10.304ZM30.487 11.97C29.4136 11.97 28.499 11.746 27.743 11.298C26.9963 10.8593 26.4316 10.2667 26.049 9.52C25.6756 8.7733 25.489 7.9473 25.489 7.042C25.489 6.18333 25.6803 5.348 26.063 4.536C26.455 3.71467 27.043 3.04267 27.827 2.52C28.6203 1.988 29.5816 1.722 30.711 1.722C31.6816 1.722 32.517 1.93667 33.217 2.366C33.917 2.79533 34.4443 3.35533 34.799 4.046C35.163 4.72733 35.345 5.44133 35.345 6.188C35.345 7.0187 35.2003 7.7 34.911 8.232C34.6216 8.764 34.2716 9.1513 33.861 9.394C33.4503 9.6273 33.0536 9.744 32.671 9.744C32.6056 9.744 32.517 9.7347 32.405 9.716C32.0223 9.6507 31.7516 9.5013 31.593 9.268C31.4343 9.0347 31.355 8.7407 31.355 8.386C31.355 8.1433 31.4016 7.7607 31.495 7.238H31.467C31.159 8.19 30.823 8.834 30.459 9.17C30.1043 9.4967 29.731 9.66 29.339 9.66C28.9096 9.66 28.555 9.4967 28.275 9.17C27.995 8.8433 27.855 8.358 27.855 7.714C27.855 7.014 27.981 6.37467 28.233 5.796C28.4943 5.21733 28.8723 4.75533 29.367 4.41C29.8616 4.06467 30.4543 3.892 31.145 3.892C31.705 3.892 32.209 3.95267 32.657 4.074L32.517 5.236C32.3676 6.31867 32.2743 7.1213 32.237 7.644C32.2276 7.7467 32.223 7.896 32.223 8.092C32.223 8.7827 32.3956 9.1653 32.741 9.24C32.7783 9.2493 32.8343 9.254 32.909 9.254C33.161 9.254 33.3943 9.142 33.609 8.918C33.833 8.694 34.0103 8.3767 34.141 7.966C34.281 7.5553 34.351 7.084 34.351 6.552C34.351 5.124 34.015 4.06 33.343 3.36C32.671 2.66 31.7843 2.31 30.683 2.31C30.4963 2.31 30.3516 2.31467 30.249 2.324C29.5023 2.38 28.849 2.62733 28.289 3.066C27.7383 3.49533 27.3136 4.05533 27.015 4.746C26.7163 5.42733 26.567 6.16467 26.567 6.958C26.567 7.9567 26.763 8.7873 27.155 9.45C27.5563 10.1033 28.0743 10.584 28.709 10.892C29.353 11.2093 30.053 11.368 30.809 11.368C32.1623 11.368 33.2076 10.934 33.945 10.066L34.281 10.416C33.8236 10.9387 33.273 11.326 32.629 11.578C31.985 11.8393 31.271 11.97 30.487 11.97ZM29.577 9.128C29.8943 9.128 30.2163 8.8807 30.543 8.386C30.8696 7.882 31.1356 7.2613 31.341 6.524C31.5556 5.77733 31.663 5.082 31.663 4.438C31.439 4.354 31.1496 4.312 30.795 4.312C30.3843 4.312 30.0296 4.47533 29.731 4.802C29.4323 5.12867 29.2083 5.54867 29.059 6.062C28.9096 6.566 28.835 7.0747 28.835 7.588C28.835 8.064 28.9003 8.442 29.031 8.722C29.1616 8.9927 29.3436 9.128 29.577 9.128ZM39.5435 10.864C38.9649 10.864 38.4469 10.7193 37.9895 10.43C37.5322 10.1407 37.1729 9.73 36.9115 9.198C36.6502 8.666 36.5195 8.0453 36.5195 7.336C36.5195 6.58933 36.6735 5.91733 36.9815 5.32C37.2895 4.72267 37.7142 4.256 38.2555 3.92C38.8062 3.584 39.4269 3.416 40.1175 3.416C40.4069 3.416 40.7009 3.458 40.9995 3.542C41.3075 3.61667 41.5595 3.70533 41.7555 3.808V1.89C41.7555 1.53533 41.7695 1.232 41.7975 0.98L40.8035 1.036V0.448C41.3542 0.448 41.7462 0.41533 41.9795 0.35C42.2222 0.28467 42.4089 0.19133 42.5395 0.0700001H42.9455V9.156C42.9455 9.4547 42.9269 9.772 42.8895 10.108L43.8835 10.052V10.64H41.8815C41.8349 10.388 41.8022 10.1453 41.7835 9.912C41.5129 10.2107 41.1815 10.444 40.7895 10.612C40.4069 10.78 39.9915 10.864 39.5435 10.864ZM40.0475 10.178C40.3462 10.178 40.6495 10.094 40.9575 9.926C41.2749 9.7487 41.5409 9.5247 41.7555 9.254C41.7462 9.1047 41.7415 8.848 41.7415 8.484L41.7555 4.452C41.3169 4.12533 40.7989 3.962 40.2015 3.962C39.5295 3.962 38.9882 4.242 38.5775 4.802C38.1669 5.35267 37.9615 6.08533 37.9615 7C37.9615 7.952 38.1435 8.722 38.5075 9.31C38.8715 9.8887 39.3849 10.178 40.0475 10.178ZM48.3027 10.864C47.6587 10.864 47.0754 10.7147 46.5527 10.416C46.0394 10.108 45.6334 9.674 45.3347 9.114C45.0361 8.5447 44.8867 7.8913 44.8867 7.154C44.8867 6.50067 45.0361 5.88933 45.3347 5.32C45.6334 4.74133 46.0487 4.27933 46.5807 3.934C47.1221 3.58867 47.7334 3.416 48.4147 3.416C48.9467 3.416 49.4274 3.53267 49.8567 3.766C50.2861 3.99933 50.6267 4.34933 50.8787 4.816C51.1307 5.27333 51.2567 5.838 51.2567 6.51L46.3287 6.594C46.3194 7.714 46.5014 8.5867 46.8747 9.212C47.2574 9.8373 47.8454 10.15 48.6387 10.15C49.0681 10.15 49.5067 10.038 49.9547 9.814C50.4121 9.59 50.7621 9.3147 51.0047 8.988L51.3407 9.268C50.9861 9.8093 50.5241 10.2107 49.9547 10.472C49.3947 10.7333 48.8441 10.864 48.3027 10.864ZM49.9407 6.006C49.9407 5.446 49.8147 4.96533 49.5627 4.564C49.3107 4.16267 48.9327 3.962 48.4287 3.962C47.2714 3.962 46.5854 4.64333 46.3707 6.006H49.9407ZM53.0923 6.118C52.7189 5.25933 52.5229 4.61067 52.5043 4.172L51.9023 4.214V3.64H54.4783V4.06C54.0676 4.06 53.8623 4.23267 53.8623 4.578C53.8623 4.83 53.9603 5.17533 54.1563 5.614L55.2343 8.078C55.3556 8.3673 55.4956 8.7127 55.6543 9.114H55.6683C55.6963 9.0207 55.7336 8.918 55.7803 8.806L55.9903 8.204L57.1103 5.138C57.2036 4.86733 57.3436 4.54533 57.5303 4.172L56.6343 4.214V3.64H58.8463V4.06C58.6503 4.06 58.4823 4.13 58.3423 4.27C58.2023 4.40067 58.0716 4.58733 57.9503 4.83C57.8383 5.07267 57.6843 5.446 57.4883 5.95L55.6543 10.682H55.0943L53.0923 6.118ZM62.8223 10.864C62.1783 10.864 61.5949 10.7147 61.0723 10.416C60.5589 10.108 60.1529 9.674 59.8543 9.114C59.5556 8.5447 59.4063 7.8913 59.4063 7.154C59.4063 6.50067 59.5556 5.88933 59.8543 5.32C60.1529 4.74133 60.5683 4.27933 61.1003 3.934C61.6416 3.58867 62.2529 3.416 62.9343 3.416C63.4663 3.416 63.9469 3.53267 64.3763 3.766C64.8056 3.99933 65.1463 4.34933 65.3983 4.816C65.6503 5.27333 65.7763 5.838 65.7763 6.51L60.8483 6.594C60.8389 7.714 61.0209 8.5867 61.3943 9.212C61.7769 9.8373 62.3649 10.15 63.1583 10.15C63.5876 10.15 64.0263 10.038 64.4743 9.814C64.9316 9.59 65.2816 9.3147 65.5243 8.988L65.8603 9.268C65.5056 9.8093 65.0436 10.2107 64.4743 10.472C63.9143 10.7333 63.3636 10.864 62.8223 10.864ZM64.4603 6.006C64.4603 5.446 64.3343 4.96533 64.0823 4.564C63.8303 4.16267 63.4523 3.962 62.9483 3.962C61.7909 3.962 61.1049 4.64333 60.8903 6.006H64.4603ZM66.8822 10.22C67.1528 10.22 67.3442 10.1547 67.4562 10.024C67.5775 9.884 67.6475 9.7113 67.6662 9.506C67.6942 9.2913 67.7082 8.96 67.7082 8.512V1.89C67.7082 1.53533 67.7222 1.232 67.7502 0.98L66.7562 1.036V0.448C67.3162 0.448 67.7128 0.41533 67.9462 0.35C68.1888 0.28467 68.3755 0.19133 68.5062 0.0700001H68.9122L68.9262 9.156C68.9262 9.52 68.9028 9.8373 68.8562 10.108L69.7382 10.066V10.64H66.8822V10.22ZM74.3086 10.864C73.6646 10.864 73.0719 10.7147 72.5306 10.416C71.9986 10.108 71.5739 9.6833 71.2566 9.142C70.9486 8.6007 70.7946 7.9893 70.7946 7.308C70.7946 6.58 70.9486 5.922 71.2566 5.334C71.5646 4.73667 71.9846 4.27 72.5166 3.934C73.0579 3.58867 73.6553 3.416 74.3086 3.416C74.9526 3.416 75.5453 3.57467 76.0866 3.892C76.6279 4.2 77.0526 4.62467 77.3606 5.166C77.6779 5.70733 77.8366 6.30933 77.8366 6.972C77.8366 7.6813 77.6779 8.3347 77.3606 8.932C77.0526 9.5293 76.6279 10.0007 76.0866 10.346C75.5546 10.6913 74.9619 10.864 74.3086 10.864ZM74.4206 10.304C75.1019 10.304 75.6013 10.024 75.9186 9.464C76.2453 8.904 76.4086 8.2087 76.4086 7.378C76.4086 6.43533 76.2313 5.628 75.8766 4.956C75.5313 4.284 75.0086 3.948 74.3086 3.948C73.6179 3.948 73.0953 4.23267 72.7406 4.802C72.3953 5.37133 72.2226 6.07133 72.2226 6.902C72.2226 7.4993 72.3019 8.0593 72.4606 8.582C72.6286 9.0953 72.8759 9.5107 73.2026 9.828C73.5386 10.1453 73.9446 10.304 74.4206 10.304ZM78.9001 13.79C79.1707 13.79 79.3621 13.72 79.4741 13.58C79.5954 13.4493 79.6654 13.2813 79.6841 13.076C79.7027 12.88 79.7167 12.5487 79.7261 12.082L79.7541 5.32C79.7541 4.928 79.7727 4.62467 79.8101 4.41L78.8161 4.466V3.878C79.3667 3.878 79.7447 3.85 79.9501 3.794C80.1554 3.72867 80.3234 3.63067 80.4541 3.5H80.8741C80.9114 3.95733 80.9301 4.20933 80.9301 4.256C81.2101 4.004 81.5461 3.80333 81.9381 3.654C82.3301 3.49533 82.7174 3.416 83.1001 3.416C83.6507 3.416 84.1594 3.56067 84.6261 3.85C85.0927 4.13 85.4661 4.536 85.7461 5.068C86.0354 5.59067 86.1801 6.19733 86.1801 6.888C86.1801 7.6627 86.0167 8.3533 85.6901 8.96C85.3634 9.5573 84.9247 10.024 84.3741 10.36C83.8327 10.696 83.2447 10.864 82.6101 10.864C81.9661 10.864 81.4061 10.71 80.9301 10.402V12.726C80.9301 13.146 80.9114 13.4633 80.8741 13.678L81.7561 13.636V14.21H78.9001V13.79ZM82.5821 10.304C83.0207 10.304 83.3987 10.1687 83.7161 9.898C84.0427 9.6273 84.2947 9.2493 84.4721 8.764C84.6494 8.2787 84.7381 7.728 84.7381 7.112C84.7381 6.272 84.5561 5.56267 84.1921 4.984C83.8374 4.396 83.3054 4.102 82.5961 4.102C82.2881 4.102 81.9894 4.17667 81.7001 4.326C81.4107 4.47533 81.1587 4.662 80.9441 4.886C80.9534 4.95133 80.9581 5.236 80.9581 5.74L80.9441 9.758C81.4201 10.122 81.9661 10.304 82.5821 10.304ZM87.3796 10.22C87.6502 10.22 87.8416 10.1547 87.9536 10.024C88.0749 9.884 88.1449 9.7113 88.1636 9.506C88.1916 9.2913 88.2056 8.96 88.2056 8.512V5.32C88.2056 4.928 88.2242 4.62467 88.2616 4.41L87.2676 4.466V3.878C87.8182 3.878 88.1962 3.85 88.4016 3.794C88.6069 3.72867 88.7796 3.63067 88.9196 3.5H89.3256C89.3442 3.64 89.3629 3.88733 89.3816 4.242C89.6709 3.99 89.9976 3.78933 90.3616 3.64C90.7256 3.49067 91.0849 3.416 91.4396 3.416C91.8969 3.416 92.2842 3.5 92.6016 3.668C92.9282 3.82667 93.1802 4.05533 93.3576 4.354C93.6936 4.08333 94.0669 3.85933 94.4776 3.682C94.8976 3.50467 95.2989 3.416 95.6816 3.416C96.5029 3.416 97.1002 3.668 97.4736 4.172C97.8562 4.66667 98.0382 5.46 98.0196 6.552L98.0056 9.156C98.0056 9.576 97.9869 9.8933 97.9496 10.108L98.8316 10.066V10.64H95.9756V10.22C96.2462 10.22 96.4376 10.1547 96.5496 10.024C96.6709 9.884 96.7409 9.7113 96.7596 9.506C96.7876 9.2913 96.8016 8.96 96.8016 8.512V6.552C96.8016 5.74933 96.6756 5.152 96.4236 4.76C96.1716 4.35867 95.7749 4.158 95.2336 4.158C94.9442 4.158 94.6502 4.22333 94.3516 4.354C94.0622 4.47533 93.8056 4.63867 93.5816 4.844C93.6749 5.13333 93.7216 5.474 93.7216 5.866L93.6936 9.156C93.6936 9.576 93.6749 9.8933 93.6376 10.108L94.5196 10.066V10.64H91.6636V10.22C91.9342 10.22 92.1256 10.1547 92.2376 10.024C92.3589 9.884 92.4289 9.716 92.4476 9.52C92.4662 9.3147 92.4802 8.9787 92.4896 8.512L92.5036 6.552C92.5129 5.74 92.3962 5.13333 92.1536 4.732C91.9109 4.33067 91.5236 4.13 90.9916 4.13C90.7022 4.13 90.4129 4.19067 90.1236 4.312C89.8436 4.43333 89.6009 4.59667 89.3956 4.802L89.4096 5.558V9.156C89.4096 9.576 89.3909 9.8933 89.3536 10.108L90.2356 10.066V10.64H87.3796V10.22ZM103.277 10.864C102.633 10.864 102.05 10.7147 101.527 10.416C101.014 10.108 100.608 9.674 100.309 9.114C100.011 8.5447 99.861 7.8913 99.861 7.154C99.861 6.50067 100.011 5.88933 100.309 5.32C100.608 4.74133 101.023 4.27933 101.555 3.934C102.097 3.58867 102.708 3.416 103.389 3.416C103.921 3.416 104.402 3.53267 104.831 3.766C105.261 3.99933 105.601 4.34933 105.853 4.816C106.105 5.27333 106.231 5.838 106.231 6.51L101.303 6.594C101.294 7.714 101.476 8.5867 101.849 9.212C102.232 9.8373 102.82 10.15 103.613 10.15C104.043 10.15 104.481 10.038 104.929 9.814C105.387 9.59 105.737 9.3147 105.979 8.988L106.315 9.268C105.961 9.8093 105.499 10.2107 104.929 10.472C104.369 10.7333 103.819 10.864 103.277 10.864ZM104.915 6.006C104.915 5.446 104.789 4.96533 104.537 4.564C104.285 4.16267 103.907 3.962 103.403 3.962C102.246 3.962 101.56 4.64333 101.345 6.006H104.915ZM107.477 10.22C107.748 10.22 107.939 10.1547 108.051 10.024C108.173 9.884 108.243 9.716 108.261 9.52C108.28 9.3147 108.294 8.9787 108.303 8.512L108.317 5.32C108.317 4.928 108.336 4.62467 108.373 4.41L107.379 4.466V3.878C107.93 3.878 108.308 3.85 108.513 3.794C108.719 3.72867 108.891 3.63067 109.031 3.5H109.437C109.456 3.67733 109.475 3.962 109.493 4.354C109.811 4.074 110.17 3.85 110.571 3.682C110.982 3.50467 111.383 3.416 111.775 3.416C112.587 3.416 113.18 3.67267 113.553 4.186C113.927 4.69 114.113 5.47867 114.113 6.552V9.156C114.113 9.576 114.095 9.8933 114.057 10.108L114.939 10.066V10.64H112.083V10.22C112.354 10.22 112.545 10.1547 112.657 10.024C112.779 9.884 112.849 9.7113 112.867 9.506C112.895 9.2913 112.909 8.96 112.909 8.512V6.552C112.9 5.74933 112.769 5.14733 112.517 4.746C112.265 4.33533 111.869 4.13 111.327 4.13C110.991 4.13 110.655 4.214 110.319 4.382C109.993 4.55 109.722 4.76933 109.507 5.04C109.517 5.14267 109.521 5.32467 109.521 5.586L109.507 9.156C109.507 9.576 109.489 9.8933 109.451 10.108L110.333 10.066V10.64H107.477V10.22ZM118.49 10.864C117.211 10.864 116.577 10.0053 116.586 8.288L116.614 4.228L115.536 4.242V3.64C115.984 3.63067 116.362 3.43 116.67 3.038C116.987 2.63667 117.221 2.184 117.37 1.68H117.846V3.64H120.198V4.186L117.846 4.214C117.837 5.642 117.827 6.63133 117.818 7.182C117.818 7.7327 117.818 8.0407 117.818 8.106C117.818 8.7687 117.897 9.2633 118.056 9.59C118.215 9.9073 118.49 10.066 118.882 10.066C119.125 10.066 119.363 9.9913 119.596 9.842C119.839 9.6927 120.049 9.4873 120.226 9.226L120.604 9.534C120.24 10.0753 119.881 10.4347 119.526 10.612C119.171 10.78 118.826 10.864 118.49 10.864ZM122.364 10.864C122.14 10.864 121.949 10.78 121.79 10.612C121.631 10.4347 121.552 10.22 121.552 9.968C121.552 9.716 121.631 9.5013 121.79 9.324C121.958 9.1467 122.154 9.058 122.378 9.058C122.611 9.058 122.803 9.1467 122.952 9.324C123.111 9.5013 123.19 9.716 123.19 9.968C123.19 10.22 123.106 10.4347 122.938 10.612C122.779 10.78 122.588 10.864 122.364 10.864ZM127.587 10.864C127.149 10.864 126.747 10.8033 126.383 10.682C126.019 10.57 125.707 10.4253 125.445 10.248L125.501 10.738H124.913L124.829 8.33H125.263C125.282 8.7127 125.385 9.0533 125.571 9.352C125.767 9.6507 126.019 9.8887 126.327 10.066C126.645 10.234 126.981 10.318 127.335 10.318C127.737 10.318 128.091 10.2247 128.399 10.038C128.717 9.842 128.875 9.5667 128.875 9.212C128.875 8.9507 128.796 8.7313 128.637 8.554C128.488 8.3767 128.297 8.232 128.063 8.12C127.839 7.9987 127.522 7.8587 127.111 7.7C126.617 7.5133 126.22 7.3407 125.921 7.182C125.623 7.014 125.366 6.79 125.151 6.51C124.937 6.23 124.829 5.87533 124.829 5.446C124.829 5.138 124.904 4.83 125.053 4.522C125.203 4.214 125.455 3.95267 125.809 3.738C126.164 3.52333 126.635 3.416 127.223 3.416C127.513 3.416 127.807 3.46267 128.105 3.556C128.413 3.64933 128.698 3.80333 128.959 4.018L128.931 3.486H129.519V5.936H129.071C129.043 5.39467 128.875 4.928 128.567 4.536C128.269 4.13467 127.844 3.934 127.293 3.934C126.873 3.934 126.537 4.04133 126.285 4.256C126.043 4.46133 125.921 4.70867 125.921 4.998C125.921 5.26867 126.001 5.49733 126.159 5.684C126.327 5.87067 126.533 6.02933 126.775 6.16C127.018 6.29067 127.345 6.43533 127.755 6.594C128.241 6.79 128.633 6.972 128.931 7.14C129.23 7.308 129.482 7.532 129.687 7.812C129.902 8.0827 130.009 8.414 130.009 8.806C130.009 9.254 129.893 9.632 129.659 9.94C129.435 10.248 129.137 10.4813 128.763 10.64C128.399 10.7893 128.007 10.864 127.587 10.864ZM134.152 10.864C133.359 10.864 132.775 10.6353 132.402 10.178C132.038 9.7207 131.856 8.932 131.856 7.812V5.32C131.856 4.928 131.875 4.62467 131.912 4.41L130.946 4.452V3.878H131.38C131.744 3.878 132.019 3.84533 132.206 3.78C132.393 3.71467 132.551 3.62133 132.682 3.5H133.088V7.77C133.088 8.5913 133.2 9.1933 133.424 9.576C133.657 9.9587 134.04 10.15 134.572 10.15C134.917 10.15 135.253 10.0473 135.58 9.842C135.916 9.6367 136.187 9.38 136.392 9.072V5.474C136.392 5.03533 136.415 4.68067 136.462 4.41L135.454 4.452V3.878H135.888C136.252 3.878 136.527 3.84533 136.714 3.78C136.901 3.71467 137.059 3.62133 137.19 3.5H137.596L137.582 8.792C137.582 9.3333 137.563 9.772 137.526 10.108L138.534 10.052V10.64H136.532C136.485 10.3507 136.453 10.0707 136.434 9.8C136.126 10.108 135.767 10.3647 135.356 10.57C134.945 10.766 134.544 10.864 134.152 10.864ZM139.425 13.79C139.696 13.79 139.887 13.72 139.999 13.58C140.121 13.4493 140.191 13.2813 140.209 13.076C140.228 12.88 140.242 12.5487 140.251 12.082L140.279 5.32C140.279 4.928 140.298 4.62467 140.335 4.41L139.341 4.466V3.878C139.892 3.878 140.27 3.85 140.475 3.794C140.681 3.72867 140.849 3.63067 140.979 3.5H141.399C141.437 3.95733 141.455 4.20933 141.455 4.256C141.735 4.004 142.071 3.80333 142.463 3.654C142.855 3.49533 143.243 3.416 143.625 3.416C144.176 3.416 144.685 3.56067 145.151 3.85C145.618 4.13 145.991 4.536 146.271 5.068C146.561 5.59067 146.705 6.19733 146.705 6.888C146.705 7.6627 146.542 8.3533 146.215 8.96C145.889 9.5573 145.45 10.024 144.899 10.36C144.358 10.696 143.77 10.864 143.135 10.864C142.491 10.864 141.931 10.71 141.455 10.402V12.726C141.455 13.146 141.437 13.4633 141.399 13.678L142.281 13.636V14.21H139.425V13.79ZM143.107 10.304C143.546 10.304 143.924 10.1687 144.241 9.898C144.568 9.6273 144.82 9.2493 144.997 8.764C145.175 8.2787 145.263 7.728 145.263 7.112C145.263 6.272 145.081 5.56267 144.717 4.984C144.363 4.396 143.831 4.102 143.121 4.102C142.813 4.102 142.515 4.17667 142.225 4.326C141.936 4.47533 141.684 4.662 141.469 4.886C141.479 4.95133 141.483 5.236 141.483 5.74L141.469 9.758C141.945 10.122 142.491 10.304 143.107 10.304ZM147.779 13.79C148.05 13.79 148.241 13.72 148.353 13.58C148.474 13.4493 148.544 13.2813 148.563 13.076C148.582 12.88 148.596 12.5487 148.605 12.082L148.633 5.32C148.633 4.928 148.652 4.62467 148.689 4.41L147.695 4.466V3.878C148.246 3.878 148.624 3.85 148.829 3.794C149.034 3.72867 149.202 3.63067 149.333 3.5H149.753C149.79 3.95733 149.809 4.20933 149.809 4.256C150.089 4.004 150.425 3.80333 150.817 3.654C151.209 3.49533 151.596 3.416 151.979 3.416C152.53 3.416 153.038 3.56067 153.505 3.85C153.972 4.13 154.345 4.536 154.625 5.068C154.914 5.59067 155.059 6.19733 155.059 6.888C155.059 7.6627 154.896 8.3533 154.569 8.96C154.242 9.5573 153.804 10.024 153.253 10.36C152.712 10.696 152.124 10.864 151.489 10.864C150.845 10.864 150.285 10.71 149.809 10.402V12.726C149.809 13.146 149.79 13.4633 149.753 13.678L150.635 13.636V14.21H147.779V13.79ZM151.461 10.304C151.9 10.304 152.278 10.1687 152.595 9.898C152.922 9.6273 153.174 9.2493 153.351 8.764C153.528 8.2787 153.617 7.728 153.617 7.112C153.617 6.272 153.435 5.56267 153.071 4.984C152.716 4.396 152.184 4.102 151.475 4.102C151.167 4.102 150.868 4.17667 150.579 4.326C150.29 4.47533 150.038 4.662 149.823 4.886C149.832 4.95133 149.837 5.236 149.837 5.74L149.823 9.758C150.299 10.122 150.845 10.304 151.461 10.304ZM156.118 10.22C156.389 10.22 156.58 10.1547 156.692 10.024C156.814 9.884 156.884 9.7113 156.902 9.506C156.93 9.2913 156.944 8.96 156.944 8.512V1.89C156.944 1.53533 156.958 1.232 156.986 0.98L155.992 1.036V0.448C156.552 0.448 156.949 0.41533 157.182 0.35C157.425 0.28467 157.612 0.19133 157.742 0.0700001H158.148L158.162 9.156C158.162 9.52 158.139 9.8373 158.092 10.108L158.974 10.066V10.64H156.118V10.22ZM161.083 14.434C160.775 14.434 160.523 14.3593 160.327 14.21C160.131 14.0607 160.033 13.8507 160.033 13.58C160.033 13.4027 160.089 13.244 160.201 13.104C160.322 12.9733 160.476 12.908 160.663 12.908C160.849 12.908 160.985 12.9733 161.069 13.104C161.162 13.2347 161.209 13.37 161.209 13.51C161.209 13.594 161.204 13.6593 161.195 13.706C161.223 13.7247 161.274 13.734 161.349 13.734C161.47 13.734 161.591 13.6873 161.713 13.594C161.843 13.5007 161.96 13.3653 162.063 13.188C162.277 12.8333 162.604 12.0353 163.043 10.794L160.859 6.118C160.467 5.278 160.219 4.634 160.117 4.186L159.445 4.214V3.64H162.343V4.06H162.287C161.848 4.088 161.629 4.27467 161.629 4.62C161.629 4.85333 161.741 5.21733 161.965 5.712L163.603 9.226C163.883 8.4327 164.284 7.2613 164.807 5.712C165.124 4.788 165.353 4.27 165.493 4.158L164.527 4.214V3.64H166.725V4.06C166.407 4.18133 166.16 4.37733 165.983 4.648C165.815 4.90933 165.628 5.32 165.423 5.88L163.673 10.766C163.337 11.7087 163.057 12.418 162.833 12.894C162.618 13.3793 162.371 13.7573 162.091 14.028C161.82 14.2987 161.484 14.434 161.083 14.434Z" fill="white"/>
</svg>
