<svg width="100%" height="100%" xmlns="http://www.w3.org/2000/svg" xmlns:xlink="http://www.w3.org/1999/xlink">
<path d="M2.002 5.474C1.806 5.474 1.63333 5.39467 1.484 5.236C1.33467 5.068 1.26 4.872 1.26 4.648C1.26 4.424 1.33467 4.228 1.484 4.06C1.64267 3.892 1.82 3.808 2.016 3.808C2.23067 3.808 2.408 3.892 2.548 4.06C2.69733 4.21867 2.772 4.41467 2.772 4.648C2.772 4.872 2.69267 5.068 2.534 5.236C2.38467 5.39467 2.20733 5.474 2.002 5.474ZM0.616 13.58C0.886667 13.58 1.078 13.5147 1.19 13.384C1.31133 13.244 1.38133 13.0713 1.4 12.866C1.428 12.6513 1.442 12.32 1.442 11.872V8.68C1.442 8.40933 1.46067 8.106 1.498 7.77L0.504 7.826V7.238C1.05467 7.238 1.44667 7.20533 1.68 7.14C1.92267 7.07467 2.10933 6.98133 2.24 6.86H2.646V12.516C2.646 12.936 2.62733 13.2533 2.59 13.468L3.472 13.426V14H0.616V13.58ZM4.5535 13.58C4.82417 13.58 5.0155 13.5147 5.1275 13.384C5.24883 13.244 5.31883 13.076 5.3375 12.88C5.35617 12.6747 5.37017 12.3387 5.3795 11.872L5.3935 8.68C5.3935 8.288 5.41217 7.98467 5.4495 7.77L4.4555 7.826V7.238C5.00617 7.238 5.38417 7.21 5.5895 7.154C5.79483 7.08867 5.9675 6.99067 6.1075 6.86H6.5135C6.53217 7.03733 6.55083 7.322 6.5695 7.714C6.88683 7.434 7.24617 7.21 7.6475 7.042C8.05817 6.86467 8.4595 6.776 8.8515 6.776C9.6635 6.776 10.2562 7.03267 10.6295 7.546C11.0028 8.05 11.1895 8.83867 11.1895 9.912V12.516C11.1895 12.936 11.1708 13.2533 11.1335 13.468L12.0155 13.426V14H9.1595V13.58C9.43017 13.58 9.6215 13.5147 9.7335 13.384C9.85483 13.244 9.92483 13.0713 9.9435 12.866C9.9715 12.6513 9.9855 12.32 9.9855 11.872V9.912C9.97617 9.10933 9.8455 8.50733 9.5935 8.106C9.3415 7.69533 8.94483 7.49 8.4035 7.49C8.0675 7.49 7.7315 7.574 7.3955 7.742C7.06883 7.91 6.79817 8.12933 6.5835 8.4C6.59283 8.50267 6.5975 8.68467 6.5975 8.946L6.5835 12.516C6.5835 12.936 6.56483 13.2533 6.5275 13.468L7.4095 13.426V14H4.5535V13.58ZM13.1274 13.58C13.3981 13.58 13.5894 13.5147 13.7014 13.384C13.8227 13.244 13.8927 13.0713 13.9114 12.866C13.9394 12.6513 13.9534 12.32 13.9534 11.872L13.9394 7.602L12.7914 7.63V7H13.9394V6.706C13.9394 5.62333 14.1354 4.79733 14.5274 4.228C14.9287 3.64933 15.5727 3.36 16.4594 3.36C16.8141 3.36 17.1501 3.44867 17.4674 3.626C17.7941 3.80333 17.9574 4.06 17.9574 4.396C17.9574 4.58267 17.9014 4.73667 17.7894 4.858C17.6867 4.97 17.5421 5.026 17.3554 5.026C17.1687 5.026 17.0241 4.96533 16.9214 4.844C16.8281 4.71333 16.7814 4.58267 16.7814 4.452C16.7814 4.32133 16.8047 4.20467 16.8514 4.102C16.7861 4.02733 16.6974 3.97133 16.5854 3.934C16.4734 3.88733 16.3614 3.864 16.2494 3.864C15.8481 3.864 15.5634 4.02733 15.3954 4.354C15.2274 4.67133 15.1434 5.06333 15.1434 5.53V7H17.0334V7.546L15.1434 7.588L15.1574 12.516C15.1574 12.936 15.1387 13.2533 15.1014 13.468L15.9834 13.426V14H13.1274V13.58ZM21.1915 14.224C20.5475 14.224 19.9548 14.0747 19.4135 13.776C18.8815 13.468 18.4568 13.0433 18.1395 12.502C17.8315 11.9607 17.6775 11.3493 17.6775 10.668C17.6775 9.94 17.8315 9.282 18.1395 8.694C18.4475 8.09667 18.8675 7.63 19.3995 7.294C19.9408 6.94867 20.5382 6.776 21.1915 6.776C21.8355 6.776 22.4282 6.93467 22.9695 7.252C23.5108 7.56 23.9355 7.98467 24.2435 8.526C24.5608 9.06733 24.7195 9.66933 24.7195 10.332C24.7195 11.0413 24.5608 11.6947 24.2435 12.292C23.9355 12.8893 23.5108 13.3607 22.9695 13.706C22.4375 14.0513 21.8448 14.224 21.1915 14.224ZM21.3035 13.664C21.9848 13.664 22.4842 13.384 22.8015 12.824C23.1282 12.264 23.2915 11.5687 23.2915 10.738C23.2915 9.79533 23.1142 8.988 22.7595 8.316C22.4142 7.644 21.8915 7.308 21.1915 7.308C20.5008 7.308 19.9782 7.59267 19.6235 8.162C19.2782 8.73133 19.1055 9.43133 19.1055 10.262C19.1055 10.8593 19.1848 11.4193 19.3435 11.942C19.5115 12.4553 19.7588 12.8707 20.0855 13.188C20.4215 13.5053 20.8275 13.664 21.3035 13.664ZM30.991 15.33C29.9176 15.33 29.003 15.106 28.247 14.658C27.5003 14.2193 26.9356 13.6267 26.553 12.88C26.1796 12.1333 25.993 11.3073 25.993 10.402C25.993 9.54333 26.1843 8.708 26.567 7.896C26.959 7.07467 27.547 6.40267 28.331 5.88C29.1243 5.348 30.0856 5.082 31.215 5.082C32.1856 5.082 33.021 5.29667 33.721 5.726C34.421 6.15533 34.9483 6.71533 35.303 7.406C35.667 8.08733 35.849 8.80133 35.849 9.548C35.849 10.3787 35.7043 11.06 35.415 11.592C35.1256 12.124 34.7756 12.5113 34.365 12.754C33.9543 12.9873 33.5576 13.104 33.175 13.104C33.1096 13.104 33.021 13.0947 32.909 13.076C32.5263 13.0107 32.2556 12.8613 32.097 12.628C31.9383 12.3947 31.859 12.1007 31.859 11.746C31.859 11.5033 31.9056 11.1207 31.999 10.598H31.971C31.663 11.55 31.327 12.194 30.963 12.53C30.6083 12.8567 30.235 13.02 29.843 13.02C29.4136 13.02 29.059 12.8567 28.779 12.53C28.499 12.2033 28.359 11.718 28.359 11.074C28.359 10.374 28.485 9.73467 28.737 9.156C28.9983 8.57733 29.3763 8.11533 29.871 7.77C30.3656 7.42467 30.9583 7.252 31.649 7.252C32.209 7.252 32.713 7.31267 33.161 7.434L33.021 8.596C32.8716 9.67867 32.7783 10.4813 32.741 11.004C32.7316 11.1067 32.727 11.256 32.727 11.452C32.727 12.1427 32.8996 12.5253 33.245 12.6C33.2823 12.6093 33.3383 12.614 33.413 12.614C33.665 12.614 33.8983 12.502 34.113 12.278C34.337 12.054 34.5143 11.7367 34.645 11.326C34.785 10.9153 34.855 10.444 34.855 9.912C34.855 8.484 34.519 7.42 33.847 6.72C33.175 6.02 32.2883 5.67 31.187 5.67C31.0003 5.67 30.8556 5.67467 30.753 5.684C30.0063 5.74 29.353 5.98733 28.793 6.426C28.2423 6.85533 27.8176 7.41533 27.519 8.106C27.2203 8.78733 27.071 9.52467 27.071 10.318C27.071 11.3167 27.267 12.1473 27.659 12.81C28.0603 13.4633 28.5783 13.944 29.213 14.252C29.857 14.5693 30.557 14.728 31.313 14.728C32.6663 14.728 33.7116 14.294 34.449 13.426L34.785 13.776C34.3276 14.2987 33.777 14.686 33.133 14.938C32.489 15.1993 31.775 15.33 30.991 15.33ZM30.081 12.488C30.3983 12.488 30.7203 12.2407 31.047 11.746C31.3736 11.242 31.6396 10.6213 31.845 9.884C32.0596 9.13733 32.167 8.442 32.167 7.798C31.943 7.714 31.6536 7.672 31.299 7.672C30.8883 7.672 30.5336 7.83533 30.235 8.162C29.9363 8.48867 29.7123 8.90867 29.563 9.422C29.4136 9.926 29.339 10.4347 29.339 10.948C29.339 11.424 29.4043 11.802 29.535 12.082C29.6656 12.3527 29.8476 12.488 30.081 12.488ZM40.0475 14.224C39.4689 14.224 38.9509 14.0793 38.4935 13.79C38.0362 13.5007 37.6769 13.09 37.4155 12.558C37.1542 12.026 37.0235 11.4053 37.0235 10.696C37.0235 9.94933 37.1775 9.27733 37.4855 8.68C37.7935 8.08267 38.2182 7.616 38.7595 7.28C39.3102 6.944 39.9309 6.776 40.6215 6.776C40.9109 6.776 41.2049 6.818 41.5035 6.902C41.8115 6.97667 42.0635 7.06533 42.2595 7.168V5.25C42.2595 4.89533 42.2735 4.592 42.3015 4.34L41.3075 4.396V3.808C41.8582 3.808 42.2502 3.77533 42.4835 3.71C42.7262 3.64467 42.9129 3.55133 43.0435 3.43H43.4495V12.516C43.4495 12.8147 43.4309 13.132 43.3935 13.468L44.3875 13.412V14H42.3855C42.3389 13.748 42.3062 13.5053 42.2875 13.272C42.0169 13.5707 41.6855 13.804 41.2935 13.972C40.9109 14.14 40.4955 14.224 40.0475 14.224ZM40.5515 13.538C40.8502 13.538 41.1535 13.454 41.4615 13.286C41.7789 13.1087 42.0449 12.8847 42.2595 12.614C42.2502 12.4647 42.2455 12.208 42.2455 11.844L42.2595 7.812C41.8209 7.48533 41.3029 7.322 40.7055 7.322C40.0335 7.322 39.4922 7.602 39.0815 8.162C38.6709 8.71267 38.4655 9.44533 38.4655 10.36C38.4655 11.312 38.6475 12.082 39.0115 12.67C39.3755 13.2487 39.8889 13.538 40.5515 13.538ZM48.8067 14.224C48.1627 14.224 47.5794 14.0747 47.0567 13.776C46.5434 13.468 46.1374 13.034 45.8387 12.474C45.5401 11.9047 45.3907 11.2513 45.3907 10.514C45.3907 9.86067 45.5401 9.24933 45.8387 8.68C46.1374 8.10133 46.5527 7.63933 47.0847 7.294C47.6261 6.94867 48.2374 6.776 48.9187 6.776C49.4507 6.776 49.9314 6.89267 50.3607 7.126C50.7901 7.35933 51.1307 7.70933 51.3827 8.176C51.6347 8.63333 51.7607 9.198 51.7607 9.87L46.8327 9.954C46.8234 11.074 47.0054 11.9467 47.3787 12.572C47.7614 13.1973 48.3494 13.51 49.1427 13.51C49.5721 13.51 50.0107 13.398 50.4587 13.174C50.9161 12.95 51.2661 12.6747 51.5087 12.348L51.8447 12.628C51.4901 13.1693 51.0281 13.5707 50.4587 13.832C49.8987 14.0933 49.3481 14.224 48.8067 14.224ZM50.4447 9.366C50.4447 8.806 50.3187 8.32533 50.0667 7.924C49.8147 7.52267 49.4367 7.322 48.9327 7.322C47.7754 7.322 47.0894 8.00333 46.8747 9.366H50.4447ZM53.5963 9.478C53.2229 8.61933 53.0269 7.97067 53.0083 7.532L52.4063 7.574V7H54.9823V7.42C54.5716 7.42 54.3663 7.59267 54.3663 7.938C54.3663 8.19 54.4643 8.53533 54.6603 8.974L55.7383 11.438C55.8596 11.7273 55.9996 12.0727 56.1583 12.474H56.1723C56.2003 12.3807 56.2376 12.278 56.2843 12.166L56.4943 11.564L57.6143 8.498C57.7076 8.22733 57.8476 7.90533 58.0343 7.532L57.1383 7.574V7H59.3503V7.42C59.1543 7.42 58.9863 7.49 58.8463 7.63C58.7063 7.76067 58.5756 7.94733 58.4543 8.19C58.3423 8.43267 58.1883 8.806 57.9923 9.31L56.1583 14.042H55.5983L53.5963 9.478ZM63.3263 14.224C62.6823 14.224 62.0989 14.0747 61.5763 13.776C61.0629 13.468 60.6569 13.034 60.3583 12.474C60.0596 11.9047 59.9103 11.2513 59.9103 10.514C59.9103 9.86067 60.0596 9.24933 60.3583 8.68C60.6569 8.10133 61.0723 7.63933 61.6043 7.294C62.1456 6.94867 62.7569 6.776 63.4383 6.776C63.9703 6.776 64.4509 6.89267 64.8803 7.126C65.3096 7.35933 65.6503 7.70933 65.9023 8.176C66.1543 8.63333 66.2803 9.198 66.2803 9.87L61.3523 9.954C61.3429 11.074 61.5249 11.9467 61.8983 12.572C62.2809 13.1973 62.8689 13.51 63.6623 13.51C64.0916 13.51 64.5303 13.398 64.9783 13.174C65.4356 12.95 65.7856 12.6747 66.0283 12.348L66.3643 12.628C66.0096 13.1693 65.5476 13.5707 64.9783 13.832C64.4183 14.0933 63.8676 14.224 63.3263 14.224ZM64.9643 9.366C64.9643 8.806 64.8383 8.32533 64.5863 7.924C64.3343 7.52267 63.9563 7.322 63.4523 7.322C62.2949 7.322 61.6089 8.00333 61.3943 9.366H64.9643ZM67.3862 13.58C67.6568 13.58 67.8482 13.5147 67.9602 13.384C68.0815 13.244 68.1515 13.0713 68.1702 12.866C68.1982 12.6513 68.2122 12.32 68.2122 11.872V5.25C68.2122 4.89533 68.2262 4.592 68.2542 4.34L67.2602 4.396V3.808C67.8202 3.808 68.2168 3.77533 68.4502 3.71C68.6928 3.64467 68.8795 3.55133 69.0102 3.43H69.4162L69.4302 12.516C69.4302 12.88 69.4068 13.1973 69.3602 13.468L70.2422 13.426V14H67.3862V13.58ZM74.8126 14.224C74.1686 14.224 73.5759 14.0747 73.0346 13.776C72.5026 13.468 72.0779 13.0433 71.7606 12.502C71.4526 11.9607 71.2986 11.3493 71.2986 10.668C71.2986 9.94 71.4526 9.282 71.7606 8.694C72.0686 8.09667 72.4886 7.63 73.0206 7.294C73.5619 6.94867 74.1593 6.776 74.8126 6.776C75.4566 6.776 76.0493 6.93467 76.5906 7.252C77.1319 7.56 77.5566 7.98467 77.8646 8.526C78.1819 9.06733 78.3406 9.66933 78.3406 10.332C78.3406 11.0413 78.1819 11.6947 77.8646 12.292C77.5566 12.8893 77.1319 13.3607 76.5906 13.706C76.0586 14.0513 75.4659 14.224 74.8126 14.224ZM74.9246 13.664C75.6059 13.664 76.1053 13.384 76.4226 12.824C76.7493 12.264 76.9126 11.5687 76.9126 10.738C76.9126 9.79533 76.7353 8.988 76.3806 8.316C76.0353 7.644 75.5126 7.308 74.8126 7.308C74.1219 7.308 73.5993 7.59267 73.2446 8.162C72.8993 8.73133 72.7266 9.43133 72.7266 10.262C72.7266 10.8593 72.8059 11.4193 72.9646 11.942C73.1326 12.4553 73.3799 12.8707 73.7066 13.188C74.0426 13.5053 74.4486 13.664 74.9246 13.664ZM79.4041 17.15C79.6747 17.15 79.8661 17.08 79.9781 16.94C80.0994 16.8093 80.1694 16.6413 80.1881 16.436C80.2067 16.24 80.2207 15.9087 80.2301 15.442L80.2581 8.68C80.2581 8.288 80.2767 7.98467 80.3141 7.77L79.3201 7.826V7.238C79.8707 7.238 80.2487 7.21 80.4541 7.154C80.6594 7.08867 80.8274 6.99067 80.9581 6.86H81.3781C81.4154 7.31733 81.4341 7.56933 81.4341 7.616C81.7141 7.364 82.0501 7.16333 82.4421 7.014C82.8341 6.85533 83.2214 6.776 83.6041 6.776C84.1547 6.776 84.6634 6.92067 85.1301 7.21C85.5967 7.49 85.9701 7.896 86.2501 8.428C86.5394 8.95067 86.6841 9.55733 86.6841 10.248C86.6841 11.0227 86.5207 11.7133 86.1941 12.32C85.8674 12.9173 85.4287 13.384 84.8781 13.72C84.3367 14.056 83.7487 14.224 83.1141 14.224C82.4701 14.224 81.9101 14.07 81.4341 13.762V16.086C81.4341 16.506 81.4154 16.8233 81.3781 17.038L82.2601 16.996V17.57H79.4041V17.15ZM83.0861 13.664C83.5247 13.664 83.9027 13.5287 84.2201 13.258C84.5467 12.9873 84.7987 12.6093 84.9761 12.124C85.1534 11.6387 85.2421 11.088 85.2421 10.472C85.2421 9.632 85.0601 8.92267 84.6961 8.344C84.3414 7.756 83.8094 7.462 83.1001 7.462C82.7921 7.462 82.4934 7.53667 82.2041 7.686C81.9147 7.83533 81.6627 8.022 81.4481 8.246C81.4574 8.31133 81.4621 8.596 81.4621 9.1L81.4481 13.118C81.9241 13.482 82.4701 13.664 83.0861 13.664ZM87.8836 13.58C88.1542 13.58 88.3456 13.5147 88.4576 13.384C88.5789 13.244 88.6489 13.0713 88.6676 12.866C88.6956 12.6513 88.7096 12.32 88.7096 11.872V8.68C88.7096 8.288 88.7282 7.98467 88.7656 7.77L87.7716 7.826V7.238C88.3222 7.238 88.7002 7.21 88.9056 7.154C89.1109 7.08867 89.2836 6.99067 89.4236 6.86H89.8296C89.8482 7 89.8669 7.24733 89.8856 7.602C90.1749 7.35 90.5016 7.14933 90.8656 7C91.2296 6.85067 91.5889 6.776 91.9436 6.776C92.4009 6.776 92.7882 6.86 93.1056 7.028C93.4322 7.18667 93.6842 7.41533 93.8616 7.714C94.1976 7.44333 94.5709 7.21933 94.9816 7.042C95.4016 6.86467 95.8029 6.776 96.1856 6.776C97.0069 6.776 97.6042 7.028 97.9776 7.532C98.3602 8.02667 98.5422 8.82 98.5236 9.912L98.5096 12.516C98.5096 12.936 98.4909 13.2533 98.4536 13.468L99.3356 13.426V14H96.4796V13.58C96.7502 13.58 96.9416 13.5147 97.0536 13.384C97.1749 13.244 97.2449 13.0713 97.2636 12.866C97.2916 12.6513 97.3056 12.32 97.3056 11.872V9.912C97.3056 9.10933 97.1796 8.512 96.9276 8.12C96.6756 7.71867 96.2789 7.518 95.7376 7.518C95.4482 7.518 95.1542 7.58333 94.8556 7.714C94.5662 7.83533 94.3096 7.99867 94.0856 8.204C94.1789 8.49333 94.2256 8.834 94.2256 9.226L94.1976 12.516C94.1976 12.936 94.1789 13.2533 94.1416 13.468L95.0236 13.426V14H92.1676V13.58C92.4382 13.58 92.6296 13.5147 92.7416 13.384C92.8629 13.244 92.9329 13.076 92.9516 12.88C92.9702 12.6747 92.9842 12.3387 92.9936 11.872L93.0076 9.912C93.0169 9.1 92.9002 8.49333 92.6576 8.092C92.4149 7.69067 92.0276 7.49 91.4956 7.49C91.2062 7.49 90.9169 7.55067 90.6276 7.672C90.3476 7.79333 90.1049 7.95667 89.8996 8.162L89.9136 8.918V12.516C89.9136 12.936 89.8949 13.2533 89.8576 13.468L90.7396 13.426V14H87.8836V13.58ZM103.781 14.224C103.137 14.224 102.554 14.0747 102.031 13.776C101.518 13.468 101.112 13.034 100.813 12.474C100.515 11.9047 100.365 11.2513 100.365 10.514C100.365 9.86067 100.515 9.24933 100.813 8.68C101.112 8.10133 101.527 7.63933 102.059 7.294C102.601 6.94867 103.212 6.776 103.893 6.776C104.425 6.776 104.906 6.89267 105.335 7.126C105.765 7.35933 106.105 7.70933 106.357 8.176C106.609 8.63333 106.735 9.198 106.735 9.87L101.807 9.954C101.798 11.074 101.98 11.9467 102.353 12.572C102.736 13.1973 103.324 13.51 104.117 13.51C104.547 13.51 104.985 13.398 105.433 13.174C105.891 12.95 106.241 12.6747 106.483 12.348L106.819 12.628C106.465 13.1693 106.003 13.5707 105.433 13.832C104.873 14.0933 104.323 14.224 103.781 14.224ZM105.419 9.366C105.419 8.806 105.293 8.32533 105.041 7.924C104.789 7.52267 104.411 7.322 103.907 7.322C102.75 7.322 102.064 8.00333 101.849 9.366H105.419ZM107.981 13.58C108.252 13.58 108.443 13.5147 108.555 13.384C108.677 13.244 108.747 13.076 108.765 12.88C108.784 12.6747 108.798 12.3387 108.807 11.872L108.821 8.68C108.821 8.288 108.84 7.98467 108.877 7.77L107.883 7.826V7.238C108.434 7.238 108.812 7.21 109.017 7.154C109.223 7.08867 109.395 6.99067 109.535 6.86H109.941C109.96 7.03733 109.979 7.322 109.997 7.714C110.315 7.434 110.674 7.21 111.075 7.042C111.486 6.86467 111.887 6.776 112.279 6.776C113.091 6.776 113.684 7.03267 114.057 7.546C114.431 8.05 114.617 8.83867 114.617 9.912V12.516C114.617 12.936 114.599 13.2533 114.561 13.468L115.443 13.426V14H112.587V13.58C112.858 13.58 113.049 13.5147 113.161 13.384C113.283 13.244 113.353 13.0713 113.371 12.866C113.399 12.6513 113.413 12.32 113.413 11.872V9.912C113.404 9.10933 113.273 8.50733 113.021 8.106C112.769 7.69533 112.373 7.49 111.831 7.49C111.495 7.49 111.159 7.574 110.823 7.742C110.497 7.91 110.226 8.12933 110.011 8.4C110.021 8.50267 110.025 8.68467 110.025 8.946L110.011 12.516C110.011 12.936 109.993 13.2533 109.955 13.468L110.837 13.426V14H107.981V13.58ZM118.994 14.224C117.715 14.224 117.081 13.3653 117.09 11.648L117.118 7.588L116.04 7.602V7C116.488 6.99067 116.866 6.79 117.174 6.398C117.491 5.99667 117.725 5.544 117.874 5.04H118.35V7H120.702V7.546L118.35 7.574C118.341 9.002 118.331 9.99133 118.322 10.542C118.322 11.0927 118.322 11.4007 118.322 11.466C118.322 12.1287 118.401 12.6233 118.56 12.95C118.719 13.2673 118.994 13.426 119.386 13.426C119.629 13.426 119.867 13.3513 120.1 13.202C120.343 13.0527 120.553 12.8473 120.73 12.586L121.108 12.894C120.744 13.4353 120.385 13.7947 120.03 13.972C119.675 14.14 119.33 14.224 118.994 14.224ZM122.868 14.224C122.644 14.224 122.453 14.14 122.294 13.972C122.135 13.7947 122.056 13.58 122.056 13.328C122.056 13.076 122.135 12.8613 122.294 12.684C122.462 12.5067 122.658 12.418 122.882 12.418C123.115 12.418 123.307 12.5067 123.456 12.684C123.615 12.8613 123.694 13.076 123.694 13.328C123.694 13.58 123.61 13.7947 123.442 13.972C123.283 14.14 123.092 14.224 122.868 14.224ZM128.091 14.224C127.653 14.224 127.251 14.1633 126.887 14.042C126.523 13.93 126.211 13.7853 125.949 13.608L126.005 14.098H125.417L125.333 11.69H125.767C125.786 12.0727 125.889 12.4133 126.075 12.712C126.271 13.0107 126.523 13.2487 126.831 13.426C127.149 13.594 127.485 13.678 127.839 13.678C128.241 13.678 128.595 13.5847 128.903 13.398C129.221 13.202 129.379 12.9267 129.379 12.572C129.379 12.3107 129.3 12.0913 129.141 11.914C128.992 11.7367 128.801 11.592 128.567 11.48C128.343 11.3587 128.026 11.2187 127.615 11.06C127.121 10.8733 126.724 10.7007 126.425 10.542C126.127 10.374 125.87 10.15 125.655 9.87C125.441 9.59 125.333 9.23533 125.333 8.806C125.333 8.498 125.408 8.19 125.557 7.882C125.707 7.574 125.959 7.31267 126.313 7.098C126.668 6.88333 127.139 6.776 127.727 6.776C128.017 6.776 128.311 6.82267 128.609 6.916C128.917 7.00933 129.202 7.16333 129.463 7.378L129.435 6.846H130.023V9.296H129.575C129.547 8.75467 129.379 8.288 129.071 7.896C128.773 7.49467 128.348 7.294 127.797 7.294C127.377 7.294 127.041 7.40133 126.789 7.616C126.547 7.82133 126.425 8.06867 126.425 8.358C126.425 8.62867 126.505 8.85733 126.663 9.044C126.831 9.23067 127.037 9.38933 127.279 9.52C127.522 9.65067 127.849 9.79533 128.259 9.954C128.745 10.15 129.137 10.332 129.435 10.5C129.734 10.668 129.986 10.892 130.191 11.172C130.406 11.4427 130.513 11.774 130.513 12.166C130.513 12.614 130.397 12.992 130.163 13.3C129.939 13.608 129.641 13.8413 129.267 14C128.903 14.1493 128.511 14.224 128.091 14.224ZM134.656 14.224C133.863 14.224 133.279 13.9953 132.906 13.538C132.542 13.0807 132.36 12.292 132.36 11.172V8.68C132.36 8.288 132.379 7.98467 132.416 7.77L131.45 7.812V7.238H131.884C132.248 7.238 132.523 7.20533 132.71 7.14C132.897 7.07467 133.055 6.98133 133.186 6.86H133.592V11.13C133.592 11.9513 133.704 12.5533 133.928 12.936C134.161 13.3187 134.544 13.51 135.076 13.51C135.421 13.51 135.757 13.4073 136.084 13.202C136.42 12.9967 136.691 12.74 136.896 12.432V8.834C136.896 8.39533 136.919 8.04067 136.966 7.77L135.958 7.812V7.238H136.392C136.756 7.238 137.031 7.20533 137.218 7.14C137.405 7.07467 137.563 6.98133 137.694 6.86H138.1L138.086 12.152C138.086 12.6933 138.067 13.132 138.03 13.468L139.038 13.412V14H137.036C136.989 13.7107 136.957 13.4307 136.938 13.16C136.63 13.468 136.271 13.7247 135.86 13.93C135.449 14.126 135.048 14.224 134.656 14.224ZM139.929 17.15C140.2 17.15 140.391 17.08 140.503 16.94C140.625 16.8093 140.695 16.6413 140.713 16.436C140.732 16.24 140.746 15.9087 140.755 15.442L140.783 8.68C140.783 8.288 140.802 7.98467 140.839 7.77L139.845 7.826V7.238C140.396 7.238 140.774 7.21 140.979 7.154C141.185 7.08867 141.353 6.99067 141.483 6.86H141.903C141.941 7.31733 141.959 7.56933 141.959 7.616C142.239 7.364 142.575 7.16333 142.967 7.014C143.359 6.85533 143.747 6.776 144.129 6.776C144.68 6.776 145.189 6.92067 145.655 7.21C146.122 7.49 146.495 7.896 146.775 8.428C147.065 8.95067 147.209 9.55733 147.209 10.248C147.209 11.0227 147.046 11.7133 146.719 12.32C146.393 12.9173 145.954 13.384 145.403 13.72C144.862 14.056 144.274 14.224 143.639 14.224C142.995 14.224 142.435 14.07 141.959 13.762V16.086C141.959 16.506 141.941 16.8233 141.903 17.038L142.785 16.996V17.57H139.929V17.15ZM143.611 13.664C144.05 13.664 144.428 13.5287 144.745 13.258C145.072 12.9873 145.324 12.6093 145.501 12.124C145.679 11.6387 145.767 11.088 145.767 10.472C145.767 9.632 145.585 8.92267 145.221 8.344C144.867 7.756 144.335 7.462 143.625 7.462C143.317 7.462 143.019 7.53667 142.729 7.686C142.44 7.83533 142.188 8.022 141.973 8.246C141.983 8.31133 141.987 8.596 141.987 9.1L141.973 13.118C142.449 13.482 142.995 13.664 143.611 13.664ZM148.283 17.15C148.554 17.15 148.745 17.08 148.857 16.94C148.978 16.8093 149.048 16.6413 149.067 16.436C149.086 16.24 149.1 15.9087 149.109 15.442L149.137 8.68C149.137 8.288 149.156 7.98467 149.193 7.77L148.199 7.826V7.238C148.75 7.238 149.128 7.21 149.333 7.154C149.538 7.08867 149.706 6.99067 149.837 6.86H150.257C150.294 7.31733 150.313 7.56933 150.313 7.616C150.593 7.364 150.929 7.16333 151.321 7.014C151.713 6.85533 152.1 6.776 152.483 6.776C153.034 6.776 153.542 6.92067 154.009 7.21C154.476 7.49 154.849 7.896 155.129 8.428C155.418 8.95067 155.563 9.55733 155.563 10.248C155.563 11.0227 155.4 11.7133 155.073 12.32C154.746 12.9173 154.308 13.384 153.757 13.72C153.216 14.056 152.628 14.224 151.993 14.224C151.349 14.224 150.789 14.07 150.313 13.762V16.086C150.313 16.506 150.294 16.8233 150.257 17.038L151.139 16.996V17.57H148.283V17.15ZM151.965 13.664C152.404 13.664 152.782 13.5287 153.099 13.258C153.426 12.9873 153.678 12.6093 153.855 12.124C154.032 11.6387 154.121 11.088 154.121 10.472C154.121 9.632 153.939 8.92267 153.575 8.344C153.22 7.756 152.688 7.462 151.979 7.462C151.671 7.462 151.372 7.53667 151.083 7.686C150.794 7.83533 150.542 8.022 150.327 8.246C150.336 8.31133 150.341 8.596 150.341 9.1L150.327 13.118C150.803 13.482 151.349 13.664 151.965 13.664ZM156.622 13.58C156.893 13.58 157.084 13.5147 157.196 13.384C157.318 13.244 157.388 13.0713 157.406 12.866C157.434 12.6513 157.448 12.32 157.448 11.872V5.25C157.448 4.89533 157.462 4.592 157.49 4.34L156.496 4.396V3.808C157.056 3.808 157.453 3.77533 157.686 3.71C157.929 3.64467 158.116 3.55133 158.246 3.43H158.652L158.666 12.516C158.666 12.88 158.643 13.1973 158.596 13.468L159.478 13.426V14H156.622V13.58ZM161.587 17.794C161.279 17.794 161.027 17.7193 160.831 17.57C160.635 17.4207 160.537 17.2107 160.537 16.94C160.537 16.7627 160.593 16.604 160.705 16.464C160.826 16.3333 160.98 16.268 161.167 16.268C161.353 16.268 161.489 16.3333 161.573 16.464C161.666 16.5947 161.713 16.73 161.713 16.87C161.713 16.954 161.708 17.0193 161.699 17.066C161.727 17.0847 161.778 17.094 161.853 17.094C161.974 17.094 162.095 17.0473 162.217 16.954C162.347 16.8607 162.464 16.7253 162.567 16.548C162.781 16.1933 163.108 15.3953 163.547 14.154L161.363 9.478C160.971 8.638 160.723 7.994 160.621 7.546L159.949 7.574V7H162.847V7.42H162.791C162.352 7.448 162.133 7.63467 162.133 7.98C162.133 8.21333 162.245 8.57733 162.469 9.072L164.107 12.586C164.387 11.7927 164.788 10.6213 165.311 9.072C165.628 8.148 165.857 7.63 165.997 7.518L165.031 7.574V7H167.229V7.42C166.911 7.54133 166.664 7.73733 166.487 8.008C166.319 8.26933 166.132 8.68 165.927 9.24L164.177 14.126C163.841 15.0687 163.561 15.778 163.337 16.254C163.122 16.7393 162.875 17.1173 162.595 17.388C162.324 17.6587 161.988 17.794 161.587 17.794Z" transform="translate(0 -3)" fill="white"/>
</svg>
