<?xml version="1.0" encoding="utf-8"?>
<!-- Generator: Adobe Illustrator 16.0.0, SVG Export Plug-In . SVG Version: 6.00 Build 0)  -->
<!DOCTYPE svg PUBLIC "-//W3C//DTD SVG 1.1//EN" "http://www.w3.org/Graphics/SVG/1.1/DTD/svg11.dtd">
<svg version="1.1" id="Layer_1" xmlns="http://www.w3.org/2000/svg" xmlns:xlink="http://www.w3.org/1999/xlink" x="0px" y="0px"
	 width="31.302px" height="69.705px" viewBox="0 0 31.302 69.705" enable-background="new 0 0 31.302 69.705" xml:space="preserve">
<g>
	<path d="M26.402,0c4.3,0,4.9,1.6,4.9,3.9c0,4.4-0.2,10.4-2.8,10.801c-4.701,1-14.901,1.5-20.301,4.2c-0.1,3.5-0.7,9.5-0.7,13.401
		v1.3c2-0.3,13.601-4.5,17.401-4.5c2,0,2.1,1.5,2.1,4.6v1.1c0,11-3.1,6.4-19.001,13.701c-1,3.8,0.6,21.202-4.3,21.202
		c-2.9,0-3.7-3-3.7-11.801C0,44.203,1.3,20.001,2.6,5.201C2.8,3.3,18.601,0,26.402,0z"/>
</g>
</svg>
