<?xml version="1.0" encoding="utf-8"?>
<!-- Generator: Adobe Illustrator 16.0.0, SVG Export Plug-In . SVG Version: 6.00 Build 0)  -->
<!DOCTYPE svg PUBLIC "-//W3C//DTD SVG 1.1//EN" "http://www.w3.org/Graphics/SVG/1.1/DTD/svg11.dtd">
<svg version="1.1" id="Layer_1" xmlns="http://www.w3.org/2000/svg" xmlns:xlink="http://www.w3.org/1999/xlink" x="0px" y="0px"
	 width="42.103px" height="86.605px" viewBox="0 0 42.103 86.605" enable-background="new 0 0 42.103 86.605" xml:space="preserve">
<g>
	<path d="M34.602,58.503c-5.2,9.101-11.701,12.501-17.601,12.501C3.9,71.004,0,57.903,0,45.803C0,25.501,11.901,0,23.802,0
		c7.5,0,12.4,10.5,12.4,22.801c0,5.2-1.3,8.101-3.8,8.101c-5.301,0-6-13.501-10.201-13.501c-4.9,0-11.101,10.801-12.301,16.001
		c-1.2,3.2-1.8,6.5-1.8,9.401c0,5.8,2.5,10.4,8.4,10.4c2.601,0,6-0.9,10.001-3c-2.1-0.4-2-0.6-2.4-0.6c-0.3,0-1,0.1-3.3,0.3
		c0-5.2,1.1-11.601,1.3-15.101c1.3-0.5,4.4-1.4,7.7-1.4c5.701,0,12.301,2.9,12.301,16.001c0,7.701-1.6,20.602-2.7,33.602
		c-1.1,1.8-2.9,3.601-4.4,3.601c-0.7,0-1.3-0.4-1.7-1.5C33.502,77.905,34.402,70.604,34.602,58.503z"/>
</g>
</svg>
