<?xml version="1.0" encoding="utf-8"?>
<!-- Generator: Adobe Illustrator 16.0.0, SVG Export Plug-In . SVG Version: 6.00 Build 0)  -->
<!DOCTYPE svg PUBLIC "-//W3C//DTD SVG 1.1//EN" "http://www.w3.org/Graphics/SVG/1.1/DTD/svg11.dtd">
<svg version="1.1" id="Layer_1" xmlns="http://www.w3.org/2000/svg" xmlns:xlink="http://www.w3.org/1999/xlink" x="0px" y="0px"
	 width="76.4px" height="102.406px" viewBox="0 0 76.4 102.406" enable-background="new 0 0 76.4 102.406" xml:space="preserve">
<g>
	<path d="M34.602,74.304c-5.2,9.101-11.701,12.501-17.601,12.501C3.9,86.805,0,73.704,0,61.604
		c0-20.301,11.901-45.803,23.802-45.803c7.5,0,12.4,10.5,12.4,22.801c0,5.2-1.3,8.101-3.8,8.101c-5.301,0-6-13.501-10.201-13.501
		c-4.9,0-11.101,10.801-12.301,16.001c-1.2,3.2-1.8,6.5-1.8,9.401c0,5.8,2.5,10.4,8.4,10.4c2.601,0,6-0.9,10.001-3
		c-2.1-0.4-2-0.6-2.4-0.6c-0.3,0-1,0.1-3.3,0.3c0-5.2,1.1-11.601,1.3-15.101c1.3-0.5,4.4-1.4,7.7-1.4
		c5.701,0,12.301,2.9,12.301,16.001c0,7.701-1.6,20.602-2.7,33.602c-1.1,1.8-2.9,3.601-4.4,3.601c-0.7,0-1.3-0.4-1.7-1.5
		C33.502,93.706,34.402,86.405,34.602,74.304z"/>
	<path d="M53.7,6.7c0,6.101-0.1,12.801-0.2,18.801c2.7-2,5.4-3.1,7.601-3.1c3.1,0,5.3,2.1,5.3,7.3
		c0,15.101-16.101,30.202-19.101,30.702c0-10.101,1.1-39.302,1.1-52.703c0-2.2,0-4-0.1-5.2c0-0.6,4-2.5,5.1-2.5
		c0.2,0,0.3,0.1,0.3,0.2V6.7z M52.6,45.803c4-2.9,6.3-8.201,6.3-10.601c-0.1-1.7-0.6-2.4-1.3-2.4c-1.4,0-3.6,2.5-4.6,3.9
		C52.899,38.702,52.6,43.402,52.6,45.803z"/>
</g>
</svg>
