<?xml version="1.0" encoding="utf-8"?>
<!-- Generator: Adobe Illustrator 16.0.0, SVG Export Plug-In . SVG Version: 6.00 Build 0)  -->
<!DOCTYPE svg PUBLIC "-//W3C//DTD SVG 1.1//EN" "http://www.w3.org/Graphics/SVG/1.1/DTD/svg11.dtd">
<svg version="1.1" id="Layer_1" xmlns="http://www.w3.org/2000/svg" xmlns:xlink="http://www.w3.org/1999/xlink" x="0px" y="0px" fill="#FFFFFF"
	 width="201.4px" height="85.1px" viewBox="0 0 201.4 85.1" enable-background="new 0 0 201.4 85.1" xml:space="preserve">
<g>
	<path d="M53.9,74c0,2.7,0,4.2,0,4.4c0,0.3,0,0.4,0.1,0.3c0,0.8-0.1,1.8-0.3,2.8c-0.2,1-0.5,2.2-0.9,3.6h-5.7
		c-2.5-3.4-8.2-9.9-17.1-19.6c-10.2-11-17.3-17.9-21.4-20.7c0,6.8,0.4,13.8,1.1,20.8l1.1,11.7c0,1.3-0.1,2.3-0.3,3.1
		c-0.4,0.9-1.3,1.3-2.7,1.3c-1.4,0-2.9-0.4-4.3-1.1c-1.1-3.6-2-9.4-2.6-17.5C0.3,55.2,0,45,0,32.6C0,24.8,0.5,17,1.6,9.1
		c1-0.4,2-0.6,3-0.6c1.6,0,3,0.5,4.3,1.4c0.5,0.8,0.8,2.2,0.8,4.1c0,2.5,0,3.9,0.1,4.2l28.1,29.9c-0.7-5.6-1.3-10.5-1.6-14.8
		c-0.4-4.3-0.5-8-0.5-11.2c0-1,0-2.2,0.1-3.6c0.1-1.4,0.3-3.4,0.5-5.9c0.6-5.9,1.3-9.9,2.1-12.1c0.4,0,1.1-0.1,2.1-0.3
		c1-0.2,1.7-0.3,2.1-0.3c1.3,0,2.4,0.7,3.3,2.1L45.5,9c0,1.3-0.1,3.1-0.2,5.5c-0.1,2.4-0.2,4.1-0.2,5.1c0,5,0.3,10.4,0.9,16
		c0.9,8.5,2.5,16.4,4.9,23.7c1,3,1.7,5.8,2.2,8.3C53.6,70.1,53.9,72.2,53.9,74z"/>
	<path d="M92.8,69c0.3,0.3,0.4,1.1,0.4,2.4c0,1.3-0.1,3-0.3,5l-0.4,3.3c0,2.3-1.1,3.8-3.2,4.4c-0.6,0.2-2,0.2-4.4,0.2h-20
		c-0.8-1.6-1.8-7.8-2.8-18.6c-0.4-3.9-0.8-7.9-1.2-12s-0.6-7.6-0.6-10.5c0-2.6,0.8-5.3,2.5-8.1c1.6-2.8,4.2-5.6,7.6-8.4
		c6.1-5,11.3-7.9,15.5-8.5c0.1,0,0.2,0,0.3,0c0.1,0,0.2,0,0.2,0c2.1,0,3.2,1.9,3.2,5.6l-0.2,2.8c0,1.6-0.1,2.9-0.4,4
		c-0.2,1.1-0.6,2-1,2.8c-0.4,0.7-1.5,1.5-3.3,2.4c-2.6,1.1-4.8,2.3-6.5,3.6c-6.5,4.6-9.7,7.7-9.7,9.4c0,0.5,0.3,0.7,1,0.7
		c9.7-4,14.8-6,15.4-6.1c1.6,0,2.6,1.2,3,3.6c0,0.2,0.1,0.8,0.1,1.8c0.1,1.1,0.1,2.2,0.1,3.3c0,4.5-1.2,7.4-3.6,8.8l-13.1,5.3
		l-0.2,1.2c-0.1,0.6-0.1,0.9,0,1c2.7,0,5.4,0,8.1,0c2.7,0,5.6-0.1,8.6-0.1C91,68.4,92.6,68.6,92.8,69z"/>
	<path d="M139.4,68.5c0,7.7-0.9,12.8-2.7,15.2h-5c-1.4-2.3-4.9-7.1-10.5-14.4c-0.6,1.8-1,3.2-1.2,4.4c-0.4,1.6-0.5,2.9-0.5,4
		c-3.8,4.1-7.1,6.2-9.8,6.2c-0.7,0-1.3-0.2-1.9-0.5c0-4.6,2.1-12.3,6.2-22.9c-10.5-13.1-15.8-19.7-15.8-19.9
		c-0.2-0.2-0.3-0.6-0.4-1.2S97.4,38,97.4,37c0-6.9,1.4-11.9,4.2-15.2c1.3,0,7.7,6.9,19.3,20.8c3.7-9.1,5.5-14.9,5.5-17.5l-0.1-1.4
		l10.8-5.2c0,5.6-0.9,11.4-2.8,17.4c-1.2,3.9-3.2,9.1-6.2,15.5C134.8,59.5,138.5,65.2,139.4,68.5z"/>
	<path d="M179.2,16.6c0.5,4.6,0.7,8.6,0.7,12c0,4.9-0.4,7.4-1.1,7.4c-1.9-0.2-6.2,1.5-13,5l1.4,40.3c-1.3,1.3-2.6,2.1-4,2.4
		c-1.4,0.3-2.2,0.4-2.3,0.4c-1,0.2-1.8,0.5-2.3,0.7L156.4,45c-6.7,3.6-10.5,5.4-11.5,5.4l-0.3-0.1L144,31.4l11.1-6.1
		c8-4.2,13.4-6.8,16.2-7.8c0.9-0.3,2-0.5,3.3-0.7C176,16.7,177.5,16.6,179.2,16.6z"/>
	<path d="M199.5,37.9c0,1-0.4,2.5-1.3,4.6c-1,2.5-2.1,3.9-3.3,4.4c-1.2,0.2-3.4,0.3-6.6,0.3c-1.4,0-2.1-0.6-2.1-1.8
		c0-0.9,0.6-2.6,1.8-5c1-2,1.9-3.4,2.6-4.1c0.4-0.2,1.6-0.3,3.8-0.3c0.9,0,1.7,0,2.4,0s1.1,0,1.5,0.1
		C199.1,36.3,199.5,36.9,199.5,37.9z M201.4,72.6c0,1-0.4,2.5-1.3,4.5c-1,2.4-2.1,3.9-3.3,4.4c-1.2,0.2-3.4,0.3-6.6,0.3
		c-1.4,0-2.1-0.6-2.1-1.8c0-0.9,0.6-2.6,1.8-4.9c1-2,1.9-3.3,2.6-4.1c0.4-0.2,1.6-0.3,3.8-0.3c0.9,0,1.7,0,2.4,0s1.1,0,1.5,0.1
		C200.9,70.9,201.4,71.5,201.4,72.6z"/>
</g>
</svg>
