<svg width="202" height="86" viewBox="0 0 202 86" fill="none" xmlns="http://www.w3.org/2000/svg">
<path d="M53.9 74.1C53.9 76.8 53.9 78.3 53.9 78.5C53.9 78.8 53.9 78.9 54 78.8C54 79.6 53.9 80.6 53.7 81.6C53.5 82.6 53.2 83.8 52.8 85.2H47.1C44.6 81.8 38.9 75.3 30 65.6C19.8 54.6 12.7 47.7 8.6 44.9C8.6 51.7 9 58.7 9.7 65.7L10.8 77.4C10.8 78.7 10.7 79.7 10.5 80.5C10.1 81.4 9.2 81.8 7.8 81.8C6.4 81.8 4.9 81.4 3.5 80.7C2.4 77.1 1.5 71.3 0.9 63.2C0.3 55.3 0 45.1 0 32.7C0 24.9 0.5 17.1 1.6 9.2C2.6 8.8 3.6 8.6 4.6 8.6C6.2 8.6 7.6 9.1 8.9 10C9.4 10.8 9.7 12.2 9.7 14.1C9.7 16.6 9.7 18 9.8 18.3L37.9 48.2C37.2 42.6 36.6 37.7 36.3 33.4C35.9 29.1 35.8 25.4 35.8 22.2C35.8 21.2 35.8 20 35.9 18.6C36 17.2 36.2 15.2 36.4 12.7C37 6.8 37.7 2.8 38.5 0.6C38.9 0.6 39.6 0.5 40.6 0.3C41.6 0.1 42.3 -1.49011e-09 42.7 -1.49011e-09C44 -1.49011e-09 45.1 0.7 46 2.1L45.5 9.1C45.5 10.4 45.4 12.2 45.3 14.6C45.2 17 45.1 18.7 45.1 19.7C45.1 24.7 45.4 30.1 46 35.7C46.9 44.2 48.5 52.1 50.9 59.4C51.9 62.4 52.6 65.2 53.1 67.7C53.6 70.2 53.9 72.3 53.9 74.1Z" fill="white"/>
<path d="M32.5 50.8C32.8 51.1 32.9 51.9 32.9 53.2C32.9 54.5 32.8 56.2 32.6 58.2L32.2 61.5C32.2 63.8 31.1 65.3 29 65.9C28.4 66.1 27 66.1 24.6 66.1H4.6C3.8 64.5 2.8 58.3 1.8 47.5C1.4 43.6 1 39.6 0.600002 35.5C0.200002 31.4 -7.62939e-07 27.9 -7.62939e-07 25C-7.62939e-07 22.4 0.799999 19.7 2.5 16.9C4.1 14.1 6.7 11.3 10.1 8.5C16.2 3.5 21.4 0.600001 25.6 7.62939e-07C25.7 7.62939e-07 25.8 7.62939e-07 25.9 7.62939e-07C26 7.62939e-07 26.1 7.62939e-07 26.1 7.62939e-07C28.2 7.62939e-07 29.3 1.9 29.3 5.6L29.1 8.4C29.1 10 29 11.3 28.7 12.4C28.5 13.5 28.1 14.4 27.7 15.2C27.3 15.9 26.2 16.7 24.4 17.6C21.8 18.7 19.6 19.9 17.9 21.2C11.4 25.8 8.2 28.9 8.2 30.6C8.2 31.1 8.5 31.3 9.2 31.3C18.9 27.3 24 25.3 24.6 25.2C26.2 25.2 27.2 26.4 27.6 28.8C27.6 29 27.7 29.6 27.7 30.6C27.8 31.7 27.8 32.8 27.8 33.9C27.8 38.4 26.6 41.3 24.2 42.7L11.1 48L10.9 49.2C10.8 49.8 10.8 50.1 10.9 50.2C13.6 50.2 16.3 50.2 19 50.2C21.7 50.2 24.6 50.1 27.6 50.1C30.7 50.2 32.3 50.4 32.5 50.8Z" transform="translate(60.3 18.3)" fill="white"/>
<path d="M42 50C42 57.7 41.1 62.8 39.3 65.2H34.3C32.9 62.9 29.4 58.1 23.8 50.8C23.2 52.6 22.8 54 22.6 55.2C22.2 56.8 22.1 58.1 22.1 59.2C18.3 63.3 15 65.4 12.3 65.4C11.6 65.4 11 65.2 10.4 64.9C10.4 60.3 12.5 52.6 16.6 42C6.1 28.9 0.799997 22.3 0.799997 22.1C0.599997 21.9 0.500003 21.5 0.400003 20.9C0.300003 20.3 1.52588e-06 19.5 1.52588e-06 18.5C1.52588e-06 11.6 1.4 6.6 4.2 3.3C5.5 3.3 11.9 10.2 23.5 24.1C27.2 15 29 9.2 29 6.6L28.9 5.2L39.7 0C39.7 5.6 38.8 11.4 36.9 17.4C35.7 21.3 33.7 26.5 30.7 32.9C37.4 41 41.1 46.7 42 50Z" transform="translate(97.4 18.6)" fill="white"/>
<path d="M35.2 3.8147e-07C35.7 4.6 35.9 8.6 35.9 12C35.9 16.9 35.5 19.4 34.8 19.4C32.9 19.2 28.6 20.9 21.8 24.4L23.2 64.7C21.9 66 20.6 66.8 19.2 67.1C17.8 67.4 17 67.5 16.9 67.5C15.9 67.7 15.1 68 14.6 68.2L12.4 28.4C5.69999 32 1.89999 33.8 0.899994 33.8L0.600006 33.7L0 14.8L11.1 8.7C19.1 4.5 24.5 1.9 27.3 0.9C28.2 0.6 29.3 0.399999 30.6 0.199999C32 0.0999992 33.5 3.8147e-07 35.2 3.8147e-07Z" transform="translate(144 16.7)" fill="white"/>
<path d="M13.3 1.9C13.3 2.9 12.9 4.4 12 6.5C11 9 9.89999 10.4 8.69999 10.9C7.49999 11.1 5.3 11.2 2.1 11.2C0.700003 11.2 -3.05176e-06 10.6 -3.05176e-06 9.4C-3.05176e-06 8.5 0.6 6.8 1.8 4.4C2.8 2.4 3.70001 0.999999 4.40001 0.299999C4.80001 0.0999992 5.99999 0 8.19999 0C9.09999 0 9.9 0 10.6 0C11.3 0 11.7 -1.52737e-06 12.1 0.0999985C12.9 0.299998 13.3 0.900002 13.3 1.9ZM15.2 36.6C15.2 37.6 14.8 39.1 13.9 41.1C12.9 43.5 11.8 45 10.6 45.5C9.4 45.7 7.2 45.8 4 45.8C2.6 45.8 1.90001 45.2 1.90001 44C1.90001 43.1 2.49999 41.4 3.69999 39.1C4.69999 37.1 5.6 35.8 6.3 35C6.7 34.8 7.9 34.7 10.1 34.7C11 34.7 11.8 34.7 12.5 34.7C13.2 34.7 13.6 34.7 14 34.8C14.7 34.9 15.2 35.5 15.2 36.6Z" transform="translate(186.2 36.1)" fill="white"/>
</svg>
