<?xml version="1.0" encoding="utf-8"?>
<!-- Generator: Adobe Illustrator 16.0.0, SVG Export Plug-In . SVG Version: 6.00 Build 0)  -->
<!DOCTYPE svg PUBLIC "-//W3C//DTD SVG 1.1//EN" "http://www.w3.org/Graphics/SVG/1.1/DTD/svg11.dtd">
<svg version="1.1" id="Layer_1" xmlns="http://www.w3.org/2000/svg" xmlns:xlink="http://www.w3.org/1999/xlink" x="0px" y="0px"
	 width="29.6px" height="82.3px" viewBox="0 0 29.6 82.3" enable-background="new 0 0 29.6 82.3" xml:space="preserve">
<g>
	<path d="M8.4,44.9c0.1-1,0.1-2.4,0.1-4.3c0-1.9,0-3.9,0-6s0-4.1,0-6c0-1.9,0-3.5,0.1-4.6c0-0.5,0.3-1.1,0.8-2
		c0.6-0.8,1.2-1.6,1.8-2.4c0.6-0.8,1.2-1.4,1.8-1.9c0.6-0.5,0.9-0.7,0.9-0.5c-0.1,3.7-0.1,7.4,0,11.3c0.1,3.9,0.1,8.2,0,12.9
		l2.7-1.7c0-4.6,0.2-9.5,0.5-14.8c0.3-5.2,0.8-10.5,1.4-15.9C18.4,8.7,18.6,8,19.1,7c0.5-1,1-2,1.6-3c0.6-1,1.3-2,1.9-2.8
		c0.6-0.8,1-1.2,1.3-1.2c-0.1,2.2-0.3,4.5-0.5,6.9c-0.2,2.4-0.4,5-0.7,7.9c-0.3,2.9-0.5,6.1-0.7,9.6c-0.2,3.6-0.3,7.6-0.3,12.3
		c0.6-0.3,1.4-0.8,2.5-1.4c1-0.6,2.8-1.6,5.1-3c0.2-0.1,0.3,0.4,0.3,1.5s-0.1,2.3-0.2,3.6c-0.1,1.3-0.3,2.6-0.5,3.8
		c-0.2,1.2-0.5,1.9-0.7,2h-0.1c-1,0.7-2,1.4-3.1,2.1c-1.1,0.7-2.3,1.5-3.6,2.4v3.2c0.1-0.1,0.5-0.3,1-0.5c0.5-0.3,1-0.6,1.6-1
		c0.6-0.3,1.2-0.6,1.8-0.9c0.6-0.3,1.1-0.5,1.5-0.6c0.1,0,0.2,0.5,0.3,1.5c0.1,1,0.1,2.1,0,3.5c0,1.3-0.1,2.5-0.3,3.7
		c-0.2,1.2-0.4,1.9-0.7,2.1c-0.7,0.5-1.7,1.2-2.8,2c-1.1,0.8-2,1.4-2.6,1.8c0,0.5,0,1.4,0,2.6c0,1.2-0.1,2.4-0.1,3.8
		c0,1.3,0,2.6,0,3.8s0,2.1,0,2.8c0,0.2-0.3,0.5-0.8,0.8c-0.5,0.3-1.1,0.6-1.7,0.8c-0.6,0.2-1.1,0.4-1.6,0.5c-0.5,0.1-0.8,0.1-0.8,0
		c-0.1-2.3-0.1-4.2-0.1-5.6c0-1.4,0-2.6,0.1-3.5c0-0.9,0.1-1.6,0.1-2.1c0-0.5,0-1.1,0-1.6l-3.4,2c-0.1,2.8-0.2,5.4-0.3,7.6
		c-0.1,2.3-0.1,4.6-0.1,7c0,0.2-0.2,0.4-0.7,0.5c-0.4,0.2-0.9,0.3-1.4,0.4c-0.5,0.1-1,0.1-1.5,0.1c-0.4,0-0.6-0.1-0.6-0.2V69.2
		C8.6,69,8.5,69,8.3,69.1c-0.3,0.2-0.8,0.4-1.4,0.7c-0.6,0.3-1.3,0.6-2.1,1c-0.8,0.4-1.5,0.7-2.1,0.9c-0.1,0.1-0.3-0.3-0.5-1.1
		c-0.2-0.8-0.3-1.8-0.5-2.8c-0.1-1-0.2-1.9-0.3-2.8c-0.1-0.9,0-1.3,0.1-1.4c0.9-0.5,1.4-0.8,1.7-0.9c0.3-0.1,0.5-0.3,0.8-0.4
		c0.2-0.2,0.7-0.5,1.3-0.9c0.6-0.4,1.7-1.1,3.3-2.2v-3.7c-0.9,0.7-2.1,1.6-3.6,2.5c-1.4,0.9-2.6,1.6-3.6,2C1,60,0.8,59.4,0.6,58.4
		c-0.2-1-0.4-2.1-0.5-3.2C0,54.1,0,53,0,52s0.1-1.6,0.2-1.7c0.7-0.4,1.5-0.9,2.4-1.4c0.9-0.6,1.7-1.1,2.5-1.6c0.8-0.5,1.5-1,2.1-1.4
		C7.8,45.4,8.2,45.1,8.4,44.9z M13.6,55.6c0.5-0.3,1-0.6,1.3-0.8c0.3-0.2,0.8-0.5,1.3-0.8v-3.6c-0.3,0.3-0.8,0.5-1.3,0.8
		c-0.5,0.3-0.9,0.6-1.3,1V55.6z"/>
</g>
</svg>
